<svg width="134" height="48" viewBox="0 0 134 48" fill="none" xmlns="http://www.w3.org/2000/svg">
<path d="M119.566 15.0861C118.977 13.2916 118.679 11.4147 118.683 9.52645C118.683 9.46487 118.683 9.3945 118.683 9.33292C118.683 9.27134 118.683 9.23615 118.683 9.18337C118.689 7.32186 118.987 5.4727 119.566 3.70284C117.378 3.5533 116.107 4.88164 115.411 7.01931C115.206 7.82432 115.105 8.65204 115.111 9.48247C115.081 11.0618 115.451 12.623 116.187 14.0217C117.157 14.7531 118.35 15.129 119.566 15.0861Z" fill="white"/>
<path d="M115.278 7.39827C115.966 4.98789 117.289 3.48361 119.689 3.71233C123.138 4.04662 126.35 7.97887 126.35 7.97887C126.396 8.00678 126.45 8.02153 126.504 8.02153C126.558 8.02153 126.612 8.00678 126.658 7.97887C126.701 7.9619 126.738 7.93293 126.765 7.89546C126.791 7.85798 126.807 7.81362 126.808 7.76774C126.808 3.65955 125.468 1.49549 124.568 0.677368C124.232 0.307438 123.776 0.0675706 123.28 0C121.341 0.254112 119.53 1.10255 118.097 2.42796C116.663 3.75336 115.678 5.49022 115.278 7.39827V7.39827Z" fill="white"/>
<path d="M121.956 15.0165C121.85 14.5855 121.568 14.6646 121.568 14.6646C120.686 15.0456 119.718 15.1869 118.764 15.0741C117.809 14.9613 116.902 14.5984 116.133 14.0225L116.292 14.3128C117.124 15.6181 118.249 16.7125 119.578 17.5095C120.907 18.3065 122.404 18.7842 123.95 18.9048C123.95 18.9048 124.012 18.9048 123.994 18.9048C122.967 17.8219 122.261 16.4758 121.956 15.0165V15.0165Z" fill="white"/>
<path d="M129.534 3.80926C130.124 5.60377 130.421 7.48069 130.417 9.36896C130.417 9.43054 130.417 9.50091 130.417 9.56249C130.417 9.62407 130.417 9.65926 130.417 9.71204C130.411 11.5736 130.113 13.4227 129.534 15.1926C131.722 15.3421 132.993 14.0138 133.69 11.8761C133.897 11.0714 134.001 10.2437 133.998 9.41294C134.028 7.8337 133.658 6.2725 132.922 4.87369C131.949 4.14041 130.753 3.76441 129.534 3.80926V3.80926Z" fill="white"/>
<path d="M133.813 11.4978C133.124 13.9082 131.801 15.4125 129.402 15.1838C125.952 14.8495 122.741 10.9172 122.741 10.9172C122.695 10.8884 122.641 10.873 122.587 10.873C122.532 10.873 122.478 10.8884 122.432 10.9172C122.389 10.9342 122.352 10.9632 122.326 11.0006C122.299 11.0381 122.284 11.0825 122.282 11.1284C122.282 15.2365 123.623 17.4006 124.523 18.2187C124.859 18.5887 125.315 18.8285 125.811 18.8961C127.749 18.642 129.56 17.7935 130.994 16.4681C132.427 15.1427 133.412 13.4059 133.813 11.4978V11.4978Z" fill="white"/>
<path d="M127.135 3.87947C127.241 4.31053 127.523 4.24015 127.523 4.24015C128.405 3.8592 129.373 3.71794 130.327 3.83073C131.282 3.94353 132.189 4.30636 132.958 4.88233L132.799 4.59203C131.967 3.2867 130.842 2.19224 129.513 1.39524C128.184 0.598244 126.687 0.120567 125.141 0C125.141 0 125.08 0 125.097 0C126.123 1.08049 126.828 2.42335 127.135 3.87947V3.87947Z" fill="white"/>
<path d="M19.8489 18.5428C19.8362 17.298 20.083 16.0641 20.5735 14.9193C21.064 13.7745 21.7876 12.7437 22.6984 11.8923C23.5881 10.9939 24.6509 10.2844 25.8229 9.80666C26.995 9.3289 28.2519 9.09276 29.5179 9.11247C30.7739 9.09669 32.0199 9.33753 33.1791 9.82015C34.3383 10.3028 35.3861 11.017 36.2579 11.9187C37.1686 12.7865 37.8906 13.8317 38.3793 14.9893C38.8679 16.147 39.1128 17.3925 39.0987 18.6484C39.12 19.902 38.8793 21.1462 38.3917 22.3019C37.9041 23.4575 37.1804 24.4992 36.2668 25.3605C34.5097 27.0725 32.1669 28.0563 29.711 28.1134C27.2551 28.1705 24.8689 27.2968 23.0337 25.6684C22.0017 24.7942 21.1797 23.7001 20.6285 22.4668C20.0773 21.2335 19.8109 19.8925 19.8489 18.5428V18.5428ZM22.6455 18.5428C22.6137 19.9016 22.991 21.2386 23.7286 22.3815C24.4662 23.5243 25.5303 24.4206 26.7837 24.9546C28.037 25.4886 29.4221 25.6358 30.7602 25.3773C32.0983 25.1188 33.328 24.4665 34.2906 23.5043C34.9393 22.8618 35.4505 22.0947 35.7932 21.2494C36.1359 20.4042 36.303 19.4984 36.2844 18.5868C36.3085 17.6769 36.1465 16.7716 35.8083 15.9262C35.47 15.0807 34.9627 14.3128 34.3171 13.6693C33.6946 13.0198 32.9432 12.5068 32.1108 12.163C31.2785 11.8191 30.3833 11.6521 29.4826 11.6724C28.5794 11.6534 27.6821 11.821 26.847 12.1646C26.012 12.5083 25.2573 13.0206 24.6305 13.6693C23.9797 14.3062 23.4675 15.07 23.126 15.913C22.7845 16.7561 22.6209 17.6603 22.6455 18.5692V18.5428Z" fill="white"/>
<path d="M71.3787 18.5428C71.3661 17.298 71.6128 16.0641 72.1033 14.9193C72.5938 13.7745 73.3174 12.7437 74.2283 11.8923C75.1179 10.9939 76.1807 10.2844 77.3528 9.80666C78.5248 9.3289 79.7817 9.09276 81.0477 9.11247C82.3053 9.09548 83.5529 9.33574 84.7137 9.8184C85.8745 10.3011 86.9237 11.0159 87.7966 11.9187C88.7051 12.7891 89.4245 13.8363 89.9102 14.9955C90.3958 16.1547 90.6373 17.4011 90.6197 18.6572C90.641 19.9108 90.4003 21.155 89.9127 22.3107C89.4251 23.4663 88.7014 24.508 87.7878 25.3693C86.0307 27.0813 83.688 28.0651 81.232 28.1222C78.7761 28.1793 76.3899 27.3056 74.5547 25.6772C73.5226 24.8017 72.7013 23.7058 72.1515 22.4709C71.6017 21.2359 71.3376 19.8934 71.3787 18.5428ZM74.1753 18.5428C74.1305 19.9111 74.5008 21.261 75.2379 22.416C75.975 23.571 77.0445 24.4772 78.3065 25.0161C79.5686 25.555 80.9644 25.7016 82.3113 25.4366C83.6582 25.1715 84.8936 24.5073 85.8558 23.5307C86.504 22.8879 87.0149 22.1207 87.3576 21.2755C87.7002 20.4303 87.8676 19.5247 87.8495 18.6132C87.8685 17.7029 87.7015 16.7984 87.3587 15.9545C87.0159 15.1106 86.5046 14.3451 85.8558 13.7045C85.2336 13.0546 84.4823 12.5412 83.6498 12.1974C82.8173 11.8535 81.9221 11.6867 81.0213 11.7076C80.1151 11.6861 79.2144 11.8525 78.3761 12.1963C77.5379 12.54 76.7803 13.0536 76.1515 13.7045C75.5078 14.3385 75.0012 15.0972 74.6629 15.9338C74.3245 16.7705 74.1616 17.6674 74.1841 18.5692L74.1753 18.5428Z" fill="white"/>
<path d="M107.531 22.2039L95.2776 9.41309H94.1131V27.7988H96.892V14.9552L109.234 27.7988H110.31V9.44827H107.531V22.2039Z" fill="white"/>
<path d="M13.4184 22.2029L1.1998 9.44727H0V27.7978H2.77895V14.9542L15.121 27.7978H16.1973V9.44727H13.4184V22.2029Z" fill="white"/>
<path d="M48.2126 28.0187L55.9849 9.44824H52.9501L47.7892 22.1687L42.6989 9.44824H39.6641L47.2599 28.0187H48.2126Z" fill="white"/>
<path d="M61.1272 9.41309L53.5138 28.0187H56.5574L61.6389 15.3071L66.7998 28.0187H69.8434L62.0536 9.41309H61.1272Z" fill="white"/>
<path d="M61.1106 37.7386L60.396 39.8939H59.5138L61.8516 33.041H62.9191L65.2658 39.8939H64.2777L63.5455 37.7386H61.1106ZM63.3602 37.0436L62.6897 35.0731C62.5398 34.6245 62.4339 34.1934 62.3369 33.8239C62.231 34.2286 62.1251 34.6509 61.9928 35.0643L61.3223 37.0436H63.3602Z" fill="white"/>
<path d="M68.3531 33.041V37.0964C68.3531 38.6271 69.0324 39.2781 69.9499 39.2781C70.8674 39.2781 71.6173 38.6095 71.6173 37.0964V33.041H72.4995V37.0348C72.4995 39.1373 71.3879 39.9994 69.897 39.9994C68.406 39.9994 67.4356 39.1989 67.4356 37.07V33.041H68.3531Z" fill="white"/>
<path d="M76.8933 33.7888H74.8024V33.041H79.8839V33.7888H77.7843V39.8851H76.9021L76.8933 33.7888Z" fill="white"/>
<path d="M87.7708 36.3928C87.7708 38.7504 86.3328 39.9996 84.5772 39.9996C82.8216 39.9996 81.4894 38.6009 81.4894 36.4808C81.4894 34.3607 82.848 32.8828 84.683 32.8828C86.518 32.8828 87.7708 34.3607 87.7708 36.3928ZM82.4775 36.5072C82.4775 37.9675 83.2715 39.2782 84.6654 39.2782C86.0593 39.2782 86.8709 37.9851 86.8709 36.4368C86.8709 35.0733 86.1563 33.6569 84.683 33.6569C83.2097 33.6569 82.4422 35.0029 82.4422 36.5072H82.4775Z" fill="white"/>
<path d="M91.4143 37.7386L90.6997 39.8939H89.8175L92.1465 33.041H93.214L95.5607 39.8851H94.6167L93.8845 37.7298L91.4143 37.7386ZM93.6639 37.0436L92.9934 35.0731C92.8435 34.6245 92.7376 34.1934 92.6406 33.8239C92.5347 34.2286 92.4288 34.6509 92.2965 35.0643L91.626 37.0436H93.6639Z" fill="white"/>
<path d="M98.066 33.1295C98.691 33.0361 99.322 32.989 99.954 32.9887C100.959 32.9163 101.954 33.2312 102.733 33.8684C103.064 34.1846 103.322 34.5685 103.489 34.9938C103.657 35.419 103.73 35.8755 103.703 36.3316C103.724 36.815 103.647 37.2975 103.477 37.7508C103.307 38.204 103.048 38.6188 102.715 38.9707C101.871 39.6812 100.782 40.0348 99.6805 39.9559C99.1413 39.9599 98.6023 39.9335 98.066 39.8768V33.1295ZM98.9482 39.1818C99.2405 39.2224 99.5355 39.2401 99.8305 39.2346C100.224 39.279 100.623 39.2346 100.998 39.1047C101.372 38.9748 101.712 38.7626 101.994 38.484C102.275 38.2053 102.489 37.8672 102.622 37.4947C102.755 37.1221 102.802 36.7246 102.759 36.3316C102.759 34.7129 101.877 33.6925 99.9804 33.6925C99.6313 33.6858 99.2824 33.7153 98.9394 33.7805L98.9482 39.1818Z" fill="white"/>
<path d="M106.253 38.8111C106.733 39.0992 107.281 39.2541 107.841 39.2598C108.723 39.2598 109.279 38.7847 109.279 38.0898C109.279 37.3948 108.908 37.0869 107.982 36.7262C106.862 36.3304 106.165 35.7498 106.165 34.7821C106.178 34.511 106.248 34.2456 106.369 34.0025C106.491 33.7595 106.661 33.5441 106.87 33.3698C107.078 33.1956 107.321 33.0662 107.582 32.9898C107.844 32.9134 108.118 32.8917 108.388 32.9259C108.914 32.9081 109.436 33.0231 109.905 33.2602L109.658 33.9816C109.257 33.7663 108.808 33.6544 108.353 33.6561C107.417 33.6561 107.056 34.2191 107.056 34.6853C107.056 35.3275 107.47 35.6442 108.423 36.0049C109.588 36.4535 110.188 37.0077 110.188 38.0194C110.188 39.031 109.402 39.9899 107.779 39.9899C107.163 39.9995 106.554 39.8479 106.015 39.5501L106.253 38.8111Z" fill="white"/>
<path d="M55.9848 39.1992H0V39.9734H55.9848V39.1992Z" fill="white"/>
</svg>
