<svg xmlns="http://www.w3.org/2000/svg" xmlns:xlink="http://www.w3.org/1999/xlink" viewBox="0 0 623.955 561.77">
  <defs>
    <style>
      .cls-1 {
        fill: #ffde9c;
      }

      .cls-2, .cls-4 {
        fill: #e178a6;
      }

      .cls-2 {
        opacity: 0.76;
      }

      .cls-3 {
        fill: #eebad1;
      }

      .cls-5 {
        fill: #fef8fb;
      }

      .cls-10, .cls-11, .cls-18, .cls-6, .cls-9 {
        fill: none;
      }

      .cls-20, .cls-6 {
        stroke: #e178a6;
      }

      .cls-10, .cls-11, .cls-18, .cls-19, .cls-20, .cls-6, .cls-9 {
        stroke-miterlimit: 10;
      }

      .cls-6 {
        opacity: 0.43;
      }

      .cls-7 {
        fill: #d74a88;
      }

      .cls-20, .cls-8 {
        fill: #fef3f7;
      }

      .cls-9 {
        stroke: #e8e8e8;
      }

      .cls-10, .cls-18, .cls-9 {
        stroke-linecap: round;
        stroke-linejoin: round;
        stroke-width: 2px;
      }

      .cls-10, .cls-11, .cls-18 {
        stroke: #febd12;
      }

      .cls-10, .cls-11 {
        opacity: 0.18;
      }

      .cls-11 {
        stroke-width: 3px;
      }

      .cls-12 {
        fill: #db6197;
        opacity: 0.75;
      }

      .cls-13 {
        fill: #ce1d6b;
      }

      .cls-14 {
        fill: #911b4e;
      }

      .cls-15, .cls-16, .cls-17 {
        fill: #febd12;
      }

      .cls-15 {
        opacity: 0.23;
      }

      .cls-16 {
        opacity: 0.57;
      }

      .cls-19 {
        fill: #5e80c0;
        stroke: #fff;
      }

      .cls-21 {
        fill: #fff;
      }

      .cls-22 {
        fill: url(#linear-gradient);
      }

      .cls-23 {
        fill: url(#linear-gradient-2);
      }

      .cls-24 {
        fill: url(#linear-gradient-3);
      }

      .cls-25 {
        fill: url(#linear-gradient-4);
      }

      .cls-26 {
        fill: #f05452;
      }

      .cls-27 {
        fill: #493646;
      }

      .cls-28 {
        fill: #3f3e78;
      }

      .cls-29 {
        fill: url(#linear-gradient-5);
      }

      .cls-30 {
        fill: url(#linear-gradient-6);
      }

      .cls-31 {
        fill: url(#linear-gradient-7);
      }

      .cls-32 {
        fill: #f3ad1c;
      }

      .cls-33 {
        fill: url(#linear-gradient-8);
      }

      .cls-34 {
        fill: url(#linear-gradient-9);
      }

      .cls-35 {
        fill: url(#linear-gradient-10);
      }

      .cls-36 {
        fill: url(#linear-gradient-11);
      }
    </style>
    <linearGradient id="linear-gradient" x1="0.002" y1="17.962" x2="0.995" y2="17.962" gradientUnits="objectBoundingBox">
      <stop offset="0.224" stop-color="#69c9cd" stop-opacity="0.898"/>
      <stop offset="0.436" stop-color="#66c3c7" stop-opacity="0.875"/>
      <stop offset="0.671" stop-color="#5bb7ba" stop-opacity="0.843"/>
      <stop offset="0.917" stop-color="#47a5a6" stop-opacity="0.812"/>
      <stop offset="1" stop-color="#3d9e9e" stop-opacity="0.8"/>
    </linearGradient>
    <linearGradient id="linear-gradient-2" x1="-0.015" y1="28.641" x2="0.988" y2="28.641" xlink:href="#linear-gradient"/>
    <linearGradient id="linear-gradient-3" x1="0.002" y1="14.433" x2="0.995" y2="14.433" xlink:href="#linear-gradient"/>
    <linearGradient id="linear-gradient-4" x1="-0.015" y1="22.935" x2="0.988" y2="22.935" xlink:href="#linear-gradient"/>
    <linearGradient id="linear-gradient-5" x1="0" y1="-0.054" x2="1" y2="-0.054" xlink:href="#linear-gradient"/>
    <linearGradient id="linear-gradient-6" y1="0.087" x2="1" y2="0.087" gradientUnits="objectBoundingBox">
      <stop offset="0.046" stop-color="#b5dae0" stop-opacity="0.8"/>
      <stop offset="0.877" stop-color="#b5dae0" stop-opacity="0.973"/>
      <stop offset="1" stop-color="#b5dae0"/>
    </linearGradient>
    <linearGradient id="linear-gradient-7" y1="0.513" x2="1" y2="0.513" gradientUnits="objectBoundingBox">
      <stop offset="0.116" stop-color="#f58665" stop-opacity="0.8"/>
      <stop offset="0.416" stop-color="#f58465" stop-opacity="0.8"/>
      <stop offset="0.612" stop-color="#f47e62" stop-opacity="0.8"/>
      <stop offset="0.777" stop-color="#f3725d" stop-opacity="0.8"/>
      <stop offset="0.925" stop-color="#f16156" stop-opacity="0.8"/>
      <stop offset="1" stop-color="#f05452" stop-opacity="0.8"/>
    </linearGradient>
    <linearGradient id="linear-gradient-8" y1="0.822" x2="1" y2="0.822" gradientUnits="objectBoundingBox">
      <stop offset="0.116" stop-color="#f6db0c" stop-opacity="0.8"/>
      <stop offset="1" stop-color="#f5ad1c" stop-opacity="0.8"/>
    </linearGradient>
    <linearGradient id="linear-gradient-9" x1="0.001" y1="-2.151" x2="1.001" y2="-2.151" xlink:href="#linear-gradient-8"/>
    <linearGradient id="linear-gradient-10" x1="0" y1="-5.09" x2="1" y2="-5.09" xlink:href="#linear-gradient-8"/>
    <linearGradient id="linear-gradient-11" x1="-0.002" y1="-3.941" x2="1" y2="-3.941" xlink:href="#linear-gradient-8"/>
  </defs>
  <g id="_1" data-name="1" transform="translate(-108.972 -16.8)">
    <path id="Path_1696" data-name="Path 1696" class="cls-1" d="M424.7,211.4s4.9-4.7,5-8.9l-4.5-1.1-2.6,5.7Z"/>
    <path id="Path_1697" data-name="Path 1697" class="cls-2" d="M118.7,293.1,437.3,102.2a20.06,20.06,0,0,1,24,2.5L726.6,353a20.049,20.049,0,0,1-3.4,31.8L404.6,575.7a20.06,20.06,0,0,1-24-2.5L115.3,324.9a20.043,20.043,0,0,1,3.4-31.8Z"/>
    <path id="Path_1698" data-name="Path 1698" class="cls-3" d="M397,514.3l-1.5,11.1a28.8,28.8,0,0,1-1,3.1s-2.1-1.7-2.7-2.2l-227-206.1a1.423,1.423,0,0,1-.5-1.6l2.7-15c.3-1.4,1.2,1.9,2.2,2.9L396.1,512.6a1.965,1.965,0,0,1,.9,1.7Z"/>
    <path id="Path_1699" data-name="Path 1699" class="cls-4" d="M397.2,513.2l-2.7,15.3L673.7,365.4l2.7-15.3Z"/>
    <path id="Path_1700" data-name="Path 1700" class="cls-5" d="M673.6,355.4,400.7,514.5a5.3,5.3,0,0,1-6.3-.7L168.6,308.3a5.27,5.27,0,0,1,.9-8.5l272.9-159a5.3,5.3,0,0,1,6.3.7L674.6,347A5.237,5.237,0,0,1,673.6,355.4Z"/>
    <path id="Path_1701" data-name="Path 1701" class="cls-4" d="M414,184,241.2,287.6c-4,2.4-7.2,1.1-7.2-2.9V139.4c0-4,3.2-9.1,7.2-11.5L414,24.3c4-2.4,7.2-1.1,7.2,2.9V172.5c0,3.9-3.2,9.1-7.2,11.5Z"/>
    <path id="Path_1702" data-name="Path 1702" class="cls-6" d="M407.7,179.2,234.9,282.8c-4,2.4-7.2,1.1-7.2-2.9V134.6c0-4,3.2-9.1,7.2-11.5L407.7,19.4c4-2.4,7.2-1.1,7.2,2.9V167.6c0,4-3.3,9.2-7.2,11.6Z"/>
    <path id="Path_1703" data-name="Path 1703" class="cls-7" d="M241.8,292.5l-5.7-4.1s-2.1-.5-2.1-4.7V139.3a11.971,11.971,0,0,1,2.4-6.8l7.4,4.9,18.6,84.4-14.2,62.7Z"/>
    <path id="Path_1704" data-name="Path 1704" class="cls-4" d="M419.7,23.6l5.4,4-1.6,6-9.3-.9Z"/>
    <path id="Path_1705" data-name="Path 1705" class="cls-8" d="M419.5,188.1,246.7,291.7c-4,2.4-7.2,1.1-7.2-2.9V143.5c0-4,3.2-9.1,7.2-11.5L419.5,28.4c4-2.4,7.2-1.1,7.2,2.9V176.6c0,3.9-3.2,9.1-7.2,11.5Z"/>
    <path id="Path_1706" data-name="Path 1706" class="cls-9" d="M446.4,115.7l26.9-45.8,76.9-16.8,43,72.6,72.2-13.1,23.4,89.9"/>
    <path id="Path_1707" data-name="Path 1707" class="cls-10" d="M449,33.9,644.8,213.2"/>
    <path id="Path_1708" data-name="Path 1708" class="cls-10" d="M449,88.2,644.8,267.5"/>
    <path id="Path_1709" data-name="Path 1709" class="cls-10" d="M449,147.3,644.8,326.6"/>
    <path id="Path_1710" data-name="Path 1710" class="cls-11" d="M437.3,16.8v182L633.1,378.1"/>
    <path id="Path_1711" data-name="Path 1711" class="cls-3" d="M475.1,220l-27.8-24.9V149.6l27.8,24.9Z"/>
    <path id="Path_1712" data-name="Path 1712" class="cls-12" d="M475.1,185.6l-27.8-24.9,36.5-17.4,27.8,24.9Z"/>
    <path id="Path_1713" data-name="Path 1713" class="cls-12" d="M475.1,174.6l-27.8-24.9,36.5-17.4,27.8,24.9Z"/>
    <path id="Path_1714" data-name="Path 1714" class="cls-4" d="M475.1,174.5l36.4-17.4v45.5L475.1,220"/>
    <path id="Path_1715" data-name="Path 1715" class="cls-13" d="M475.1,185.7l-27.8-24.9V149.6l27.8,24.9Z"/>
    <path id="Path_1716" data-name="Path 1716" class="cls-14" d="M475.1,174.5l36.4-17.4v11.2l-36.4,17.4"/>
    <path id="Path_1717" data-name="Path 1717" class="cls-13" d="M478.1,115.6l-2.6-2.4v-1.5c1.6,1.4,2.7,1.6,2.9.6l2,1.9V125l-2.3-2.1Z"/>
    <path id="Path_1718" data-name="Path 1718" class="cls-13" d="M483.4,118.5c.7-.4,1.9-.1,3.6,1.5a16.486,16.486,0,0,1,3.6,5.1,11.356,11.356,0,0,1,1,4.7c0,1.3-.2,2.5-1,3-.7.4-1.9.1-3.6-1.4a15.4,15.4,0,0,1-3.6-5.1,11.356,11.356,0,0,1-1-4.7C482.4,120.1,482.6,119,483.4,118.5Zm1.9,8.4a6.71,6.71,0,0,0,1.6,2.4c.8.8,1.3.8,1.6.6.4-.3.6-1,.6-2.2a7.2,7.2,0,0,0-.6-3.3,6.71,6.71,0,0,0-1.6-2.4c-.8-.8-1.3-.8-1.6-.6-.4.3-.5,1.1-.5,2.2A9.123,9.123,0,0,0,485.3,126.9Z"/>
    <path id="Path_1719" data-name="Path 1719" class="cls-13" d="M495.3,127.8a8.748,8.748,0,0,1,2.7,5.3c0,1.5-1.3,1.5-2.7.1a8.748,8.748,0,0,1-2.7-5.3C492.5,126.4,493.8,126.4,495.3,127.8Zm6.5,6.2,1.9,1.8-7.6,3.8-1.9-1.8Zm-6.5-2.3c.6.6,1.1.5,1.1-.1a3.339,3.339,0,0,0-1.1-2.1c-.6-.5-1.1-.5-1.1.1A3.108,3.108,0,0,0,495.3,131.7Zm7.2,8.5a8.748,8.748,0,0,1,2.7,5.3c0,1.5-1.3,1.5-2.7.1a8.748,8.748,0,0,1-2.7-5.3C499.8,138.8,501,138.8,502.5,140.2Zm0,3.9c.6.6,1.1.5,1.1-.1a3.339,3.339,0,0,0-1.1-2.1c-.6-.5-1.1-.5-1.1.1A3.6,3.6,0,0,0,502.5,144.1Z"/>
    <path id="Path_1720" data-name="Path 1720" class="cls-3" d="M517.2,259.7l-27.7-25v-128l27.7,24.9Z"/>
    <path id="Path_1721" data-name="Path 1721" class="cls-12" d="M517.2,142.8l-27.7-25L526,100.4l27.7,24.9Z"/>
    <path id="Path_1722" data-name="Path 1722" class="cls-12" d="M517.2,131.8l-27.7-25L526,89.3l27.7,24.9Z"/>
    <path id="Path_1723" data-name="Path 1723" class="cls-4" d="M517.2,131.6l36.4-17.4v128l-36.4,17.3"/>
    <path id="Path_1724" data-name="Path 1724" class="cls-13" d="M517.2,142.9l-27.7-25V106.7l27.7,24.9Z"/>
    <path id="Path_1725" data-name="Path 1725" class="cls-14" d="M517.2,131.6l36.4-17.4v11.3l-36.4,17.3"/>
    <path id="Path_1726" data-name="Path 1726" class="cls-3" d="M565.1,303.2l-27.8-24.9V170.9l27.8,24.9Z"/>
    <path id="Path_1727" data-name="Path 1727" class="cls-12" d="M565.1,206.8l-27.8-24.9,36.5-17.4,27.8,24.9Z"/>
    <path id="Path_1728" data-name="Path 1728" class="cls-12" d="M565.1,195.9,537.3,171l36.5-17.4,27.8,24.9Z"/>
    <path id="Path_1729" data-name="Path 1729" class="cls-4" d="M565.1,195.8l36.4-17.4V285.8l-36.4,17.4"/>
    <path id="Path_1730" data-name="Path 1730" class="cls-13" d="M565.1,207l-27.8-25V170.8l27.8,24.9Z"/>
    <path id="Path_1731" data-name="Path 1731" class="cls-14" d="M565.1,195.8l36.4-17.4v11.2L565.1,207"/>
    <path id="Path_1732" data-name="Path 1732" class="cls-13" d="M536.3,86.8c1,1,1.9,1,1.9-.1a5.577,5.577,0,0,0-1.9-3.6c-.8-.7-1.3-.9-1.6-.8-.2-.3-1.9-2.3-2.1-2.7l1.3-4.3,6.1,5.6v2l-4.5-4.2-.5,1.9a3.816,3.816,0,0,1,1.9,1.1c2.1,2,3.7,4.7,3.7,7,0,2-1.5,2.3-4.1-.1-2.3-2.2-4-5.3-4.1-7.1l2.1,1.5a4.717,4.717,0,0,0,1.8,3.8Z"/>
    <path id="Path_1733" data-name="Path 1733" class="cls-13" d="M542.5,85.1c.7-.4,1.9-.1,3.6,1.5a16.486,16.486,0,0,1,3.6,5.1,11.356,11.356,0,0,1,1,4.7c0,1.3-.2,2.5-1,3-.7.4-1.9.1-3.6-1.4a15.4,15.4,0,0,1-3.6-5.1,11.356,11.356,0,0,1-1-4.7C541.5,86.9,541.7,85.5,542.5,85.1Zm1.9,8.3a6.71,6.71,0,0,0,1.6,2.4c.8.8,1.3.8,1.6.6.4-.3.6-1,.6-2.2a7.451,7.451,0,0,0-.6-3.3,6.71,6.71,0,0,0-1.6-2.4c-.8-.8-1.3-.8-1.6-.6-.4.3-.5,1.1-.5,2.2A7.6,7.6,0,0,0,544.4,93.4Z"/>
    <path id="Path_1734" data-name="Path 1734" class="cls-13" d="M554.3,94.3a8.748,8.748,0,0,1,2.7,5.3c0,1.5-1.3,1.5-2.7.1a8.748,8.748,0,0,1-2.7-5.3C551.6,93,552.8,92.9,554.3,94.3Zm6.5,6.1,1.9,1.8-7.6,3.8-1.9-1.8Zm-6.5-2.2c.6.6,1.1.5,1.1-.1a3.339,3.339,0,0,0-1.1-2.1c-.6-.5-1.1-.5-1.1.1A3.6,3.6,0,0,0,554.3,98.2Zm7.3,8.5a8.748,8.748,0,0,1,2.7,5.3c0,1.5-1.3,1.5-2.7.1a8.748,8.748,0,0,1-2.7-5.3C558.9,105.4,560.1,105.3,561.6,106.7Zm0,3.9c.6.6,1.1.5,1.1-.1a3.115,3.115,0,0,0-1.1-2.1c-.6-.5-1.1-.5-1.1.1A3.339,3.339,0,0,0,561.6,110.6Z"/>
    <path id="Path_1735" data-name="Path 1735" class="cls-13" d="M579.9,141.7c0-1.9,1.4-2.3,3.9.1,2.4,2.2,3.9,5.2,3.9,7.1,0,1.4-.8,1.8-2.1,1.4l-2.1-.7a1.1,1.1,0,0,0-1,.1l5.2,4.8v2l-8-7.4c0-1.9.6-2.9,2.5-2.3l1.8.5c.9.3,1.3.1,1.3-.7a4.465,4.465,0,0,0-1.6-3c-1.2-1-1.7-.8-1.7.2a1.953,1.953,0,0,0,.1.7l-2.2-2.1c.1,0,0-.4,0-.7Z"/>
    <path id="Path_1736" data-name="Path 1736" class="cls-13" d="M589.9,149.2c.7-.4,1.9-.1,3.6,1.5a18.36,18.36,0,0,1,3.6,5.1,11.356,11.356,0,0,1,1,4.7c0,1.3-.2,2.5-1,3-.7.4-1.9.1-3.6-1.4a18.36,18.36,0,0,1-3.6-5.1,11.356,11.356,0,0,1-1-4.7C588.9,151,589.2,149.7,589.9,149.2Zm1.9,8.4a6.71,6.71,0,0,0,1.6,2.4c.8.8,1.3.8,1.6.6.4-.3.6-1,.6-2.2a7.2,7.2,0,0,0-.6-3.3,6.71,6.71,0,0,0-1.6-2.4c-.8-.8-1.3-.8-1.6-.6-.4.3-.5,1.1-.5,2.2A8.8,8.8,0,0,0,591.8,157.6Z"/>
    <path id="Path_1737" data-name="Path 1737" class="cls-13" d="M601.9,158.5a8.748,8.748,0,0,1,2.7,5.3c0,1.5-1.3,1.5-2.7.1a8.748,8.748,0,0,1-2.7-5.3C599.1,157.1,600.4,157.1,601.9,158.5Zm6.4,6.2,1.9,1.8-7.6,3.8-1.9-1.8Zm-6.4-2.3c.6.6,1.1.5,1.1-.1a3.339,3.339,0,0,0-1.1-2.1c-.6-.5-1.1-.5-1.1.1A3.339,3.339,0,0,0,601.9,162.4Zm7.2,8.5a8.748,8.748,0,0,1,2.7,5.3c0,1.5-1.3,1.5-2.7.1a8.748,8.748,0,0,1-2.7-5.3C606.3,169.5,607.6,169.5,609.1,170.9Zm0,3.9c.6.6,1.1.5,1.1-.1a3.339,3.339,0,0,0-1.1-2.1c-.6-.5-1.1-.5-1.1.1A3.6,3.6,0,0,0,609.1,174.8Z"/>
    <g id="Group_1838" data-name="Group 1838">
      <circle id="Ellipse_167" data-name="Ellipse 167" class="cls-15" cx="9.2" cy="9.2" r="9.2" transform="translate(462 58.7)"/>
      <circle id="Ellipse_168" data-name="Ellipse 168" class="cls-16" cx="6.3" cy="6.3" r="6.3" transform="translate(464.9 61.6)"/>
      <circle id="Ellipse_169" data-name="Ellipse 169" class="cls-17" cx="3.4" cy="3.4" r="3.4" transform="translate(467.7 64.5)"/>
      <circle id="Ellipse_170" data-name="Ellipse 170" class="cls-15" cx="9.2" cy="9.2" r="9.2" transform="translate(538.6 41.2)"/>
      <circle id="Ellipse_171" data-name="Ellipse 171" class="cls-16" cx="6.3" cy="6.3" r="6.3" transform="translate(541.5 44.1)"/>
      <circle id="Ellipse_172" data-name="Ellipse 172" class="cls-15" cx="9.2" cy="9.2" r="9.2" transform="translate(581.7 113.7)"/>
      <circle id="Ellipse_173" data-name="Ellipse 173" class="cls-16" cx="6.3" cy="6.3" r="6.3" transform="translate(584.6 116.6)"/>
      <circle id="Ellipse_174" data-name="Ellipse 174" class="cls-17" cx="3.4" cy="3.4" r="3.4" transform="translate(587.5 119.6)"/>
      <circle id="Ellipse_175" data-name="Ellipse 175" class="cls-15" cx="9.2" cy="9.2" r="9.2" transform="translate(653.4 100.7)"/>
      <circle id="Ellipse_176" data-name="Ellipse 176" class="cls-16" cx="6.3" cy="6.3" r="6.3" transform="translate(656.3 103.6)"/>
      <circle id="Ellipse_177" data-name="Ellipse 177" class="cls-17" cx="3.4" cy="3.4" r="3.4" transform="translate(659.1 106.3)"/>
    </g>
    <path id="Path_1738" data-name="Path 1738" class="cls-18" d="M444.1,112.9,471,67.2l76.8-16.8L590.9,123,663,109.9l23.4,89.9"/>
    <circle id="Ellipse_178" data-name="Ellipse 178" class="cls-17" cx="3.4" cy="3.4" r="3.4" transform="translate(544.4 47)"/>
    <path id="Path_1739" data-name="Path 1739" class="cls-19" d="M264.7,152,418.6,57.5"/>
    <path id="Path_1740" data-name="Path 1740" class="cls-19" d="M264.7,180.3,418.6,85.8"/>
    <path id="Path_1741" data-name="Path 1741" class="cls-19" d="M264.7,208.7l153.9-94.5"/>
    <path id="Path_1742" data-name="Path 1742" class="cls-19" d="M264.7,237.1l153.9-94.5"/>
    <path id="Path_1743" data-name="Path 1743" class="cls-19" d="M264.7,265.5,418.6,171"/>
    <path id="Path_1744" data-name="Path 1744" class="cls-4" d="M257.4,251.6l-62.6,37c-2.7,1.6-5,.8-5-2V184.8c0-2.7,2.3-6.4,5-8l62.6-37c2.7-1.6,5-.8,5,2V243.7C262.5,246.3,260.2,250,257.4,251.6Z"/>
    <path id="Path_1745" data-name="Path 1745" class="cls-7" d="M190.9,289.4l5.8,1.8L206,184.7l-11.7-1.9-3.4-1.9s-1.2,1.5-1.2,5.2V286.7a3.752,3.752,0,0,0,1.2,2.7Z"/>
    <path id="Path_1746" data-name="Path 1746" class="cls-4" d="M260.4,138.9l5.8,1.2-1.9,5.3-5.3-2.2Z"/>
    <path id="Path_1747" data-name="Path 1747" class="cls-20" d="M262.6,253,200,290c-2.7,1.6-5,.8-5-2V186.2c0-2.7,2.3-6.4,5-8l62.6-37c2.7-1.6,5-.8,5,2V245C267.6,247.7,265.3,251.4,262.6,253Z"/>
    <path id="Path_1748" data-name="Path 1748" class="cls-13" d="M257.6,175.2l-12.7,7.7c-3.4,2.1-6.2,1-6.2-2.5,0-3.4,2.7-7.8,6.2-9.9l12.7-7.7c3.4-2.1,6.2-1,6.2,2.5C263.8,168.7,261,173.2,257.6,175.2Z"/>
    <path id="Path_1749" data-name="Path 1749" class="cls-13" d="M257.6,206.8l-12.7,7.7c-3.4,2.1-6.2,1-6.2-2.5,0-3.4,2.7-7.8,6.2-9.9l12.7-7.7c3.4-2.1,6.2-1,6.2,2.5C263.8,200.3,261,204.8,257.6,206.8Z"/>
    <path id="Path_1750" data-name="Path 1750" class="cls-13" d="M257.6,234.5l-12.7,7.7c-3.4,2.1-6.2,1-6.2-2.5,0-3.4,2.7-7.8,6.2-9.9l12.7-7.7c3.4-2.1,6.2-1,6.2,2.5C263.8,228,261,232.5,257.6,234.5Z"/>
    <ellipse id="Ellipse_179" data-name="Ellipse 179" class="cls-21" cx="6" cy="3.3" rx="6" ry="3.3" transform="matrix(0.596, -0.803, 0.803, 0.596, 251.065, 172.067)"/>
    <ellipse id="Ellipse_180" data-name="Ellipse 180" class="cls-21" cx="6" cy="3.3" rx="6" ry="3.3" transform="matrix(0.596, -0.803, 0.803, 0.596, 251.066, 203.667)"/>
    <ellipse id="Ellipse_181" data-name="Ellipse 181" class="cls-21" cx="6" cy="3.3" rx="6" ry="3.3" transform="matrix(0.596, -0.803, 0.803, 0.596, 251.065, 231.349)"/>
    <path id="Path_1751" data-name="Path 1751" class="cls-21" d="M231.9,183.6l-30.5,17.2c-.6.3-1.1.1-1.1-.5a2.173,2.173,0,0,1,1.1-1.7l30.5-17.2c.6-.3,1.1-.1,1.1.5A2.454,2.454,0,0,1,231.9,183.6Z"/>
    <path id="Path_1752" data-name="Path 1752" class="cls-21" d="M231.9,214.3l-30.5,17.2c-.6.3-1.1.1-1.1-.5a2.173,2.173,0,0,1,1.1-1.7l30.5-17.2c.6-.3,1.1-.1,1.1.5A2.682,2.682,0,0,1,231.9,214.3Z"/>
    <path id="Path_1753" data-name="Path 1753" class="cls-21" d="M231.9,243.6l-30.5,17.2c-.6.3-1.1.1-1.1-.5a2.174,2.174,0,0,1,1.1-1.7l30.5-17.2c.6-.3,1.1-.1,1.1.5A2.454,2.454,0,0,1,231.9,243.6Z"/>
    <path id="Path_1754" data-name="Path 1754" class="cls-22" d="M319.1,163.2a7.415,7.415,0,0,1-8.2-7.4,9.23,9.23,0,0,1,8.2-8.9,7.415,7.415,0,0,1,8.2,7.4A9.16,9.16,0,0,1,319.1,163.2Zm0-14.4a7.025,7.025,0,0,0-6.3,6.9,5.754,5.754,0,0,0,6.3,5.8,7.025,7.025,0,0,0,6.3-6.9A5.7,5.7,0,0,0,319.1,148.8Z"/>
    <path id="Path_1755" data-name="Path 1755" class="cls-23" d="M319.1,160.6a.749.749,0,0,1-.5-.1l-4.5-3a.932.932,0,0,1-.2-1.3,1.091,1.091,0,0,1,1.3-.3l3.6,2.3,3.3-7.1a.842.842,0,0,1,1.2-.5.785.785,0,0,1,.4,1.2l-3.8,8.2a.634.634,0,0,1-.6.5c-.1,0-.2,0-.2.1Z"/>
    <path id="Path_1756" data-name="Path 1756" class="cls-24" d="M319.1,192.1a7.415,7.415,0,0,1-8.2-7.4,9.23,9.23,0,0,1,8.2-8.9,7.415,7.415,0,0,1,8.2,7.4A9.238,9.238,0,0,1,319.1,192.1Zm0-14.4a7.025,7.025,0,0,0-6.3,6.9,5.754,5.754,0,0,0,6.3,5.8,7.025,7.025,0,0,0,6.3-6.9A5.647,5.647,0,0,0,319.1,177.7Z"/>
    <path id="Path_1757" data-name="Path 1757" class="cls-25" d="M319.1,189.5a.749.749,0,0,1-.5-.1l-4.5-3a.932.932,0,0,1-.2-1.3,1.091,1.091,0,0,1,1.3-.3l3.6,2.3,3.3-7.1a.842.842,0,0,1,1.2-.5.785.785,0,0,1,.4,1.2l-3.8,8.2a.634.634,0,0,1-.6.5c-.1,0-.2,0-.2.1Z"/>
    <path id="Path_1758" data-name="Path 1758" class="cls-26" d="M361.6,128.7a6.724,6.724,0,0,0-9.8,2.5,8.756,8.756,0,0,0,2.3,11.1,6.724,6.724,0,0,0,9.8-2.5A8.756,8.756,0,0,0,361.6,128.7Zm-3.5,8.1-1.6,3a.829.829,0,0,1-1.1.3.954.954,0,0,1-.3-1.2l1.6-3-2.6-1.9a.954.954,0,0,1-.3-1.2.829.829,0,0,1,1.1-.3l2.6,1.9,1.6-3a.829.829,0,0,1,1.1-.3.954.954,0,0,1,.3,1.2l-1.6,3,2.6,1.9a.954.954,0,0,1,.3,1.2.829.829,0,0,1-1.1.3Z"/>
    <path id="Path_1759" data-name="Path 1759" class="cls-1" d="M405.6,176.7s-.1,8.7-.3,10.2,1,3,4.1,1.6a15.856,15.856,0,0,1,.2,4.2l10-2.9s-1.2-2.9-.8-4.7c.4-1.9-1.4-10.4-1.4-10.4l-7.2-2Z"/>
    <path id="Path_1760" data-name="Path 1760" class="cls-27" d="M388.5,286s-4.2-4.1-6.6-4.7-3.4,1.1-2.6,3.5,5.8,8.9,7.9,9.8c1.7.8,4,2.1,5.8-3.4l-1.7-3.6Z"/>
    <path id="Path_1761" data-name="Path 1761" class="cls-27" d="M413,290.8s-3.9-2.7-5.8-2.7c-2-.1-2.5,1.4-1.6,3.2,1,1.8,5.8,6.1,7.7,6.6,1.5.4,3.4,1.1,4.1-3.6l-1.9-2.5Z"/>
    <path id="Path_1762" data-name="Path 1762" class="cls-28" d="M398.9,237.3s-7.5,18.4-10.6,50.8c0,0-.6,2.7,4.3,3.4,0,0,11.8-31.6,14.4-34.6,0,0,3.1,24.4,5.8,37.1,0,0,3.1,1.9,4.7-.2,0,0,1.6-45.5,4.7-55.2l-12.8-6.2Z"/>
    <path id="Path_1763" data-name="Path 1763" class="cls-1" d="M386,193.9s-10.2-7.9-12.7-14.6c0,0,3.5-1.6,2.5-4-1-2.5-1.8-3.3-3.1-3.4-1.4-.1-2.3-5-2.3-5s-3-5.4-4.9-3.8-1.9,7-1.4,8.8c.4,1.8,2.4,7.4,3.5,8.1,1.1.8,9.1,15.3,16.3,19.4l2.5-1.2Z"/>
    <path id="Path_1764" data-name="Path 1764" class="cls-27" d="M402,164.7s-2.5,4.2-2.3,7c.3,2.9,1.6,6.8,5.2,6.3s5.9-3,6.5-.7-.5,5.3.3,6.7a4.654,4.654,0,0,0,5,2.1c1.8-.6,4.3-1.2,4.4-5.7s-1.6-11.5-4.3-11.6-11.2.1-12.3-2.2-1.5-2.6-2.5-1.9Z"/>
    <path id="Path_1765" data-name="Path 1765" class="cls-17" d="M405.1,193.2s13.1-4.3,18.2-3c8.1,2.3,6.3,13,6.3,13s-2,1.4-3.2,2.1c0,0-5.8,20.8-2.7,33,0,0-8.4,5-24.7-1,0,0,5.2-23.4,3-25.8-2.3-2.5-15.1-5.8-17.7-9.4,0,0-.5-6.3,3.3-9.4-.1-.1,5.8,5.6,17.5.5Z"/>
    <path id="Path_1766" data-name="Path 1766" class="cls-29" d="M699.6,316.8v-5.3l-1.5-.5c-5.4-14.2-21.8-25.9-43.1-29-28.7-4.2-55.4,8.9-59.6,29.2s15.7,40.2,44.4,44.4a71.2,71.2,0,0,0,10.2.8V351l-.4-.3-2.3-31.9Z"/>
    <path id="Path_1767" data-name="Path 1767" class="cls-30" d="M699.6,311.5c-2.5-16.6-20.5-31.3-44.6-34.8-28.7-4.2-55.4,8.9-59.6,29.2s15.7,40.2,44.4,44.4a71.2,71.2,0,0,0,10.2.8l-2.7-37.6Z"/>
    <path id="Path_1768" data-name="Path 1768" class="cls-26" d="M699.6,299.5c-2.5-16.6-20.5-31.3-44.6-34.8-28.7-4.2-55.4,8.9-59.6,29.2s15.7,40.2,44.4,44.4a71.2,71.2,0,0,0,10.2.8l-2.7-37.6Z"/>
    <path id="Path_1769" data-name="Path 1769" class="cls-26" d="M699.6,299.5v-4.1l-.8-.3-2,.9Z"/>
    <path id="Path_1770" data-name="Path 1770" class="cls-31" d="M699.6,295.5c-2.5-16.6-20.5-31.3-44.6-34.8-28.7-4.2-55.4,8.9-59.6,29.2s15.7,40.2,44.4,44.4a71.2,71.2,0,0,0,10.2.8l-2.7-37.5Z"/>
    <path id="Path_1771" data-name="Path 1771" class="cls-32" d="M699.6,287c-2.5-16.6-20.5-31.3-44.6-34.8-28.7-4.2-55.4,8.9-59.6,29.2s15.7,40.2,44.4,44.4a71.2,71.2,0,0,0,10.2.8L647.3,289Z"/>
    <path id="Path_1772" data-name="Path 1772" class="cls-32" d="M610.2,257.8V261l4.8,1.4,4-3-4.3-2.4Z"/>
    <path id="Path_1773" data-name="Path 1773" class="cls-32" d="M676.6,259.1v-3.2l-2.1.5-1.2,1.6,1.6,1.2h1.7Z"/>
    <path id="Path_1774" data-name="Path 1774" class="cls-33" d="M699.6,283.9c-2.5-16.6-20.5-31.3-44.6-34.8-28.7-4.2-55.4,8.9-59.6,29.2s15.7,40.2,44.4,44.4a71.2,71.2,0,0,0,10.2.8l-2.7-37.6Z"/>
    <path id="Path_1775" data-name="Path 1775" class="cls-3" d="M426,442.1c0-7.8-11.2-14.1-24.9-14.1-13.4,0-24.4,6-24.9,13.5h-.1l.1.5v.1a8.33,8.33,0,0,0,.3,2.2l4.9,39.7c0,6.2,8.9,11.1,19.7,11.1,10.9,0,19.7-5,19.7-11.1l5-39.9a15.034,15.034,0,0,0,.2-2Z"/>
    <ellipse id="Ellipse_182" data-name="Ellipse 182" class="cls-4" cx="17.9" cy="7.5" rx="17.9" ry="7.5" transform="translate(383.2 432.4)"/>
    <path id="Path_1776" data-name="Path 1776" class="cls-34" d="M399.4,440.3s-16.7-8.9-13.9-22.9S397,403.9,401,391.6c4.1-12.3-4.3-13.7-2.6-19.7,1.6-6,13.7-13.5,18.7-6.3s13.3,24,7.6,32.2c-5.6,8.2-22.3,34.4-20.1,39.8,2.3,5.6-5.2,2.7-5.2,2.7Z"/>
    <path id="Path_1777" data-name="Path 1777" class="cls-35" d="M407.5,439.8s4.1-22.1,15.9-24.3c11.9-2.2,3.4-13.3,3.4-13.3s-10.2-11.9-18.1.4c-7.8,12.3-10.6,31-6.7,35,4.1,4,5.5,2.2,5.5,2.2Z"/>
    <path id="Path_1778" data-name="Path 1778" class="cls-36" d="M396.1,441.4s-17-.8-20.2-15.6-6.6-27.5,3-26.9c5.1.3,17.4-27.6,17.7,7.8.1,21,.5,24.4,2.4,26.3,1.8,1.9,2.2,9.5-2.9,8.4Z"/>
  </g>
</svg>
