<svg xmlns="http://www.w3.org/2000/svg" xmlns:xlink="http://www.w3.org/1999/xlink" viewBox="0 0 865.979 597.878">
  <defs>
    <style>
      .cls-1 {
        fill: url(#linear-gradient);
      }

      .cls-2 {
        fill: #6b90c9;
      }

      .cls-3 {
        fill: url(#linear-gradient-2);
      }

      .cls-4 {
        fill: #f6b123;
      }

      .cls-5 {
        fill: #406cb4;
      }

      .cls-6, .cls-7 {
        fill: #b6ceeb;
      }

      .cls-7 {
        opacity: 0.36;
      }

      .cls-8 {
        fill: #fef3f7;
      }

      .cls-9 {
        fill: url(#linear-gradient-3);
      }

      .cls-10 {
        fill: url(#linear-gradient-4);
      }

      .cls-11 {
        fill: #1a3f70;
      }

      .cls-12 {
        fill: url(#linear-gradient-5);
      }

      .cls-13 {
        fill: url(#linear-gradient-6);
      }

      .cls-14 {
        fill: url(#linear-gradient-7);
      }

      .cls-15 {
        fill: #eebad1;
      }

      .cls-16 {
        opacity: 0.11;
        fill: url(#radial-gradient);
      }

      .cls-17 {
        opacity: 0.26;
        fill: url(#radial-gradient-2);
      }

      .cls-18 {
        opacity: 0.54;
        fill: url(#radial-gradient-3);
      }

      .cls-19 {
        fill: #ce1d6b;
      }

      .cls-20 {
        fill: none;
        stroke: #fef3f7;
        stroke-linecap: round;
        stroke-linejoin: round;
        stroke-miterlimit: 10;
        stroke-width: 2px;
      }

      .cls-21 {
        fill: url(#linear-gradient-8);
      }

      .cls-22 {
        fill: url(#linear-gradient-9);
      }

      .cls-23 {
        fill: url(#linear-gradient-10);
      }

      .cls-24 {
        fill: url(#linear-gradient-12);
      }

      .cls-25 {
        fill: #ffde9c;
      }

      .cls-26 {
        fill: #e2bf80;
      }

      .cls-27 {
        fill: #bb8b2d;
      }

      .cls-28 {
        fill: #febd12;
      }

      .cls-29, .cls-31 {
        fill: #493646;
      }

      .cls-30 {
        fill: url(#linear-gradient-13);
      }

      .cls-31 {
        opacity: 0.51;
      }
    </style>
    <linearGradient id="linear-gradient" y1="2.147" x2="1.001" y2="2.147" gradientUnits="objectBoundingBox">
      <stop offset="0.116" stop-color="#f6db0c" stop-opacity="0.8"/>
      <stop offset="1" stop-color="#f5ad1c" stop-opacity="0.8"/>
    </linearGradient>
    <linearGradient id="linear-gradient-2" x1="0" y1="2.204" x2="1" y2="2.204" xlink:href="#linear-gradient"/>
    <linearGradient id="linear-gradient-3" x1="0.002" y1="12.606" x2="1.002" y2="12.606" xlink:href="#linear-gradient"/>
    <linearGradient id="linear-gradient-4" x1="-0.002" y1="20.823" x2="1" y2="20.823" xlink:href="#linear-gradient"/>
    <linearGradient id="linear-gradient-5" x1="-0.001" y1="3.098" x2="0.997" y2="3.098" xlink:href="#linear-gradient"/>
    <linearGradient id="linear-gradient-6" x1="-0.002" y1="4.371" x2="0.999" y2="4.371" xlink:href="#linear-gradient"/>
    <linearGradient id="linear-gradient-7" x1="0.5" y1="2.235" x2="0.5" y2="1.235" gradientUnits="objectBoundingBox">
      <stop offset="0" stop-color="#eebad1" stop-opacity="0"/>
      <stop offset="0.922" stop-color="#eebad1"/>
    </linearGradient>
    <radialGradient id="radial-gradient" cx="97.817" cy="97.881" r="97.817" gradientUnits="userSpaceOnUse">
      <stop offset="0" stop-color="#febd12" stop-opacity="0"/>
      <stop offset="0.19" stop-color="#fdbb18" stop-opacity="0.192"/>
      <stop offset="0.34" stop-color="#f8b327" stop-opacity="0.341"/>
      <stop offset="0.475" stop-color="#f3a638" stop-opacity="0.475"/>
      <stop offset="0.603" stop-color="#ec9549" stop-opacity="0.604"/>
      <stop offset="0.725" stop-color="#e48058" stop-opacity="0.725"/>
      <stop offset="0.842" stop-color="#db6463" stop-opacity="0.843"/>
      <stop offset="0.954" stop-color="#d23b69" stop-opacity="0.953"/>
      <stop offset="1" stop-color="#ce1d6b"/>
    </radialGradient>
    <radialGradient id="radial-gradient-2" cx="65.075" cy="65.139" r="65.075" gradientUnits="userSpaceOnUse">
      <stop offset="0" stop-color="#febd12" stop-opacity="0"/>
      <stop offset="1" stop-color="#ce1d6b"/>
    </radialGradient>
    <radialGradient id="radial-gradient-3" cx="32.333" cy="32.397" r="32.333" xlink:href="#radial-gradient-2"/>
    <linearGradient id="linear-gradient-8" x1="0.5" y1="2.538" x2="0.5" y2="1.538" xlink:href="#linear-gradient-7"/>
    <linearGradient id="linear-gradient-9" x1="0.5" y1="2.774" x2="0.5" y2="1.774" xlink:href="#linear-gradient-7"/>
    <linearGradient id="linear-gradient-10" x1="0.5" y1="3.412" x2="0.5" y2="2.412" xlink:href="#linear-gradient-7"/>
    <linearGradient id="linear-gradient-12" x1="0.5" y1="2.792" x2="0.5" y2="1.792" xlink:href="#linear-gradient-7"/>
    <linearGradient id="linear-gradient-13" x1="0.5" y1="4.019" x2="0.5" y2="3.019" xlink:href="#linear-gradient-7"/>
  </defs>
  <g id="Group_1840" data-name="Group 1840" transform="translate(0 0.047)">
    <path id="Path_1868" data-name="Path 1868" class="cls-1" d="M97.525,330.93s-23.192-24.966-35.061-25.512c-11.869-.409-16.78-25.921-3.683-31.378,13.233-5.457-12.278-43.656,4.093-52.8s26.33-15.962,41.337-12.278S118.261,184,118.261,184l40.927,55.525L143.227,363.672l-32.333,24.147L84.019,353.713Z" transform="translate(18.573 67.039)"/>
    <path id="Path_1869" data-name="Path 1869" class="cls-2" d="M151.364,336.179c-8.049-8.595-15.825-17.6-23.056-27.012-7.367-9.277-14.325-18.963-20.873-28.786-3.274-4.911-6.412-9.959-9.277-15.143s-6-10.232-9-15.143c-3.138-5.048-6.276-9.959-9.686-14.87-3.274-4.911-6.685-9.686-10.368-14.325,8.186,8.595,15.143,18.281,21.828,27.967,3.274,4.911,6.412,9.959,9.55,15.007,3,5.048,6.139,10.1,9.413,15.007,6.412,9.823,13.233,19.509,20.191,29.058s14.052,18.963,21.282,28.24Z" transform="translate(25.17 80.48)"/>
    <path id="Path_1870" data-name="Path 1870" class="cls-3" d="M554.833,354.406s26.6,4.093,30.7-19.782,21.146-6.821,30.7-21.146,0-27.967,20.464-30.7,22.51-23.874,7.5-53.206c0,0-6.821-14.325,8.868-27.967s12.278-38.2.682-42.292-8.868,0-25.921,10.232-27.285-4.093-32.742,6.139-4.093,29.331-19.782,36.835-33.424,16.371-42.974,34.788-2.046,87.994,3.411,98.908S554.833,354.406,554.833,354.406Z" transform="translate(192.23 57.478)"/>
    <path id="Path_1871" data-name="Path 1871" class="cls-4" d="M532.6,279.868a139.669,139.669,0,0,0,20.6-5.593,124.3,124.3,0,0,0,19.372-8.868,86.576,86.576,0,0,0,17.053-12.688,79.678,79.678,0,0,0,6.958-8.049,101.036,101.036,0,0,0,5.457-9.14c6.958-12.551,13.915-25.239,22.237-36.971a115.47,115.47,0,0,1,14.052-16.371A83.19,83.19,0,0,1,655.655,169.5a83.615,83.615,0,0,0-17.19,12.96,113.379,113.379,0,0,0-13.779,16.507c-8.185,11.733-14.87,24.556-21.555,37.244a73.106,73.106,0,0,1-5.457,9.413,67.337,67.337,0,0,1-6.958,8.458,84.917,84.917,0,0,1-17.19,13.233,129.877,129.877,0,0,1-19.645,9.413,135.947,135.947,0,0,1-20.873,6.139Z" transform="translate(193.999 61.757)"/>
    <path id="Path_1872" data-name="Path 1872" class="cls-4" d="M623.282,274.9a85.835,85.835,0,0,0-7.094-12.415c-2.592-3.956-5.593-7.776-9.413-10.368a11.943,11.943,0,0,0-3-1.364,22.634,22.634,0,0,0-3.274-.273,19.473,19.473,0,0,1-7.367-1.774,27.614,27.614,0,0,1-6.276-4.093,32.744,32.744,0,0,1-5.184-5.457l-.273-.409V238.2a147.737,147.737,0,0,1,2.729-17.053,163.237,163.237,0,0,1,4.5-16.507,39.622,39.622,0,0,0,1.364-16.507,49.122,49.122,0,0,0-4.638-16.235,47.8,47.8,0,0,1,6,16.1,46.193,46.193,0,0,1,.682,8.731c-.136,1.5-.136,2.865-.409,4.366a25.017,25.017,0,0,1-.955,4.366c-1.637,5.457-3,10.914-4.093,16.507-1.091,5.457-2.046,11.187-2.592,16.644l-.273-.955a27.134,27.134,0,0,0,4.775,4.911,26.221,26.221,0,0,0,5.73,3.82,18.029,18.029,0,0,0,6.412,1.774,13.041,13.041,0,0,1,3.82.409A14.383,14.383,0,0,1,608,250.344a27.418,27.418,0,0,1,5.321,5.184,36.246,36.246,0,0,1,3.956,6.139,103.963,103.963,0,0,1,6,13.233Z" transform="translate(211.775 62.632)"/>
    <path id="Path_1873" data-name="Path 1873" class="cls-4" d="M555.1,200.7a16.411,16.411,0,0,1,6.276,4.775l1.228,1.637.546.819.546.819,1.091,1.774c.273.546.546,1.228.819,1.774a41.28,41.28,0,0,1,3.138,15.689,76.666,76.666,0,0,1-.273,7.913l-.409,3.956-.682,3.956c-.273,1.364-.409,2.592-.682,3.956l-.955,3.82-.955,3.82a1.826,1.826,0,0,0-.136.682v.546a3.212,3.212,0,0,0,.682,1.364,20.783,20.783,0,0,0,5.184,5.184,52.934,52.934,0,0,0,6.548,4.093,52.11,52.11,0,0,0,6.958,3.138,36.573,36.573,0,0,0,3.684.955c.273,0,.546.136.955.136l.409.136.546.136a10.342,10.342,0,0,1,2.183.819,13.174,13.174,0,0,1,3.138,3c.819,1.091,1.5,2.319,2.183,3.411a55.717,55.717,0,0,1,3,7.367,100.43,100.43,0,0,1,3.411,15.416,118.973,118.973,0,0,0-4.638-15.007,54.352,54.352,0,0,0-3.274-6.958,14.435,14.435,0,0,0-4.775-5.457,6.65,6.65,0,0,0-1.5-.546h-.955c-.409,0-.682-.136-1.091-.136a33.556,33.556,0,0,1-3.956-.955,71.66,71.66,0,0,1-7.5-3,43.764,43.764,0,0,1-6.821-4.229,21.816,21.816,0,0,1-5.866-5.866,10.561,10.561,0,0,1-.955-2.183l-.136-.682v-.682a3.257,3.257,0,0,1,.273-1.228l.955-3.82.955-3.82.819-3.82.818-3.82.546-3.82a74.494,74.494,0,0,0,.546-7.776,43.441,43.441,0,0,0-2.319-15.143C562.74,207.931,559.738,203.292,555.1,200.7Z" transform="translate(202.195 73.122)"/>
    <path id="Path_1874" data-name="Path 1874" class="cls-4" d="M537.873,260.1a100.16,100.16,0,0,1,14.188,2.728,79.979,79.979,0,0,1,13.506,4.911,35.455,35.455,0,0,1,11.6,8.322,19.571,19.571,0,0,1,5.184,13.1,18.9,18.9,0,0,0-5.73-12.551,35.251,35.251,0,0,0-11.733-7.5,79.934,79.934,0,0,0-13.37-4.229,97.833,97.833,0,0,0-13.915-2.046Z" transform="translate(195.821 94.758)"/>
    <path id="Path_1875" data-name="Path 1875" class="cls-5" d="M544.07,420.3s16.371-1.364,25.921-32.06,16.78-29.059,16.78-29.059-9.959-3.138-21.555,20.464c0,0,3.82-24.966,36.835-51.841,0,0-26.6,7.231-37.926,34.788,0,0,6.958-26.739,51.978-59.072,0,0-36.562,7.913-46.112,35.471,0,0,18.827-39.154-.409-56.889,0,0,14.734,28.922-7.913,51.432l-25.648,9.823L529.2,375.142Z" transform="translate(192.761 102.772)"/>
    <path id="Path_1876" data-name="Path 1876" class="cls-2" d="M173.776,323.341c-7.231-4.366-14.461-8.731-21.555-12.96-7.231-4.229-14.461-8.322-21.964-12.278-3.683-1.91-7.5-3.82-11.187-5.593-3.82-1.773-7.64-3.683-11.323-5.73A144.178,144.178,0,0,1,86.6,273c3.547,2.183,7.231,4.229,10.914,6.139s7.5,3.82,11.187,5.73c3.82,1.773,7.5,3.684,11.323,5.321,3.82,1.774,7.64,3.547,11.46,5.593,7.5,3.956,14.734,8.185,21.828,12.824,6.958,4.638,13.915,9.55,20.464,14.734Z" transform="translate(31.544 99.457)"/>
    <path id="Path_1877" data-name="Path 1877" class="cls-2" d="M65.539,267.005s31.923-.819,39.563,8.322c0,0-23.329-7.776-39.29-.955s-24.829.682-27.012-1.5a21.946,21.946,0,0,0,11.05.273C55.307,271.644,57.9,268.369,65.539,267.005Z" transform="translate(14.133 97.267)"/>
    <path id="Path_1878" data-name="Path 1878" class="cls-5" d="M62.6,282.959s16.644-15.143,32.2-9.413c0,0,.682,5.457-11.869,6-12.415.546-7.913-2.456-20.327,3.411Z" transform="translate(22.802 99.184)"/>
    <path id="Path_1879" data-name="Path 1879" class="cls-5" d="M73.7,251.8s7.231,1.774,10.368,12.551,4.911,13.506,7.231,15.28c0,0,2.456-.136,2.865-5.457S85.705,251.664,73.7,251.8Z" transform="translate(26.845 91.735)"/>
    <path id="Path_1880" data-name="Path 1880" class="cls-2" d="M95.907,276.9a14.557,14.557,0,0,0-6.276,4.638c-2.592,3.411-7.094,4.229-8.731,3.547,0,0,10.5,3.274,12.824-.409A12.784,12.784,0,0,0,95.907,276.9Z" transform="translate(29.468 100.878)"/>
    <path id="Path_1881" data-name="Path 1881" class="cls-2" d="M93.131,262.9S90.4,275.588,92.04,282c0,0,4.093-1.228,4.5-4.638S91.9,274.36,93.131,262.9Z" transform="translate(33.335 95.778)"/>
    <path id="Path_1882" data-name="Path 1882" class="cls-5" d="M103.068,281.7s-6.821.682-8.868,3.683C94.2,285.383,97.747,286.611,103.068,281.7Z" transform="translate(34.312 102.626)"/>
    <path id="Path_1883" data-name="Path 1883" class="cls-5" d="M103.214,266a14.274,14.274,0,0,1-.682,11.05c-2.865,6-3.683,8.595-1.5,10.368,0,0-.546-1.228,2.319-6.548s1.91-13.37-.136-14.87Z" transform="translate(36.349 96.908)"/>
    <path id="Path_1884" data-name="Path 1884" class="cls-5" d="M111.838,289.815a5.753,5.753,0,0,1-2.865-4.911c0-3.547-1.774-9-1.774-9s3.683,5.593,3.411,8.049c0,2.592.136,5.593,1.228,5.866Z" transform="translate(39.048 100.514)"/>
    <path id="Path_1885" data-name="Path 1885" class="cls-6" d="M146.384,169.939H0s51.841-2.729,57.3-42.7S90.04,71.713,95.5,87.266c5.457,15.416,28.24,12.688,31.787-.955,3.683-13.642,7.231-44.611,30.968-44.611s39.973,25.511,40.927,39.973c.955,14.6,11.869,31.787,21.828,32.742s9.959-29.059,17.326-30.013c7.231-.955,35.47-10.914,39.973,25.511s12.688,59.072,30.013,59.072S146.384,169.939,146.384,169.939Z" transform="translate(0 15.206)"/>
    <path id="Path_1886" data-name="Path 1886" class="cls-7" d="M527.185,45.583s3.684-53.615-38.2-44.611c-41.883,9.14-31.787,54.57-40.927,71.9s-53.615-24.556-82.81.955c-29.059,25.511-26.33,58.253-26.33,58.253l48.158,24.557,246.52-9.959s-30.013-22.783-35.47-51.841-22.783-57.3-43.656-45.43C533.6,61,529.913,61.954,527.185,45.583Z" transform="translate(123.426 0)"/>
    <path id="Path_1887" data-name="Path 1887" class="cls-6" d="M554.42,190.639H407.9s51.841-2.729,57.3-42.7,32.742-55.525,38.2-39.973c5.457,15.416,28.24,12.688,31.787-.955,3.684-13.642,7.231-44.611,30.968-44.611,23.6,0,39.973,25.511,40.927,39.973.955,14.6,11.869,31.787,21.828,32.742s9.959-29.059,17.326-30.013c7.231-.955,35.471-10.914,39.973,25.511s12.688,59.072,30.013,59.072S554.42,190.639,554.42,190.639Z" transform="translate(148.577 22.746)"/>
    <path id="Path_1888" data-name="Path 1888" class="cls-8" d="M692.623,520.43h-589.9a6.841,6.841,0,0,1-6.821-6.821V96.421a6.841,6.841,0,0,1,6.821-6.821h589.9a6.841,6.841,0,0,1,6.821,6.821V513.609a6.755,6.755,0,0,1-6.821,6.821Z" transform="translate(34.932 32.654)"/>
    <path id="Path_1889" data-name="Path 1889" class="cls-2" d="M114.293,450.823s27.694,3.138,38.608-15.689,5.457-30.7,19.509-41.61,33.424-25.648,26.6-32.742-48.431-2.729-59.345,12.688-7.913-20.464-15.689-9.55-21.555,28.649-20.873,41.61S102.015,451.505,114.293,450.823Z" transform="translate(37.548 130.228)"/>
    <path id="Path_1890" data-name="Path 1890" class="cls-2" d="M117.311,438.525s-.955,5.048-22.783,4.093S45.415,427.2,67.243,383l22.237,6.412Z" transform="translate(21.57 139.525)"/>
    <path id="Path_1891" data-name="Path 1891" class="cls-2" d="M56.9,192.363s3.138,44.747,17.053,54.3c0,0-14.052-31.651-6.548-54.843s-2.456-34.788-5.866-37.517c0,0,3.274,7.5,1.91,15.416s-5.73,11.869-6.548,22.647Z" transform="translate(20.726 56.221)"/>
    <path id="Path_1892" data-name="Path 1892" class="cls-5" d="M78.958,186.4s-18.963,25.375-8.868,46.384c0,0,7.64.136,6.821-17.462S72.546,204.681,78.958,186.4Z" transform="translate(24.452 67.913)"/>
    <path id="Path_1893" data-name="Path 1893" class="cls-5" d="M37.7,205.8s3.411,9.959,18.963,12.824,19.645,5.184,22.374,8.049c0,0,.136,3.411-7.367,4.775S39.064,222.58,37.7,205.8Z" transform="translate(13.732 74.98)"/>
    <path id="Path_1894" data-name="Path 1894" class="cls-2" d="M75.3,233.764a18.667,18.667,0,0,1,5.593-9.277c4.5-3.956,4.911-10.641,3.82-12.688,0,0,6,14.325,1.091,18.145a20.18,20.18,0,0,1-10.5,3.82Z" transform="translate(27.428 77.165)"/>
    <path id="Path_1895" data-name="Path 1895" class="cls-2" d="M55.8,232.061s17.462-5.593,26.6-4.093c0,0-1.228,6-5.866,6.958S71.762,228.787,55.8,232.061Z" transform="translate(20.325 82.961)"/>
    <path id="Path_1896" data-name="Path 1896" class="cls-5" d="M83.3,243.06s0-9.55,3.82-12.96C87.12,230.1,89.439,234.875,83.3,243.06Z" transform="translate(30.342 83.831)"/>
    <path id="Path_1897" data-name="Path 1897" class="cls-5" d="M61.4,245.87a20.347,20.347,0,0,0,15.416-2.456c7.913-4.775,11.6-6.412,14.325-3.411,0,0-1.774-.682-8.868,4.093C75.315,248.871,63.992,248.6,61.4,245.87Z" transform="translate(22.365 86.888)"/>
    <path id="Path_1898" data-name="Path 1898" class="cls-5" d="M96.154,254a7.837,7.837,0,0,0-7.231-3.274C84.149,251.274,76.1,249.5,76.1,249.5s8.458,4.366,11.869,3.82C91.243,252.638,95.472,252.365,96.154,254Z" transform="translate(27.719 90.897)"/>
    <path id="Path_1899" data-name="Path 1899" class="cls-9" d="M79.911,335.378s-15.416-8.185-25.511-3.683c-9.959,4.5-19.1-8.595-19.1-8.595s4.5,27.285,21.419,27.694c16.78.409,25.921-3.138,25.921-3.138Z" transform="translate(12.858 117.706)"/>
    <path id="Path_1900" data-name="Path 1900" class="cls-10" d="M69.73,347.1s-18.69,6.821-26.33,4.5c0,0,2.729,15.416,18.69,11.323Z" transform="translate(15.808 126.448)"/>
    <path id="Path_1901" data-name="Path 1901" class="cls-5" d="M131.334,477.714s6.412-47.339,12.688-63.711c6.412-16.371-11.869-70.941-37.244-89.086C81.266,306.774,112.234,299,112.234,299V284.4s-47.749-.409-48.158,29.6,10.914,40.927,5.048,48.158-19.1,17.053-18.417,34.788,8.868,27.285,25.921,33.424,23.874,27.967,31.378,36.153S114.417,483.308,131.334,477.714Z" transform="translate(18.461 103.61)"/>
    <path id="Path_1902" data-name="Path 1902" class="cls-2" d="M74.994,315.4a315.61,315.61,0,0,0,3.547,36.016,155.053,155.053,0,0,0,3.683,17.6,78.49,78.49,0,0,0,6.139,16.644c1.364,2.592,2.865,4.911,4.638,7.64l1.228,1.91,1.228,2.046c.819,1.364,1.637,2.592,2.319,3.956a109.424,109.424,0,0,1,7.367,16.917,99.79,99.79,0,0,1,4.638,17.735c.409,3,.819,6,.955,9.141a34.46,34.46,0,0,1-.682,9.141,39.964,39.964,0,0,0-.546-9c-.409-3-1.091-5.866-1.774-8.868a125.2,125.2,0,0,0-5.73-17.053,134.623,134.623,0,0,0-7.776-16.1,35.552,35.552,0,0,0-2.319-3.82l-1.091-1.91-1.228-1.91a64.65,64.65,0,0,1-4.911-7.913c-5.593-11.323-7.913-23.6-9.277-35.607a182.06,182.06,0,0,1-.409-36.562Z" transform="translate(27.052 114.901)"/>
    <path id="Path_1903" data-name="Path 1903" class="cls-5" d="M172.573,369.1a67.544,67.544,0,0,0-9.823,7.64,64.325,64.325,0,0,0-8.049,9.277,42.116,42.116,0,0,0-5.184,10.914c-1.228,3.956-2.183,7.913-3.138,12.005a88.334,88.334,0,0,1-3.956,12.005,37.453,37.453,0,0,1-6.958,10.778,36.752,36.752,0,0,1-5.048,4.093,28.79,28.79,0,0,1-5.866,2.729A39.354,39.354,0,0,1,112,440.314a45.584,45.584,0,0,0,12.005-3,25.449,25.449,0,0,0,5.321-3,32.086,32.086,0,0,0,4.5-4.093,35.938,35.938,0,0,0,6.139-10.368,89.878,89.878,0,0,0,3.683-11.733c1.091-3.956,2.046-8.049,3.411-12.142a37.231,37.231,0,0,1,5.866-11.323A55.567,55.567,0,0,1,172.573,369.1Z" transform="translate(40.796 134.462)"/>
    <path id="Path_1904" data-name="Path 1904" class="cls-2" d="M564.5,372.695c0-4.775-14.188-8.595-31.651-8.595s-31.651,3.82-31.651,8.595v.546l7.5,60.709c0,3.683,10.778,6.548,24.147,6.548,13.233,0,24.147-3,24.147-6.548l7.5-60.709v-.546Z" transform="translate(182.562 132.64)"/>
    <path id="Path_1905" data-name="Path 1905" class="cls-11" d="M558.379,372.5c0,2.456-12.005,4.5-26.739,4.5s-26.739-2.046-26.739-4.5,12.005-4.5,26.739-4.5S558.379,370.046,558.379,372.5Z" transform="translate(183.91 134.061)"/>
    <path id="Path_1906" data-name="Path 1906" class="cls-12" d="M524.82,404.691s-24.42-32.469-17.6-57.026,36.562-30.013,33.151-46.794,1.773-17.462,10.641-12.687,30.7,30.013,21.828,50.887-2.456,15.007-1.773,21.146-33.151,25.921-27.967,38.608-3.82,15.689-5.184,15.689-6.821,3.138-13.1-9.823Z" transform="translate(184.317 104.055)"/>
    <path id="Path_1907" data-name="Path 1907" class="cls-13" d="M526.721,398.469s-23.056-17.6-26.739-31.1-2.046-35.743,7.913-43.247,15.962-10.641,19.509-3.684c3.683,7.094-7.5,17.326-3,31.787,4.5,14.6,7.5,23.192,9.823,31.1s8.186,16.1,2.319,19.1c-6,3.274-9.823-3.956-9.823-3.956Z" transform="translate(181.461 115.324)"/>
    <path id="Path_1908" data-name="Path 1908" class="cls-2" d="M549.8,288.375s5.457-19.1,22.51-27.967,19.782-37.517,6.139-55.934-22.51-48.431-49.113-41.61-27.285,22.51-17.735,35.471,39.563,17.735,39.563,30.013Z" transform="translate(184.307 58.98)"/>
    <path id="Path_1909" data-name="Path 1909" class="cls-14" d="M445.3,185.1h38.2V456.995H445.3Z" transform="translate(162.2 67.44)"/>
    <path id="Path_1910" data-name="Path 1910" class="cls-15" d="M445.5,227.5h37.79V232H445.5Z" transform="translate(162.273 82.884)"/>
    <circle id="Ellipse_199" data-name="Ellipse 199" class="cls-16" cx="97.817" cy="97.817" r="97.817" transform="translate(530.011 126.892)"/>
    <circle id="Ellipse_200" data-name="Ellipse 200" class="cls-17" cx="65.075" cy="65.075" r="65.075" transform="translate(562.753 159.634)"/>
    <circle id="Ellipse_201" data-name="Ellipse 201" class="cls-18" cx="32.333" cy="32.333" r="32.333" transform="translate(595.495 192.376)"/>
    <circle id="Ellipse_202" data-name="Ellipse 202" class="cls-19" cx="16.371" cy="16.371" r="16.371" transform="translate(611.457 208.338)"/>
    <path id="Path_1911" data-name="Path 1911" class="cls-20" d="M453.4,166.686l6.958,10.368L472.363,158.5" transform="translate(165.151 57.751)"/>
    <path id="Path_1912" data-name="Path 1912" class="cls-2" d="M513.1,374.173s20.873,1.364,31.651-.273l3,9.413-18.827,9.959-15.28-10.1Z" transform="translate(186.896 136.21)"/>
    <path id="Path_1913" data-name="Path 1913" class="cls-21" d="M151.9,224.4h38.2V442.68H151.9Z" transform="translate(55.33 81.755)"/>
    <path id="Path_1914" data-name="Path 1914" class="cls-22" d="M210.6,245.7h38.2V434.921H210.6Z" transform="translate(76.711 89.513)"/>
    <path id="Path_1915" data-name="Path 1915" class="cls-23" d="M269.3,282.4h38.2V421.553H269.3Z" transform="translate(98.092 102.881)"/>
    <path id="Path_1916" data-name="Path 1916" class="cls-23" d="M327.9,282.4h38.2V421.553H327.9Z" transform="translate(119.437 102.881)"/>
    <path id="Path_1917" data-name="Path 1917" class="cls-24" d="M386.6,247.1h38.2V434.411H386.6Z" transform="translate(140.819 90.023)"/>
    <path id="Path_1918" data-name="Path 1918" class="cls-25" d="M384.849,191.839s4.229,25.375-1.228,29.059-9.823,1.228-9.823,5.457-.409,8.458,1.091,9.959c0,0-13.506,3.956-15.552,2.183s-3.138-30.559-3.138-30.559l18.145-19.918c0-.136,9.823-2.183,10.5,3.82Z" transform="translate(129.746 68.341)"/>
    <path id="Path_1919" data-name="Path 1919" class="cls-25" d="M295.421,374.2s-4.093,4.229-6.821,5.321c0,0,2.865,7.64,5.457,8.049a59,59,0,0,0,12.688-8.595Z" transform="translate(105.122 136.319)"/>
    <path id="Path_1920" data-name="Path 1920" class="cls-25" d="M276.191,350.887l-7.5.136s-2.865-9.141-.546-11.323l5.73.136,4.229,4.229Z" transform="translate(97.341 123.753)"/>
    <path id="Path_1921" data-name="Path 1921" class="cls-11" d="M327.207,285.638s-9.413,17.735-9.413,35.061-18.554,39.29-45.429,37.517c0,0-1.5,11.869,3,14.6,0,0,52.387,1.5,67.121-47.885l9.823-40.245L343.714,281Z" transform="translate(99.121 102.371)"/>
    <path id="Path_1922" data-name="Path 1922" class="cls-15" d="M328.2,323.5h37.79V328H328.2Z" transform="translate(119.547 117.852)"/>
    <path id="Path_1923" data-name="Path 1923" class="cls-15" d="M386.9,295.5h37.79V300H386.9Z" transform="translate(140.928 107.653)"/>
    <path id="Path_1924" data-name="Path 1924" class="cls-5" d="M335.683,292.615s-6.958,3-13.779,47.612c-6.685,44.475-23.738,63.438-29.6,67.94,0,0,3.411,10.641,8.595,8.868,0,0,41.2-24.829,72.032-129.74L359.694,278.7Z" transform="translate(106.47 101.534)"/>
    <path id="Path_1925" data-name="Path 1925" class="cls-26" d="M302.64,264.359s-7.23-3-12.278-3.547-13.1,3.82-14.87,7.913-.136,12.278,3.547,10.368,6.139-6.958,8.322-7.094,6.276,5.048,11.733,4.229c5.321-.819,5.73-5.184,5.73-5.184l1.5-4.229Z" transform="translate(100.086 95.001)"/>
    <path id="Path_1926" data-name="Path 1926" class="cls-27" d="M349.4,243.3c-.409,0-19.236,10.368-27.421,16.644s-26.876,9.413-26.876,9.413-.273,7.367,2.183,9.14c0,0,39.29,2.046,52.8-20.737Z" transform="translate(107.488 88.639)"/>
    <path id="Path_1927" data-name="Path 1927" class="cls-25" d="M417.067,211.782s-3-11.46-.136-16.644,5.866-5.321,6.548-9c.546-3.683,2.456-6.276,4.229-3.82,1.773,2.592.819,8.185-.409,9,0,0,10.1-5.457,12.005-9.277s2.592-6.139,4.093-5.184a7.17,7.17,0,0,1,2.319,7.776c-.955,3.683-4.093,8.458-5.048,12.688s-1.091,6.821-3.138,8.595-14.6,11.187-17.053,12.551Z" transform="translate(151.416 64.359)"/>
    <path id="Path_1928" data-name="Path 1928" class="cls-28" d="M385.818,231.05s19.645-1.364,27.012-.273,31.241-5.457,41.064-29.877c0,0,7.231,2.865,8.049,8.868,0,0-12.687,28.649-38.881,43.52-6.958,3.956-22.647,7.64-28.786,12.415-17.19,13.1-20.873,29.059-19.782,39.836,1.637,14.6-1.364,16.644-1.364,16.644s-12.415-8.595-18.145-4.638-27.012,20.054-39.836,7.094-9.55-8.186-9.55-8.186,34.925-34.788,38.472-58.39c3.274-23.6,41.746-27.012,41.746-27.012Z" transform="translate(111.178 73.195)"/>
    <path id="Path_1929" data-name="Path 1929" class="cls-29" d="M292.505,377.825s-2.592-.955-4.366-.136-6.276,2.319-7.913,6.412-2.319,21.282,2.456,27.558c4.638,6.276,9.823,12.824,15.416,10.5s6.139-4.638,3.274-8.595c-2.865-3.82-6.276-20.873-2.865-28.24Z" transform="translate(101.627 137.469)"/>
    <path id="Path_1930" data-name="Path 1930" class="cls-29" d="M276.357,352.711s-9.413,10.641-10.778,14.87-1.774,8.868-5.321,9.55-14.6-8.595-11.187-15.552,13.643-21.009,19.509-23.738c5.866-2.592,7.367,1.091,7.367,2.592C275.812,341.933,279.768,348.345,276.357,352.711Z" transform="translate(90.489 122.748)"/>
    <path id="Path_1931" data-name="Path 1931" class="cls-29" d="M401.6,172.705s11.6,10.914.682,23.465c-10.914,12.688-20.327,17.326-18.417,29.331s4.366,19.918-6.139,23.874-3.274,9.413-6.548,12.005-13.1,14.87-42.292,5.73c-29.331-9-15.143-28.649-9.413-28.24s7.23-1.091,5.73-7.64,6.548-8.322,16.644-9.823,15.552-1.774,13.37-28.24c-2.183-26.33,39.563-27.694,46.384-20.464Z" transform="translate(113.27 61.554)"/>
    <path id="Path_1932" data-name="Path 1932" class="cls-15" d="M151.9,290.4h37.79v4.5H151.9Z" transform="translate(55.33 105.795)"/>
    <path id="Path_1933" data-name="Path 1933" class="cls-15" d="M210.7,300.6h37.79v4.5H210.7Z" transform="translate(76.747 109.511)"/>
    <path id="Path_1934" data-name="Path 1934" class="cls-15" d="M269.5,315.5h37.79V320H269.5Z" transform="translate(98.165 114.938)"/>
    <path id="Path_1935" data-name="Path 1935" class="cls-15" d="M96,120.8V96.521a6.841,6.841,0,0,1,6.821-6.821h589.9a6.841,6.841,0,0,1,6.821,6.821V120.8" transform="translate(34.968 32.69)"/>
    <circle id="Ellipse_203" data-name="Ellipse 203" class="cls-8" cx="6.276" cy="6.276" r="6.276" transform="translate(141.2 132.486)"/>
    <circle id="Ellipse_204" data-name="Ellipse 204" class="cls-8" cx="6.276" cy="6.276" r="6.276" transform="translate(160.572 132.486)"/>
    <circle id="Ellipse_205" data-name="Ellipse 205" class="cls-8" cx="6.276" cy="6.276" r="6.276" transform="translate(180.081 132.486)"/>
    <path id="Path_1936" data-name="Path 1936" class="cls-30" d="M341.377,237.586H156.521a6.841,6.841,0,0,1-6.821-6.821V133.221a6.841,6.841,0,0,1,6.821-6.821H341.377a6.841,6.841,0,0,1,6.821,6.821v97.544A6.931,6.931,0,0,1,341.377,237.586Z" transform="translate(54.528 46.058)"/>
    <path id="Path_1937" data-name="Path 1937" class="cls-8" d="M308.712,139.938H223.719a2.319,2.319,0,0,1,0-4.638h84.993a2.319,2.319,0,0,1,0,4.638Z" transform="translate(80.645 49.3)"/>
    <path id="Path_1938" data-name="Path 1938" class="cls-8" d="M308.712,152.438H223.719a2.319,2.319,0,0,1,0-4.638h84.993a2.319,2.319,0,0,1,0,4.638Z" transform="translate(80.645 53.853)"/>
    <path id="Path_1939" data-name="Path 1939" class="cls-8" d="M308.712,164.938H223.719a2.319,2.319,0,0,1,0-4.638h84.993a2.319,2.319,0,0,1,0,4.638Z" transform="translate(80.645 58.406)"/>
    <path id="Path_1940" data-name="Path 1940" class="cls-8" d="M308.712,177.438H223.719a2.319,2.319,0,0,1,0-4.638h84.993a2.319,2.319,0,0,1,0,4.638Z" transform="translate(80.645 62.96)"/>
    <ellipse id="Ellipse_207" data-name="Ellipse 207" class="cls-31" cx="47.612" cy="12.415" rx="47.612" ry="12.415" transform="translate(316.233 573.002)"/>
  </g>
</svg>
