<svg xmlns="http://www.w3.org/2000/svg" viewBox="0 0 811.179 591.503">
  <defs>
    <style>
      .cls-1 {
        fill: #ffd67a;
      }

      .cls-17, .cls-2 {
        fill: #493646;
      }

      .cls-3 {
        fill: #779bbf;
      }

      .cls-4 {
        fill: #ffde9c;
      }

      .cls-5 {
        fill: #406cb4;
      }

      .cls-6 {
        fill: #b6ceeb;
      }

      .cls-7 {
        fill: #febd12;
      }

      .cls-8 {
        fill: #1a3f70;
      }

      .cls-9 {
        fill: #febf43;
      }

      .cls-10 {
        fill: #d5e2ee;
      }

      .cls-11 {
        fill: #b3cfe4;
      }

      .cls-12 {
        fill: #276eb6;
      }

      .cls-13 {
        fill: #fff;
      }

      .cls-14 {
        fill: #ef4370;
      }

      .cls-15 {
        fill: #ffdc74;
      }

      .cls-16 {
        fill: #122236;
      }

      .cls-17 {
        stroke: #1a3f70;
        stroke-miterlimit: 10;
      }
    </style>
  </defs>
  <g id="_2" data-name="2" transform="translate(-2495.423 -1544.248)">
    <path id="Path_1779" data-name="Path 1779" class="cls-1" d="M3363.053,2169.249H3260.6a1.2,1.2,0,0,1-1.2-1.2V2161.9a1.2,1.2,0,0,1,1.2-1.2h102.451a1.2,1.2,0,0,1,1.2,1.2v6.144A1.242,1.242,0,0,1,3363.053,2169.249Z" transform="translate(-253.74 -204.743)"/>
    <path id="Path_1780" data-name="Path 1780" class="cls-1" d="M3258.4,2324.944l11.487-156.348a.6.6,0,0,1,.735-.6l3.54.267a.6.6,0,0,1,.6.735l-11.487,156.348a.6.6,0,0,1-.735.6l-3.54-.267A.68.68,0,0,1,3258.4,2324.944Z" transform="translate(-253.408 -207.162)"/>
    <path id="Path_1781" data-name="Path 1781" class="cls-1" d="M3270.168,2312.1h89.294a.669.669,0,0,1,.668.668v3.54a.669.669,0,0,1-.668.668h-89.294a.669.669,0,0,1-.668-.668v-3.54A.631.631,0,0,1,3270.168,2312.1Z" transform="translate(-257.094 -255.027)"/>
    <path id="Path_1782" data-name="Path 1782" class="cls-1" d="M3408.558,2324.944,3397.07,2168.6a.6.6,0,0,0-.735-.6l-3.54.267a.6.6,0,0,0-.6.735l11.487,156.348a.6.6,0,0,0,.735.6l3.54-.267A.68.68,0,0,0,3408.558,2324.944Z" transform="translate(-297.842 -207.162)"/>
    <path id="Path_1783" data-name="Path 1783" class="cls-2" d="M3386.1,2378.406s-.534,5.009.534,6.211c1.069,1.269,23.375,9.217,23.709,12.355s.668,9.083-1.336,10.753c-6.412,5.476-23.843.067-31.523-8.616l.067-2.8s-2.738-2.738-4.141-1.8l-.4,1.8s-4.274-.868-4.809-4.408c0,0,.535-8.549,2.2-11.755l14.025-4.942Z" transform="translate(-289.876 -275.985)"/>
    <path id="Path_1784" data-name="Path 1784" class="cls-2" d="M3242.618,2381.106s.534,5.009-.534,6.211c-1.069,1.269-23.375,9.217-23.709,12.356s-.668,9.083,1.336,10.753c6.412,5.477,23.843.067,31.523-8.615l-.067-2.805s2.739-2.738,4.141-1.8l.4,1.8s4.274-.868,4.809-4.408c0,0-.534-8.549-2.2-11.755l-14.025-4.942Z" transform="translate(-240.03 -276.881)"/>
    <g id="Group_1839" data-name="Group 1839" transform="translate(2527.799 1955.957)">
      <path id="Path_1785" data-name="Path 1785" class="cls-1" d="M2648.553,2169.249H2546.1a1.2,1.2,0,0,1-1.2-1.2V2161.9a1.2,1.2,0,0,1,1.2-1.2h102.451a1.2,1.2,0,0,1,1.2,1.2v6.144A1.2,1.2,0,0,1,2648.553,2169.249Z" transform="translate(-2544.232 -2160.7)"/>
      <path id="Path_1786" data-name="Path 1786" class="cls-1" d="M2543.9,2324.944l11.487-156.348a.6.6,0,0,1,.735-.6l3.54.267a.6.6,0,0,1,.6.735l-11.487,156.348a.6.6,0,0,1-.735.6l-3.54-.267A.68.68,0,0,1,2543.9,2324.944Z" transform="translate(-2543.9 -2163.119)"/>
      <path id="Path_1787" data-name="Path 1787" class="cls-1" d="M2555.668,2312.1h89.294a.669.669,0,0,1,.668.668v3.54a.669.669,0,0,1-.668.668h-89.294a.669.669,0,0,1-.668-.668v-3.54A.669.669,0,0,1,2555.668,2312.1Z" transform="translate(-2547.587 -2210.985)"/>
      <path id="Path_1788" data-name="Path 1788" class="cls-1" d="M2694.058,2324.944,2682.57,2168.6a.6.6,0,0,0-.735-.6l-3.54.267a.6.6,0,0,0-.6.735l11.487,156.348a.6.6,0,0,0,.735.6l3.54-.267A.638.638,0,0,0,2694.058,2324.944Z" transform="translate(-2588.334 -2163.119)"/>
      <path id="Path_1789" data-name="Path 1789" class="cls-1" d="M2959.753,2169.249H2857.3a1.2,1.2,0,0,1-1.2-1.2V2161.9a1.2,1.2,0,0,1,1.2-1.2h102.451a1.2,1.2,0,0,1,1.2,1.2v6.144A1.2,1.2,0,0,1,2959.753,2169.249Z" transform="translate(-2647.591 -2160.7)"/>
      <path id="Path_1790" data-name="Path 1790" class="cls-1" d="M2855.1,2324.944l11.487-156.348a.6.6,0,0,1,.735-.6l3.54.267a.6.6,0,0,1,.6.735l-11.487,156.348a.6.6,0,0,1-.735.6l-3.54-.267A.68.68,0,0,1,2855.1,2324.944Z" transform="translate(-2647.259 -2163.119)"/>
      <path id="Path_1791" data-name="Path 1791" class="cls-1" d="M2866.868,2312.1h89.294a.669.669,0,0,1,.668.668v3.54a.669.669,0,0,1-.668.668h-89.294a.669.669,0,0,1-.668-.668v-3.54A.631.631,0,0,1,2866.868,2312.1Z" transform="translate(-2650.946 -2210.985)"/>
      <path id="Path_1792" data-name="Path 1792" class="cls-1" d="M3005.258,2324.944,2993.77,2168.6a.6.6,0,0,0-.735-.6l-3.54.267a.6.6,0,0,0-.6.735l11.488,156.348a.6.6,0,0,0,.734.6l3.54-.267A.68.68,0,0,0,3005.258,2324.944Z" transform="translate(-2691.693 -2163.119)"/>
    </g>
    <path id="Path_1793" data-name="Path 1793" class="cls-2" d="M3654.05,2281.8s9.35,0,9.35,4.675-4.675,4.675-4.675,9.35-4.675,18.7-9.35,18.7,0-9.35,0-14.025,0-15.829-4.675-15.829Z" transform="translate(-381.71 -244.964)"/>
    <path id="Path_1794" data-name="Path 1794" class="cls-3" d="M3628.418,2164.149c-2.938,2.939-17.432,43.678,8.749,75.67,0,0,0,5.811-5.811,5.811,0,0-46.55-20.37-37.8-78.608l26.18-11.621Z" transform="translate(-364.36 -202.982)"/>
    <path id="Path_1795" data-name="Path 1795" class="cls-1" d="M3656.353,2169.249H3553.9a1.2,1.2,0,0,1-1.2-1.2V2161.9a1.2,1.2,0,0,1,1.2-1.2h102.451a1.2,1.2,0,0,1,1.2,1.2v6.144A1.242,1.242,0,0,1,3656.353,2169.249Z" transform="translate(-351.154 -204.743)"/>
    <path id="Path_1796" data-name="Path 1796" class="cls-1" d="M3551.7,2324.944l11.487-156.348a.6.6,0,0,1,.734-.6l3.54.267a.6.6,0,0,1,.6.735l-11.487,156.348a.6.6,0,0,1-.735.6l-3.54-.267A.68.68,0,0,1,3551.7,2324.944Z" transform="translate(-350.822 -207.162)"/>
    <path id="Path_1797" data-name="Path 1797" class="cls-1" d="M3563.468,2312.1h89.294a.669.669,0,0,1,.668.668v3.54a.669.669,0,0,1-.668.668h-89.294a.669.669,0,0,1-.668-.668v-3.54A.631.631,0,0,1,3563.468,2312.1Z" transform="translate(-354.509 -255.027)"/>
    <path id="Path_1798" data-name="Path 1798" class="cls-1" d="M3701.858,2324.944,3690.37,2168.6a.6.6,0,0,0-.735-.6l-3.54.267a.6.6,0,0,0-.6.735l11.487,156.348a.6.6,0,0,0,.735.6l3.54-.267A.68.68,0,0,0,3701.858,2324.944Z" transform="translate(-395.256 -207.162)"/>
    <path id="Path_1799" data-name="Path 1799" class="cls-4" d="M2763,1935.894s-1.2-9.417,1.469-12.623,6.278-8.883,6.412-11.153,1.67-3.94,2.738-3.339a5.974,5.974,0,0,1,2.137,8.281s7.413-8.816,7.346-12.756c-.134-3.94,2.939-4.809,4.007-4.274,1.135.534,7.146,3.339,3.94,15.227-3.272,11.888-3.94,14.025-8.081,16.563-4.141,2.6-10.285,6.144-12.756,9.283l-7.614-2.271Z" transform="translate(-88.737 -118.118)"/>
    <path id="Path_1800" data-name="Path 1800" class="cls-5" d="M2691.406,1948.7s9.016,3.874,10.686,9.951,7.547,20.37,7.346,22.507c0,0,21.639-26.448,27.984-29.253,0,0,7.747-.8,9.283,5.009,0,0-16.7,36.866-27.85,48.688-11.22,11.888-22.841,19.034-27.984,10.953l-2.672-55.1Z" transform="translate(-64.027 -134.331)"/>
    <path id="Path_1801" data-name="Path 1801" class="cls-6" d="M2603.826,1944.869s-23.709,10.419-32.926,22.507l6.412,78.742,68.991-4.007s21.505-60.91,8.081-94.5c0,0-11.22-3.673-16.563-3.807l-27.383,4.208Z" transform="translate(-25.068 -132.703)"/>
    <path id="Path_1802" data-name="Path 1802" class="cls-7" d="M2633.638,2292l-4.341,3.94s-.468,8.816,6.211,9.417l6.746-6.078-2.471-6.145Z" transform="translate(-44.461 -248.351)"/>
    <path id="Path_1803" data-name="Path 1803" class="cls-2" d="M2622.026,2296.605a1.9,1.9,0,0,0-2.2-.4c-1.269.6-12.022,6.879-12.022,11.153s4.274,10.686,6.478,10.753,5.076.2,4.875,2.337c-.2,2.071-2.671,5.677-.735,8.281s10.085,13.424,18.233,10.82,2.538-6.478.534-8.482-7.881-14.626-8.014-19.836c-.134-5.276.8-6.145-.8-8.081-1.67-2-6.345-6.545-6.345-6.545Z" transform="translate(-37.324 -249.684)"/>
    <path id="Path_1804" data-name="Path 1804" class="cls-8" d="M2653.455,2139.5s13.291,20.9,27.316,31.791,13.09,23.576,1.87,35.263c-11.22,11.621-34.061,37.4-44.547,44.547,0,0-8.281-3.807-6.078-10.552,0,0,26.18-26.448,26.18-38.269,0-11.888-29.587-32.458-29.587-32.458l-5.61-26.848Z" transform="translate(-42.372 -197.701)"/>
    <path id="Path_1805" data-name="Path 1805" class="cls-7" d="M2737.4,2341.315l1.2,4.875s8.749-.735,11.354-4.809l-1.6-8.482-7.814,2Z" transform="translate(-80.368 -261.936)"/>
    <path id="Path_1806" data-name="Path 1806" class="cls-2" d="M2738.5,2343.832s.935,12.957,2.538,14.493,11.487.468,12.289-1c.868-1.469,2.071-4.542,3.54-5.209,4.007-1.737,6.144,1.336,10.686-.735s11.153-5.009,13.09-16.229c0,0,1.737-9.617-3.339-9.951-2.137-.134-1,2.938-5.476,5.343-4.542,2.4-17.031,9.35-22.24,8.281a9.9,9.9,0,0,0-8.749,2.538,4.217,4.217,0,0,0-2.338,2.471Z" transform="translate(-80.733 -259.376)"/>
    <path id="Path_1807" data-name="Path 1807" class="cls-5" d="M2570.007,2157.251s7.48,24.511,25.98,36.132,65.117,29.253,83.885,80.011c0,0,10.419.267,12.823-7.747,0,0-18.166-73.466-53.5-92.5-35.4-19.034-24.645-44.547-24.645-44.547l-48.153,21.706Z" transform="translate(-23.573 -194.081)"/>
    <path id="Path_1808" data-name="Path 1808" class="cls-6" d="M2560.065,2083.714s-1.2,36.4,6.278,47.152c0,0,57.3-21.171,68.991-14.359,0,0,1.469-30.455,10.886-47.018L2595.6,2057.4Z" transform="translate(-21.446 -170.434)"/>
    <path id="Path_1809" data-name="Path 1809" class="cls-4" d="M2871.69,1894.112s6.478,17.164,10.552,18.567c4.007,1.469,8.482-2.672,10.218-1.937,1.67.8,3.139,8.749,1,11.087a14.887,14.887,0,0,0,14.827,6.412c10.152-1.469,14.626-8.348,14.626-8.348s-3.272-7.48-2.271-11.354c1.069-3.874-20.3-44.213-20.3-44.213L2875.23,1850.3l-16.43,17.632,7.48,17.7Z" transform="translate(-120.688 -101.649)"/>
    <path id="Path_1810" data-name="Path 1810" class="cls-9" d="M2868.985,1855.2s2,15.228,17.7,17.031c0,0,.668,24.444,12.556,28.451a38.841,38.841,0,0,0,21.973.868s15.9,2,19.034-8.282c0,0-13.825-2.938-14.56-12.489,0,0,5.677,7.614,10.285,7.013,0,0-11.487-15.829-8.949-25.246s-1.469-15.094-4.608-17.031c0,0,6.412-22.173-7.213-27.516-13.691-5.343-23.709-4.675-27.783,3.807,0,0-9.617-15.027-25.112-1.536-15.428,13.424-5.61,16.763-5.61,16.763s-11.621,2.939-7.614,19.7,10.419,14.96,10.419,14.96,4.007,8.215,7.747,8.682c0,0-5.076-16.429-3.874-18.968C2863.375,1861.345,2867.382,1863.282,2868.985,1855.2Z" transform="translate(-117.182 -89.786)"/>
    <path id="Path_1811" data-name="Path 1811" class="cls-4" d="M3041.274,1950.074s-3.54-4.942-2.137-8.081,3.139-6.746,3.272-8.949.8-4.809,2-4.274,3.339,3.139,3.206,4.341c0,0,1.937-8.482,1.736-10.753-.2-2.337-1.937-7.013-.4-8.348s4.942.735,5.61,7.614c.734,6.946-.535,9.818-.535,9.818s4.341,4.341,4.742,7.146,2,10.552.133,12.89c-1.937,2.338-5.81,6.011-8.615,5.81C3047.485,1957.02,3041.274,1950.074,3041.274,1950.074Z" transform="translate(-180.475 -122.682)"/>
    <path id="Path_1812" data-name="Path 1812" class="cls-4" d="M2812.172,2095.368s-12.089,4.274-14.76,7.146c-2.671,2.938-10.752,3.807-11.621,7.413s30.922,4.475,34.93-2.271a14.168,14.168,0,0,0,.868-12.957Z" transform="translate(-96.434 -182.822)"/>
    <path id="Path_1813" data-name="Path 1813" class="cls-10" d="M2913.034,1952.563s14.626,3.874,20.036,12.556c5.343,8.682,9.551,20.637,12.556,23.309s8.081,4.208,14.359-6.545a171.351,171.351,0,0,0,9.283-17.9s6.746-1.469,8.949,5.076c0,0-1.469,28.117-9.751,36.666-8.282,8.482-21.706,12.088-30.923,1.336,0,0-2.938,50.825-11.42,59.774l-46.551-2.671s6.746-38.536-8.949-64.049c0,0-1.336,29.119-35.4,50.157,0,0-11.421,4.475-15.428-2,0,0,32.792-34.729,32.458-58.906-.267-24.177,12.823-32.525,30.455-35.865-.134,0,28.251-2.4,30.321-.935Z" transform="translate(-107.735 -135.456)"/>
    <path id="Path_1814" data-name="Path 1814" class="cls-8" d="M2874.217,2138.781s-25.98,20.036-27.449,30.455,22.708,65.385,22.708,65.385,8.348,3.206,11.153-4.007l-7.814-54.231,22.975-27.783,11.688-15.828-20.9-2.071Z" transform="translate(-116.671 -194.779)"/>
    <path id="Path_1815" data-name="Path 1815" class="cls-2" d="M2907.23,2314.544s-5.276,9.417-6.946,14.693-10.419,13.09-10.285,17.9,11.087,4.141,15.361.2,11.421-20.37,15.561-23.509.534-10.886.534-10.886a19.39,19.39,0,0,0-6.812-4.141Z" transform="translate(-131.05 -253.931)"/>
    <path id="Path_1816" data-name="Path 1816" class="cls-2" d="M2883.3,2308.51s-6.345,10.085-9.016,11.888-9.684,5.343-10.619,8.081,8.081,8.482,14.626,5.343,21.639-18.434,21.639-21.372-2.338-8.148-2.338-8.148l-9.617-1.2-2.6.334Z" transform="translate(-122.283 -252.038)"/>
    <path id="Path_1817" data-name="Path 1817" class="cls-4" d="M2886.7,2295.812l3.74,9.551s6.078.868,8.749-3.94l2.8-8.749L2896.25,2289Z" transform="translate(-129.955 -247.355)"/>
    <path id="Path_1818" data-name="Path 1818" class="cls-10" d="M2879.268,2283.04a1.677,1.677,0,0,0-1.069,1.469c-.067,1.069,2.738,7.413,3.874,7.948s11.487-1.536,12.556-6.278c0,0-2.672-7.413-3.606-7.48-.868-.067-2.538,1.8-2.538,1.8Z" transform="translate(-127.131 -243.933)"/>
    <path id="Path_1819" data-name="Path 1819" class="cls-5" d="M2944.7,2131.841s4.208,18.767-17.3,31.189c-19.3,11.153-31.323,8.081-27.783,21.505s8.949,51.96,7.146,54.632a13.823,13.823,0,0,1-12.69,3.005s-29.186-52.228-21.772-68.59,30.321-34.863,30.321-34.863l12.823-11.02Z" transform="translate(-124.772 -193.782)"/>
    <path id="Path_1820" data-name="Path 1820" class="cls-4" d="M2911.1,2308.112l3.072,6.144s5.877-.067,8.883-6.612l-2.2-5.944Z" transform="translate(-138.059 -251.573)"/>
    <path id="Path_1821" data-name="Path 1821" class="cls-10" d="M2903.1,2295.851a2.538,2.538,0,0,0-1.2,1.67c-.2,1.135,2.271,6.345,2.271,6.345a5.025,5.025,0,0,0,4.341,1c2.6-.6,10.219-4.074,11.22-6.612a6.746,6.746,0,0,0,.067-4.742s-2.4-4.141-3.206-3.272-6.879,4.341-9.684,4.675A9.082,9.082,0,0,0,2903.1,2295.851Z" transform="translate(-134.997 -247.727)"/>
    <path id="Path_1822" data-name="Path 1822" class="cls-4" d="M3493.187,1807.5s-2.6-13.291-1.068-18.3.267-9.016-.334-9.884c-.6-.8-1.4-5.209.935-4.408,2.4.8,5.142,7.614,4.742,8.949s6.278-11.554,12.756-12.556c6.479-.935,14.159,1.6,11.754,5.209-2.4,3.673-9.35,8.883-10.485,13.625s-5.877,23.175-11.888,23.309C3499.6,1813.512,3494.389,1811.709,3493.187,1807.5Z" transform="translate(-330.711 -75.347)"/>
    <path id="Path_1823" data-name="Path 1823" class="cls-4" d="M3148.888,2009.632c-.668,0-9.951-3.272-12.489-1.736s-3.139,4.208-2.872,5.009c0,0-8.949.668-9.551,2.471-.6,1.87-1.87,19.5,6.345,18.233,8.148-1.269,26.514-9.684,28.117-12.088l-2.8-11.22Z" transform="translate(-208.612 -153.855)"/>
    <path id="Path_1824" data-name="Path 1824" class="cls-8" d="M3259.075,2044.989s-12.689,148.6-7.413,223.87c0,0,10.485,7.213,19.7,1.2,0,0,24.578-161.424,29.119-165.9,0,0,28.718,145.662,27.85,163.361,0,0,13.758,6.211,21.505-2.4,0,0,3.473-194.55-8.014-231.751l-69.726-.868Z" transform="translate(-250.743 -162.163)"/>
    <path id="Path_1825" data-name="Path 1825" class="cls-10" d="M3289.1,1839.861s14.226-2.4,19.235.935,24.912,18.166,32.792,17.765,42.076-30.188,44.079-34.262c0,0,8.415,2.2,9.751,8.148,0,0-19.569,40.005-44.547,49.756s-36.8-2.2-36.8-2.2,10.552,89.762-3.606,94.771-71.729,13.157-81.814-1.937c-7.146-10.753,5.877-74.8,5.877-74.8s-11.955,44.814-32.859,54.832c-20.971,10.018-29.854,11.487-29.854,11.487s-7.213-5.209-3.807-16.3c0,0,40.139-11.087,41.542-46.35,1.4-35.2,11.688-55.233,39.8-63.715s35.33,9.283,35.33,9.283Z" transform="translate(-222.929 -93.014)"/>
    <path id="Path_1826" data-name="Path 1826" class="cls-8" d="M3322,1867.547l5.343,12.823,7.346-.334,3.874-13.157-7.614-7.079-6.812,2.07Z" transform="translate(-274.531 -104.805)"/>
    <path id="Path_1827" data-name="Path 1827" class="cls-8" d="M3328.507,1896.027l-3.807,55.567,11.02,10.552L3346,1948.254,3334.184,1881h-5.41Z" transform="translate(-275.428 -111.846)"/>
    <path id="Path_1828" data-name="Path 1828" class="cls-4" d="M3566.4,1891.07c-.8,1.269-14.226,33.193-9.083,39.939s10.753,4.208,12.356,5.343-.935,13.291-.935,13.291,25.913-1.6,28.05-3.005c0,0-1.135-9.551,3.74-16.1s16.363-27.583,10.018-37.134-30.588-24.043-44.146-2.338Z" transform="translate(-352.299 -111.43)"/>
    <path id="Path_1829" data-name="Path 1829" class="cls-2" d="M3560.958,2280.717s1.6.8.2,2.538-8.749,11.354-15.562,14.493,2.538,8.281,6.211,7.814c3.606-.467,13.758-5.61,16.5-9.951,2.671-4.341,3.74-4.341,6.745-5.944s4.542-8.281,1.737-10.419c-2.805-2.07-12.289-7.948-12.289-7.948l-5.477,5.81Z" transform="translate(-347.991 -241.476)"/>
    <path id="Path_1830" data-name="Path 1830" class="cls-6" d="M3555.053,2126.283s-35.731,23.576-39.939,29.92a28.75,28.75,0,0,0-1.6,30.388c6.813,13.09,34.8,42.276,34.8,42.276s8.148-1.135,7.213-9.818c0,0-15.9-45.482-12.489-48.621s12.422-5.811,25.112-10.018c15.094-5.009,41.475-6.879,45.215-15.094,3.74-8.148.6-19.5-4.074-25.312l-34.6-3.005Z" transform="translate(-336.943 -190.229)"/>
    <path id="Path_1831" data-name="Path 1831" class="cls-4" d="M3490.5,2017.486s-5.477,8.749-9.684,10.285-23.509-18.7-23.509-18.7,3.874-7.48,1.536-9.951-7.346-9.217-7.146-11.354c0,0-5.944-.935-2.337,7.146,0,0-7.814-10.419-14.159-9.35-6.412,1.069-12.489,1.736-10.753,6.879s5.276,14.159,11.554,15.762c6.211,1.536,8.415.334,10.152,5.143s22.307,39.872,30.188,38.336,24.444-11.22,26.648-18.7,1.4-12.623,1.4-12.623Z" transform="translate(-308.459 -146.548)"/>
    <path id="Path_1832" data-name="Path 1832" class="cls-4" d="M3681.118,2041s6.746,12.823,5.61,18.9-29.653,17.031-29.653,17.031l-4.675-8.883s17.5-5.61,17.031-9.551-5.811-11.888-5.811-11.888Z" transform="translate(-384.267 -164.987)"/>
    <path id="Path_1833" data-name="Path 1833" class="cls-5" d="M2618.2,1944.606l8.081-3.406,14.092,9.885,2.939,5.009-11.22,14.226S2618.667,1956.227,2618.2,1944.606Z" transform="translate(-40.778 -131.84)"/>
    <path id="Path_1834" data-name="Path 1834" class="cls-5" d="M2657.97,1958.695l9.684,9.016s6.745-19.168,4.942-22.374l-4.675-2.338-7.146,3.339-4.875,10.419Z" transform="translate(-53.299 -132.438)"/>
    <path id="Path_1835" data-name="Path 1835" class="cls-4" d="M2675.157,1880.769s-1.67,21.639-4.809,24.978-6.946,7.079-11.955,7.079c0,0-.134,3.206.4,3.807,0,0-8.215,10.419-13.157,12.957,0,0-16.029-10.819-17.031-14.96,0,0,5.143-5.343,4.475-9.818s-1.937-5.41-1.937-5.41l-5.944-21.639,7.747-13.892L2660,1861.2l6.746,9.551Z" transform="translate(-43.103 -105.269)"/>
    <path id="Path_1836" data-name="Path 1836" class="cls-2" d="M2633.911,1866.42s8.482,3.606,8.95,9.417c0,0,3.272-6.746,2.671-11.955,0,0,23.175,15.962,32.392,8.949,0,0-4.875-1.336-5.209-6.144,0,0,3.339,3.874,6.011,3.74,0,0-6.545-9.35-5.81-14.96s-14.426-20.7-25.713-20.37-28.651,6.612-31.924,17.5,6.612,34.6,12.289,38.736l4.942-3.74s-7.48-5.41-4.208-15.695C2630.237,1866.086,2633.911,1866.42,2633.911,1866.42Z" transform="translate(-39.591 -96.598)"/>
    <path id="Path_1837" data-name="Path 1837" class="cls-4" d="M2654.2,2092.522a13.891,13.891,0,0,0,7.814,2.8c4.341,0,9.551-4.475,11.955-3.94,2.471.534,6.078,4.341,10.285,3.673,4.274-.668,6.746.134,6.812-1.536.134-1.67-4.809-9.551-9.15-10.419s-12.289-7.146-28.919,1.536Z" transform="translate(-52.336 -177.973)"/>
    <path id="Path_1838" data-name="Path 1838" class="cls-5" d="M2564.061,1978.753c-12.823,14.159-15.16,61.578-3.94,82.615,0,0,1.469,5.076,9.551,4.208s50.892-5.944,50.892-5.944,3.072-5.076.134-9.684c0,0-28.451-6.145-40.139-9.283,0,0,12.89-37.935,8.415-46.217s-16.563-21.706-24.845-15.695Z" transform="translate(-19.097 -143.814)"/>
    <path id="Path_1839" data-name="Path 1839" class="cls-8" d="M3563.976,1977.833s-20.9,1.536-31.457,18.7C3521.9,2013.7,3521.9,2014.3,3521.9,2014.3s7.48,16.7,15.562,19.034l12.489-7.948,7.146,58.038s45.215,15.094,63.114-3.339l-10.152-59.841L3622.214,2033s14.96-8.081,16.229-15.294c0,0-9.951-28.318-33.661-37.067C3581.073,1971.956,3563.976,1977.833,3563.976,1977.833Z" transform="translate(-340.924 -143.361)"/>
    <path id="Path_1840" data-name="Path 1840" class="cls-7" d="M3310.008,2119.6H2528.333a.144.144,0,0,0-.134.134v11.087a.144.144,0,0,0,.134.134h781.674a.144.144,0,0,0,.134-.134v-11.087a.144.144,0,0,0-.134-.134Z" transform="translate(-10.886 -191.092)"/>
    <path id="Path_1841" data-name="Path 1841" class="cls-11" d="M3290.344,1833.673l-6.145,7.413,21.439,23.776,10.285-12.088,11.688,9.083,4.274-19.1-7.013-6.478-30.388-5.877Z" transform="translate(-261.977 -95.04)"/>
    <path id="Path_1842" data-name="Path 1842" class="cls-4" d="M3282.9,1756.269s-.935-16.9,6.345-22.04c7.28-5.209,19.368-13.558,28.184-8.348s16.7,7.347,17.966,22.24,4.942,44.146-.468,48.354-8.215,5.076-9.417,5.343l-.267,4.542-10.352,8.148-21.172-14.893s1.135-10.886-2.8-20.971S3281.561,1761.077,3282.9,1756.269Z" transform="translate(-261.475 -59.778)"/>
    <circle id="Ellipse_183" data-name="Ellipse 183" class="cls-12" cx="23.977" cy="23.977" r="23.977" transform="matrix(0.978, -0.21, 0.21, 0.978, 2633.485, 1638.368)"/>
    <path id="Path_1843" data-name="Path 1843" class="cls-13" d="M2730.53,1713.158l-3.874,1.469a1.381,1.381,0,0,0-.8,1.8l4.074,10.686a1.382,1.382,0,0,0,1.8.8l3.874-1.469a1.381,1.381,0,0,0,.8-1.8l-4.074-10.686A1.5,1.5,0,0,0,2730.53,1713.158Z" transform="translate(-76.503 -56.073)"/>
    <path id="Path_1844" data-name="Path 1844" class="cls-13" d="M2752.189,1699.905l-.2.067a2.123,2.123,0,0,0,1.269-2.805,2.146,2.146,0,0,0-2.805-1.269l-6.612,2.471c.334-1.6.668-4.074,0-5.744-1-2.671-3.005-3.54-4.007-3.339a1.7,1.7,0,0,0-1.469,1.87c0,.868,1.069,2.2,1.069,2.8,0,.935-1,2.6-2,5.877a7.91,7.91,0,0,0,.334,5.477l1.4,3.673,1.4,3.673.668,1.67a1.333,1.333,0,0,0,1.737.8l12.222-4.608a1.606,1.606,0,0,0-1.135-3.005l.2-.067a1.966,1.966,0,1,0-1.4-3.673l.668-.267a1.923,1.923,0,1,0-1.336-3.606Z" transform="translate(-80.263 -48.162)"/>
    <circle id="Ellipse_184" data-name="Ellipse 184" class="cls-12" cx="23.977" cy="23.977" r="23.977" transform="matrix(0.601, -0.799, 0.799, 0.601, 3203.661, 1582.586)"/>
    <path id="Path_1845" data-name="Path 1845" class="cls-13" d="M3592.507,1584.558l-3.606-1.937a1.393,1.393,0,0,0-1.87.534l-5.41,10.085a1.392,1.392,0,0,0,.534,1.87l3.606,1.937a1.393,1.393,0,0,0,1.87-.534l5.41-10.085A1.411,1.411,0,0,0,3592.507,1584.558Z" transform="translate(-360.707 -12.692)"/>
    <path id="Path_1846" data-name="Path 1846" class="cls-13" d="M3612.554,1592.274l-.2-.134a2.212,2.212,0,1,0,2.137-3.874l-6.211-3.339c1.4-.8,3.473-2.137,4.341-3.74,1.336-2.471.735-4.608-.067-5.209a1.666,1.666,0,0,0-2.337.067c-.668.6-1,2.271-1.4,2.672-.668.668-2.6.935-5.744,2.337a8.087,8.087,0,0,0-3.94,3.874l-1.87,3.406-1.87,3.406-.868,1.6a1.411,1.411,0,0,0,.534,1.87l11.554,6.211a1.583,1.583,0,1,0,1.469-2.8l.2.134a1.972,1.972,0,0,0,1.87-3.473l.6.334a1.988,1.988,0,0,0,2.671-.8,2.026,2.026,0,0,0-.868-2.538Z" transform="translate(-364.991 -10.391)"/>
    <circle id="Ellipse_185" data-name="Ellipse 185" class="cls-14" cx="30.789" cy="30.789" r="30.789" transform="translate(2828.736 1706.231) rotate(-76.714)"/>
    <path id="Path_1847" data-name="Path 1847" class="cls-13" d="M3058.965,1740.652c0-6.011-4.675-10.352-9.417-10.352a9.022,9.022,0,0,1-17.231,0c-4.742,0-9.417,4.341-9.417,10.352,0,9.15,14.025,19.635,17.5,20.771.067,0,.134.067.2.067.134,0,.2.067.267.067a.4.4,0,0,0,.267-.067c.067,0,.134-.067.2-.067,3.54-1.135,17.632-11.621,17.632-20.771Z" transform="translate(-175.191 -61.794)"/>
    <circle id="Ellipse_186" data-name="Ellipse 186" class="cls-14" cx="28.384" cy="28.384" r="28.384" transform="matrix(0.986, -0.168, 0.168, 0.986, 2495.424, 1670.706)"/>
    <path id="Path_1848" data-name="Path 1848" class="cls-13" d="M2549.525,1750.205c-2.137-5.143-7.68-7.146-11.687-5.41a8.285,8.285,0,0,1-14.56,6.211c-4.007,1.736-6.412,7.013-4.274,12.155,3.272,7.747,18.967,11.621,22.307,11.287h.2c.133,0,.2-.067.267-.067s.133-.067.2-.134.134-.067.134-.134C2544.649,1771.844,2552.8,1757.953,2549.525,1750.205Z" transform="translate(-7.567 -66.405)"/>
    <circle id="Ellipse_187" data-name="Ellipse 187" class="cls-15" cx="17.632" cy="17.632" r="17.632" transform="translate(3112.316 1607.282) rotate(-24.874)"/>
    <path id="Path_1849" data-name="Path 1849" class="cls-16" d="M3469.441,1648.67l-2.137-2.271,3.072-.334a.841.841,0,1,0-.2-1.67l-4.675.534a.963.963,0,0,0-.735.6.821.821,0,0,0,.134.868l3.206,3.406a.568.568,0,0,0,.334.2.748.748,0,0,0,.868-.2.693.693,0,0,0,.134-1.135Z" transform="translate(-321.925 -33.259)"/>
    <path id="Path_1850" data-name="Path 1850" class="cls-16" d="M3441.3,1637.786l3.072-.334-2.137-2.271a.85.85,0,0,1,.066-1.2.8.8,0,0,1,1.2.067l3.206,3.406a.723.723,0,0,1,.134.868.794.794,0,0,1-.735.6l-4.675.534a.85.85,0,0,1-.4-.067.827.827,0,0,1,.267-1.6Z" transform="translate(-313.889 -29.722)"/>
    <path id="Path_1851" data-name="Path 1851" class="cls-16" d="M3437.07,1646.2a11.707,11.707,0,0,0,21.973,8.014Z" transform="translate(-312.53 -33.861)"/>
    <path id="Path_1852" data-name="Path 1852" class="cls-14" d="M3456.2,1660.993a26.459,26.459,0,0,0-9.15-5.476,25.875,25.875,0,0,0-10.552-1.737,11.915,11.915,0,0,0,19.7,7.213Z" transform="translate(-312.56 -36.365)"/>
    <circle id="Ellipse_188" data-name="Ellipse 188" class="cls-15" cx="17.632" cy="17.632" r="17.632" transform="translate(2773.235 1622.509) rotate(-76.178)"/>
    <path id="Path_1853" data-name="Path 1853" class="cls-16" d="M2951.18,1626.071l-3.139.267,1.67-2.671a.825.825,0,1,0-1.4-.868l-2.471,3.94a.935.935,0,0,0,.8,1.4l4.675-.334a.949.949,0,0,0,.4-.133.875.875,0,0,0,.4-.8.936.936,0,0,0-.935-.8Z" transform="translate(-149.554 -25.954)"/>
    <path id="Path_1854" data-name="Path 1854" class="cls-16" d="M2925.3,1642.275l1.67-2.671-3.139.267a.871.871,0,1,1-.134-1.736l4.675-.334a.809.809,0,0,1,.8.468.8.8,0,0,1,0,.935l-2.471,3.94c-.067.134-.2.2-.267.267a.815.815,0,0,1-.868,0,.782.782,0,0,1-.267-1.135Z" transform="translate(-141.974 -31.072)"/>
    <path id="Path_1855" data-name="Path 1855" class="cls-16" d="M2928.8,1645.855a11.7,11.7,0,0,0,19.969-12.155Z" transform="translate(-143.938 -29.71)"/>
    <path id="Path_1856" data-name="Path 1856" class="cls-14" d="M2952.066,1641.1a26.5,26.5,0,0,0-10.018,3.74,26.992,26.992,0,0,0-7.948,7.146,11.815,11.815,0,0,0,12.222-.067A11.951,11.951,0,0,0,2952.066,1641.1Z" transform="translate(-145.698 -32.168)"/>
    <circle id="Ellipse_189" data-name="Ellipse 189" class="cls-15" cx="27.85" cy="27.85" r="27.85" transform="translate(2930.124 1546.553)"/>
    <path id="Path_1857" data-name="Path 1857" class="cls-16" d="M3204.356,1592.619c1.937,6.011.534,11.821-3.072,12.957s-8.081-2.8-10.018-8.816-.534-11.821,3.072-12.957S3202.486,1586.608,3204.356,1592.619Z" transform="translate(-230.821 -13.073)"/>
    <ellipse id="Ellipse_190" data-name="Ellipse 190" class="cls-16" cx="4.074" cy="5.677" rx="4.074" ry="5.677" transform="translate(2967.687 1556.05) rotate(-17.643)"/>
    <ellipse id="Ellipse_191" data-name="Ellipse 191" class="cls-16" cx="4.074" cy="5.677" rx="4.074" ry="5.677" transform="matrix(0.984, -0.179, 0.179, 0.984, 2945.136, 1563.032)"/>
    <path id="Path_1858" data-name="Path 1858" class="cls-16" d="M3166.83,1567.607a1.3,1.3,0,0,1-.868-.067,1.178,1.178,0,0,1-.534-1.6,7.457,7.457,0,0,1,3.673-3.406,8.192,8.192,0,0,1,4.742.067,1.228,1.228,0,1,1-.935,2.271,4.821,4.821,0,0,0-3.005-.067,5.11,5.11,0,0,0-2.338,2.271A1.074,1.074,0,0,1,3166.83,1567.607Z" transform="translate(-222.481 -5.96)"/>
    <path id="Path_1859" data-name="Path 1859" class="cls-16" d="M3207.993,1553.948a1.73,1.73,0,0,0,.735-.468,1.177,1.177,0,0,0-.267-1.67,7.484,7.484,0,0,0-4.875-1.336,7.566,7.566,0,0,0-4.141,2.271,1.231,1.231,0,1,0,1.87,1.6,4.926,4.926,0,0,1,2.6-1.469,5.1,5.1,0,0,1,3.072.868,1.316,1.316,0,0,0,1,.2Z" transform="translate(-233.723 -2.052)"/>
    <circle id="Ellipse_192" data-name="Ellipse 192" class="cls-15" cx="21.973" cy="21.973" r="21.973" transform="translate(3230.398 1665.902)"/>
    <path id="Path_1860" data-name="Path 1860" class="cls-16" d="M3632.984,1770.776c-2,4.542-5.877,7.213-8.615,6.011s-3.272-5.877-1.269-10.419,5.877-7.213,8.615-6.011S3634.988,1766.234,3632.984,1770.776Z" transform="translate(-374.135 -71.681)"/>
    <ellipse id="Ellipse_193" data-name="Ellipse 193" class="cls-16" cx="4.475" cy="3.273" rx="4.475" ry="3.273" transform="translate(3264.002 1690.292) rotate(-65.826)"/>
    <ellipse id="Ellipse_194" data-name="Ellipse 194" class="cls-16" cx="4.475" cy="3.273" rx="4.475" ry="3.273" transform="translate(3246.089 1682.101) rotate(-58.486)"/>
    <path id="Path_1861" data-name="Path 1861" class="cls-16" d="M3626.634,1736.209a1.237,1.237,0,0,1-.468-.534,1.014,1.014,0,0,1,.534-1.269,5.915,5.915,0,0,1,3.94-.067,6.082,6.082,0,0,1,2.738,2.538.941.941,0,0,1-1.67.868,3.544,3.544,0,0,0-1.737-1.6,3.858,3.858,0,0,0-2.538.134A1.087,1.087,0,0,1,3626.634,1736.209Z" transform="translate(-375.532 -63.027)"/>
    <path id="Path_1862" data-name="Path 1862" class="cls-16" d="M3658.338,1749.595a.79.79,0,0,0,.668.067.959.959,0,0,0,.735-1.135,5.976,5.976,0,0,0-2.137-3.339,5.786,5.786,0,0,0-3.606-.8.945.945,0,1,0,.267,1.87,4.028,4.028,0,0,1,2.338.534,3.859,3.859,0,0,1,1.336,2.137.67.67,0,0,0,.4.668Z" transform="translate(-384.529 -66.462)"/>
    <circle id="Ellipse_195" data-name="Ellipse 195" class="cls-15" cx="13.892" cy="13.892" r="13.892" transform="translate(2579.693 1574.136)"/>
    <path id="Path_1863" data-name="Path 1863" class="cls-16" d="M2645,1617.126c-1.269,2.872-3.74,4.542-5.476,3.807-1.737-.8-2.071-3.74-.8-6.612s3.74-4.542,5.477-3.807C2645.932,1611.315,2646.266,1614.254,2645,1617.126Z" transform="translate(-47.338 -21.952)"/>
    <ellipse id="Ellipse_196" data-name="Ellipse 196" class="cls-16" cx="2.805" cy="2.07" rx="2.805" ry="2.07" transform="translate(2600.92 1589.61) rotate(-65.826)"/>
    <ellipse id="Ellipse_197" data-name="Ellipse 197" class="cls-16" cx="2.805" cy="2.07" rx="2.805" ry="2.07" transform="translate(2589.593 1584.445) rotate(-58.486)"/>
    <path id="Path_1864" data-name="Path 1864" class="cls-16" d="M2641.046,1595.2a.668.668,0,0,1-.267-.334.646.646,0,0,1,.334-.8,3.632,3.632,0,0,1,2.538-.067,3.939,3.939,0,0,1,1.736,1.6.6.6,0,1,1-1.068.534,2.473,2.473,0,0,0-1.069-1,3.04,3.04,0,0,0-1.6.067q-.4.2-.6,0Z" transform="translate(-48.263 -16.455)"/>
    <path id="Path_1865" data-name="Path 1865" class="cls-16" d="M2661.067,1603.767a.846.846,0,0,0,.4.067.615.615,0,0,0,.468-.735,3.206,3.206,0,0,0-3.606-2.6.6.6,0,1,0,.134,1.2,2.668,2.668,0,0,1,1.469.334,2.636,2.636,0,0,1,.868,1.336A.366.366,0,0,0,2661.067,1603.767Z" transform="translate(-53.925 -18.678)"/>
    <circle id="Ellipse_198" data-name="Ellipse 198" class="cls-13" cx="3.139" cy="3.139" r="3.139" transform="translate(2769.769 1867.064)"/>
    <path id="Path_1866" data-name="Path 1866" class="cls-2" d="M3292.465,1786.038s4.542-7.747,4.542-12.289-3.874-7.146-3.874-7.146-5.209-5.81-1.269-7.146,6.478,0,7.146,1.937a46.264,46.264,0,0,1,1.269,5.209s-.668-15.561,4.542-17.5,24.778-6.011,30.188-2.338c0,0-1.069-15.094-8.816-18.366l3.206,1.269s-9.083-11.02-17.5-9.083c0,0-26.514,4.542-29.119,23.91,0,0-3.206,10.352.668,16.83,3.874,6.612,9.016,24.711,9.016,24.711Z" transform="translate(-261.092 -58.492)"/>
    <path id="Path_1867" data-name="Path 1867" class="cls-17" d="M3570.737,1895.282s-14.894-5.209-12.289-11.621c0,0,1.937,3.874,7.747,0s29.119-17.5,44.012,4.542c0,0,5.811,6.478,3.206,14.894,0,0,1.937.668,0,5.81s-6.478,19.435-14.894,23.91c0,0-15.561,0-17.5-5.81s5.81-8.415,5.81-8.415,11.02-4.542,7.146-7.747-6.478-3.206-7.747-1.937a18.363,18.363,0,0,0-2.6,4.542s1.937-16.162-3.874-16.162c-5.811-.067-9.016-2-9.016-2Z" transform="translate(-352.961 -110.165)"/>
  </g>
</svg>
