<svg width="136" height="136" viewBox="0 0 136 136" fill="none" xmlns="http://www.w3.org/2000/svg">
<g filter="url(#filter0_d)">
<rect x="36" y="25" width="64" height="64" rx="18" fill="white"/>
</g>
<g clip-path="url(#clip0)">
<path d="M61.6386 43.5945C62.0241 42.5824 62.5542 41.6507 63.3414 40.8957C66.49 37.8274 71.6948 38.5985 73.8314 42.4539C75.4378 45.3776 77.1406 48.237 78.7952 51.1286C81.5583 55.9318 84.3534 60.735 87.0844 65.5543C89.3816 69.5864 86.8916 74.6788 82.3293 75.3696C79.5342 75.7872 76.9157 74.5021 75.4699 71.9961C73.0442 67.7712 70.6024 63.5463 68.1767 59.3374C68.1285 59.2411 68.0643 59.1607 68 59.0804C67.743 58.8716 67.6306 58.5664 67.4699 58.2933C66.3936 56.3977 65.2852 54.5182 64.2089 52.6386C63.5181 51.4178 62.7952 50.2129 62.1044 48.9921C61.4779 47.8997 61.1888 46.7109 61.2209 45.4579C61.2691 44.8153 61.3494 44.1728 61.6386 43.5945Z" fill="#3C8BD9"/>
<path d="M61.6386 43.5947C61.494 44.173 61.3655 44.7514 61.3334 45.3618C61.2852 46.7112 61.6225 47.9642 62.2972 49.1369C64.0643 52.173 65.8314 55.2253 67.5824 58.2775C67.743 58.5506 67.8715 58.8236 68.0322 59.0807C67.0683 60.7514 66.1044 62.406 65.1245 64.0767C63.7751 66.406 62.4257 68.7514 61.0603 71.0807C60.996 71.0807 60.98 71.0485 60.9639 71.0004C60.9478 70.8718 60.996 70.7594 61.0281 70.6309C61.6868 68.2212 61.1406 66.0847 59.486 64.2534C58.4739 63.1449 57.1888 62.5184 55.7109 62.3096C53.7832 62.0365 52.0804 62.5345 50.5542 63.7393C50.2812 63.9481 50.1045 64.2534 49.7832 64.414C49.7189 64.414 49.6868 64.3819 49.6707 64.3337C50.4418 63.0004 51.1968 61.667 51.9679 60.3337C55.1486 54.8076 58.3293 49.2815 61.5261 43.7714C61.5583 43.7072 61.6065 43.659 61.6386 43.5947Z" fill="#FABC04"/>
<path d="M49.735 64.3815C50.0402 64.1084 50.3293 63.8192 50.6506 63.5622C54.5542 60.4779 60.4177 62.7108 61.2691 67.5943C61.4779 68.767 61.3655 69.8915 61.0121 71.016C60.996 71.1124 60.9799 71.1927 60.9478 71.2891C60.8032 71.5461 60.6747 71.8192 60.5141 72.0763C59.0844 74.4377 56.9799 75.6104 54.2169 75.4337C51.0522 75.2088 48.5623 72.8313 48.1285 69.6827C47.9197 68.1566 48.2249 66.7269 49.0121 65.4096C49.1727 65.1204 49.3655 64.8634 49.5422 64.5743C49.6225 64.51 49.5904 64.3815 49.735 64.3815Z" fill="#34A852"/>
<path d="M49.735 64.3816C49.6707 64.4459 49.6707 64.5583 49.5583 64.5744C49.5422 64.462 49.6065 64.3977 49.6707 64.3174L49.735 64.3816Z" fill="#FABC04"/>
<path d="M60.9478 71.2892C60.8836 71.1768 60.9478 71.0964 61.0121 71.0161C61.0281 71.0322 61.0603 71.0643 61.0763 71.0804L60.9478 71.2892Z" fill="#E1C025"/>
</g>
<defs>
<filter id="filter0_d" x="0" y="0" width="136" height="136" filterUnits="userSpaceOnUse" color-interpolation-filters="sRGB">
<feFlood flood-opacity="0" result="BackgroundImageFix"/>
<feColorMatrix in="SourceAlpha" type="matrix" values="0 0 0 0 0 0 0 0 0 0 0 0 0 0 0 0 0 0 127 0"/>
<feOffset dy="11"/>
<feGaussianBlur stdDeviation="18"/>
<feColorMatrix type="matrix" values="0 0 0 0 0.850972 0 0 0 0 0.866761 0 0 0 0 0.907361 0 0 0 1 0"/>
<feBlend mode="normal" in2="BackgroundImageFix" result="effect1_dropShadow"/>
<feBlend mode="normal" in="SourceGraphic" in2="effect1_dropShadow" result="shape"/>
</filter>
<clipPath id="clip0">
<rect x="48" y="39" width="40" height="36.4659" fill="white"/>
</clipPath>
</defs>
</svg>
