<svg width="44" height="24" viewBox="0 0 44 24" fill="none" xmlns="http://www.w3.org/2000/svg">
<rect width="44" height="24" rx="6" fill="#E96458"/>
<path d="M14.93 12.996H11.206V17H9.078V7.228H11.206V11.12H14.93V7.228H17.058V17H14.93V12.996ZM23.1289 17.168C22.4849 17.168 21.8969 17.0607 21.3649 16.846C20.8329 16.6313 20.3802 16.314 20.0069 15.894C19.6335 15.4647 19.3442 14.9373 19.1389 14.312C18.9335 13.6773 18.8309 12.9447 18.8309 12.114C18.8309 11.2833 18.9335 10.5553 19.1389 9.93C19.3442 9.29533 19.6335 8.768 20.0069 8.348C20.3802 7.91867 20.8329 7.59667 21.3649 7.382C21.8969 7.16733 22.4849 7.06 23.1289 7.06C23.7729 7.06 24.3609 7.16733 24.8929 7.382C25.4249 7.59667 25.8775 7.91867 26.2509 8.348C26.6242 8.768 26.9135 9.29533 27.1189 9.93C27.3242 10.5553 27.4269 11.2833 27.4269 12.114C27.4269 12.9447 27.3242 13.6773 27.1189 14.312C26.9135 14.9373 26.6242 15.4647 26.2509 15.894C25.8775 16.314 25.4249 16.6313 24.8929 16.846C24.3609 17.0607 23.7729 17.168 23.1289 17.168ZM23.1289 15.278C23.7729 15.278 24.2722 15.068 24.6269 14.648C24.9909 14.228 25.1729 13.626 25.1729 12.842V11.386C25.1729 10.602 24.9909 10 24.6269 9.58C24.2722 9.16 23.7729 8.95 23.1289 8.95C22.4849 8.95 21.9809 9.16 21.6169 9.58C21.2622 10 21.0849 10.602 21.0849 11.386V12.842C21.0849 13.626 21.2622 14.228 21.6169 14.648C21.9809 15.068 22.4849 15.278 23.1289 15.278ZM32.9215 9.118V17H30.7935V9.118H28.1475V7.228H35.5675V9.118H32.9215Z" fill="white"/>
</svg>
