<svg width="136" height="136" viewBox="0 0 136 136" fill="none" xmlns="http://www.w3.org/2000/svg">
<g filter="url(#filter0_d)">
<rect x="36" y="25" width="64" height="64" rx="18" fill="white"/>
</g>
<rect x="73.6781" y="66.6201" width="5.54052" height="14.3673" transform="rotate(-45 73.6781 66.6201)" fill="#6398F1"/>
<path fill-rule="evenodd" clip-rule="evenodd" d="M65 70C73.8366 70 81 62.8366 81 54C81 45.1634 73.8366 38 65 38C56.1634 38 49 45.1634 49 54C49 62.8366 56.1634 70 65 70ZM65 65C71.0751 65 76 60.0751 76 54C76 47.9249 71.0751 43 65 43C58.9249 43 54 47.9249 54 54C54 60.0751 58.9249 65 65 65Z" fill="#58B470"/>
<path fill-rule="evenodd" clip-rule="evenodd" d="M49 54H54C54 47.9249 58.9249 43 65 43V38C56.1634 38 49 45.1634 49 54Z" fill="#F7C431"/>
<path fill-rule="evenodd" clip-rule="evenodd" d="M81 54H76C76 47.9249 71.0751 43 65 43V38C73.8366 38 81 45.1634 81 54Z" fill="#E96458"/>
<path fill-rule="evenodd" clip-rule="evenodd" d="M81 54C81 62.8366 73.8366 70 65 70V65C71.0751 65 76 60.0751 76 54H81Z" fill="#6398F1"/>
<defs>
<filter id="filter0_d" x="0" y="0" width="136" height="136" filterUnits="userSpaceOnUse" color-interpolation-filters="sRGB">
<feFlood flood-opacity="0" result="BackgroundImageFix"/>
<feColorMatrix in="SourceAlpha" type="matrix" values="0 0 0 0 0 0 0 0 0 0 0 0 0 0 0 0 0 0 127 0"/>
<feOffset dy="11"/>
<feGaussianBlur stdDeviation="18"/>
<feColorMatrix type="matrix" values="0 0 0 0 0.850972 0 0 0 0 0.866761 0 0 0 0 0.907361 0 0 0 1 0"/>
<feBlend mode="normal" in2="BackgroundImageFix" result="effect1_dropShadow"/>
<feBlend mode="normal" in="SourceGraphic" in2="effect1_dropShadow" result="shape"/>
</filter>
</defs>
</svg>
