<svg width="136" height="136" viewBox="0 0 136 136" fill="none" xmlns="http://www.w3.org/2000/svg">
<g filter="url(#filter0_d)">
<rect x="36" y="25" width="64" height="64" rx="18" fill="white"/>
</g>
<g clip-path="url(#clip0)">
<path d="M48.18 56.16L66.17 38.17C66.9 37.45 67.9 37 69 37H83C85.21 37 87 38.79 87 41V55C87 56.11 86.55 57.11 85.82 57.83L67.82 75.83C67.1 76.55 66.1 77 65 77C63.9 77 62.89 76.55 62.17 75.83L48.17 61.83C47.45 61.1 47 60.1001 47 59C47 57.89 47.45 56.89 48.18 56.16ZM80 47C81.66 47 83 45.6601 83 44C83 42.34 81.66 41 80 41C78.3399 41 77 42.34 77 44C77 45.6601 78.34 47 80 47Z" fill="black"/>
<path d="M48.18 56.16L66.17 38.17C66.9 37.45 67.9 37 69 37H83C85.21 37 87 38.79 87 41V55C87 56.11 86.55 57.11 85.82 57.83L67.82 75.83C67.1 76.55 66.1 77 65 77C63.9 77 62.89 76.55 62.17 75.83L48.17 61.83C47.45 61.1 47 60.1001 47 59C47 57.89 47.45 56.89 48.18 56.16ZM80 47C81.66 47 83 45.6601 83 44C83 42.34 81.66 41 80 41C78.3399 41 77 42.34 77 44C77 45.6601 78.34 47 80 47Z" fill="black"/>
<path fill-rule="evenodd" clip-rule="evenodd" d="M54.8624 68.5225L62.17 75.8301C62.89 76.5501 63.9 77.0001 65 77.0001C66.1 77.0001 67.1 76.5501 67.82 75.8301L85.82 57.8301C86.55 57.1101 87 56.11 87 55V41.0001C87 39.7382 86.4165 38.6134 85.5045 37.8804L81.7925 41.5923C82.526 42.1386 83 43.0127 83 44.0001C83 45.6601 81.66 47.0001 80 47.0001C79.0127 47.0001 78.1386 46.5261 77.5922 45.7926L54.8624 68.5225Z" fill="#6398F1"/>
<path d="M48.18 56.16L66.17 38.17C66.9 37.45 67.9 37 69 37H83C85.21 37 87 38.79 87 41V55C87 56.11 86.55 57.11 85.82 57.83L67.82 75.83C67.1 76.55 66.1 77 65 77C63.9 77 62.89 76.55 62.17 75.83L48.17 61.83C47.45 61.1 47 60.1001 47 59C47 57.89 47.45 56.89 48.18 56.16ZM80 47C81.66 47 83 45.6601 83 44C83 42.34 81.66 41 80 41C78.3399 41 77 42.34 77 44C77 45.6601 78.34 47 80 47Z" fill="#E96458"/>
<path fill-rule="evenodd" clip-rule="evenodd" d="M54.8624 68.5225L62.17 75.8301C62.89 76.5501 63.9 77.0001 65 77.0001C66.1 77.0001 67.1 76.5501 67.82 75.8301L85.82 57.8301C86.55 57.1101 87 56.11 87 55V41.0001C87 39.7382 86.4165 38.6134 85.5045 37.8804L81.7925 41.5923C82.526 42.1386 83 43.0127 83 44.0001C83 45.6601 81.66 47.0001 80 47.0001C79.0127 47.0001 78.1386 46.5261 77.5922 45.7926L54.8624 68.5225Z" fill="#6398F1"/>
<path fill-rule="evenodd" clip-rule="evenodd" d="M77.5169 66.1341L67.82 75.831C67.1 76.551 66.1 77.001 65 77.001C63.9 77.001 62.89 76.551 62.17 75.831L54.8624 68.5234L67.3843 56.0015L77.5169 66.1341Z" fill="#58B470"/>
<path fill-rule="evenodd" clip-rule="evenodd" d="M57.8624 46.4775L48.18 56.1599C47.45 56.8899 47 57.8899 47 58.9999C47 60.1 47.45 61.0999 48.17 61.83L54.8594 68.5194L67.3818 55.997L57.8624 46.4775Z" fill="#F7C431"/>
<circle cx="67.5" cy="56.5" r="7.5" fill="#6398F1"/>
<path d="M67 55.2V58.8H72.0922C71.3488 60.8952 69.3472 62.4 67 62.4C64.0228 62.4 61.6 59.9772 61.6 57C61.6 54.0228 64.0228 51.6 67 51.6C68.2906 51.6 69.5326 52.0626 70.4974 52.9032L72.8626 50.1888C71.2426 48.7776 69.1618 48 67 48C62.0374 48 58 52.0374 58 57C58 61.9626 62.0374 66 67 66C71.9626 66 76 61.9626 76 57V55.2H67Z" fill="white"/>
</g>
<defs>
<filter id="filter0_d" x="0" y="0" width="136" height="136" filterUnits="userSpaceOnUse" color-interpolation-filters="sRGB">
<feFlood flood-opacity="0" result="BackgroundImageFix"/>
<feColorMatrix in="SourceAlpha" type="matrix" values="0 0 0 0 0 0 0 0 0 0 0 0 0 0 0 0 0 0 127 0"/>
<feOffset dy="11"/>
<feGaussianBlur stdDeviation="18"/>
<feColorMatrix type="matrix" values="0 0 0 0 0.850972 0 0 0 0 0.866761 0 0 0 0 0.907361 0 0 0 1 0"/>
<feBlend mode="normal" in2="BackgroundImageFix" result="effect1_dropShadow"/>
<feBlend mode="normal" in="SourceGraphic" in2="effect1_dropShadow" result="shape"/>
</filter>
<clipPath id="clip0">
<rect x="47" y="37" width="40" height="40" fill="white"/>
</clipPath>
</defs>
</svg>
