<svg id="Layer_1" data-name="Layer 1" xmlns="http://www.w3.org/2000/svg" viewBox="0 0 232.81 56.94"><defs><style>.cls-1{fill:#757575;}.cls-2{fill:#008ccf;}.cls-3{fill:#ef4937;}.cls-4{fill:#eb4435;}.cls-5{fill:#3bb34b;}.cls-6{fill:#feba12;}</style></defs><title>Heading-01</title><path class="cls-1" d="M99.77,33.18a9.28,9.28,0,0,1-3.47-3.51,9.79,9.79,0,0,1-1.27-5,9.79,9.79,0,0,1,1.27-5,9.19,9.19,0,0,1,3.47-3.5A9.62,9.62,0,0,1,104.7,15a9.14,9.14,0,0,1,3.81.78,8.54,8.54,0,0,1,3,2.27l-1.59,1.53a7,7,0,0,0-2.33-1.87,6.68,6.68,0,0,0-2.9-.6A7.52,7.52,0,0,0,101,18a7,7,0,0,0-2.69,2.68,7.85,7.85,0,0,0-1,4,7.85,7.85,0,0,0,1,4A7,7,0,0,0,101,31.39a7.42,7.42,0,0,0,3.73,1,7.31,7.31,0,0,0,5.75-2.78l1.62,1.56a9.22,9.22,0,0,1-3.19,2.43,10.18,10.18,0,0,1-9.11-.37Z" transform="translate(-63.19 -11.74)"/><path class="cls-1" d="M116.89,33.51A6.58,6.58,0,0,1,114.45,31a7.76,7.76,0,0,1,0-7.14,6.89,6.89,0,0,1,9.47-2.55,6.64,6.64,0,0,1,2.44,2.55,7.76,7.76,0,0,1,0,7.14,6.51,6.51,0,0,1-2.44,2.55,7,7,0,0,1-7,0Zm5.8-1.68a4.52,4.52,0,0,0,1.69-1.75,6,6,0,0,0,0-5.37A4.62,4.62,0,0,0,122.69,23a4.48,4.48,0,0,0-2.28-.61,4.55,4.55,0,0,0-2.3.61,4.5,4.5,0,0,0-1.7,1.76,6,6,0,0,0,0,5.37,4.41,4.41,0,0,0,1.7,1.75,4.56,4.56,0,0,0,2.3.62A4.49,4.49,0,0,0,122.69,31.83Zm-3.25-17h2l2.65,3V18h-2.13l-1.41-1.66h-.21L118.92,18h-2.13v-.13Z" transform="translate(-63.19 -11.74)"/><path class="cls-1" d="M131.66,20.75V22.7h.11A4.46,4.46,0,0,1,133.51,21a5,5,0,0,1,2.55-.7,4.68,4.68,0,0,1,3.66,1.4A5.44,5.44,0,0,1,141,25.52V34h-2.22V25.86a3.55,3.55,0,0,0-.88-2.69,3.43,3.43,0,0,0-2.43-.83,3.21,3.21,0,0,0-1.91.6,4,4,0,0,0-1.32,1.58,4.68,4.68,0,0,0-.46,2V34h-2.22V20.75Z" transform="translate(-63.19 -11.74)"/><path class="cls-1" d="M146,39a5.26,5.26,0,0,1-2-2.63l2-.86a3.85,3.85,0,0,0,1.44,1.87,4.22,4.22,0,0,0,2.44.71,4.17,4.17,0,0,0,3.19-1.2,4.68,4.68,0,0,0,1.13-3.38V32h-.1a4.87,4.87,0,0,1-1.84,1.66,5.66,5.66,0,0,1-2.69.64,5.82,5.82,0,0,1-3.14-.89,6.26,6.26,0,0,1-2.25-2.47,8.2,8.2,0,0,1,0-7.23,6.18,6.18,0,0,1,2.25-2.49,5.82,5.82,0,0,1,3.14-.89,5.66,5.66,0,0,1,2.69.64,4.84,4.84,0,0,1,1.84,1.68h.1v-1.9h2.11V33.51a6.43,6.43,0,0,1-1.77,4.89A7.33,7.33,0,0,1,146,39Zm6-7.29A4.23,4.23,0,0,0,153.61,30a5.63,5.63,0,0,0,.58-2.65,5.74,5.74,0,0,0-.58-2.69,4.18,4.18,0,0,0-1.57-1.7,4.29,4.29,0,0,0-4.36,0,4.23,4.23,0,0,0-1.57,1.72,5.67,5.67,0,0,0-.59,2.66,5.77,5.77,0,0,0,.59,2.67,4.12,4.12,0,0,0,3.76,2.3A4.05,4.05,0,0,0,152,31.69Z" transform="translate(-63.19 -11.74)"/><path class="cls-1" d="M168.18,33.53A6.47,6.47,0,0,1,165.79,31a7.44,7.44,0,0,1-.86-3.61,7.53,7.53,0,0,1,.86-3.62,6.31,6.31,0,0,1,2.39-2.52,6.67,6.67,0,0,1,3.47-.92,6.28,6.28,0,0,1,3.63,1,5.53,5.53,0,0,1,2.1,2.67l-2,.83A3.84,3.84,0,0,0,173.9,23a4.19,4.19,0,0,0-2.36-.64,4,4,0,0,0-2.18.64,4.61,4.61,0,0,0-1.63,1.78,6,6,0,0,0,0,5.26,4.64,4.64,0,0,0,1.63,1.79,4,4,0,0,0,2.18.64A4.45,4.45,0,0,0,174,31.8,4,4,0,0,0,175.48,30l2,.83a5.88,5.88,0,0,1-2.18,2.66,6.37,6.37,0,0,1-3.63,1A6.67,6.67,0,0,1,168.18,33.53Z" transform="translate(-63.19 -11.74)"/><path class="cls-1" d="M181,33.05a5.7,5.7,0,0,1-1.26-3.94V20.75H182v8a3.9,3.9,0,0,0,.86,2.79,3.1,3.1,0,0,0,2.32.89,3.47,3.47,0,0,0,2-.6,4,4,0,0,0,1.35-1.57,4.46,4.46,0,0,0,.48-2v-7.5h2.22V34h-2.11V32.11H189a4.39,4.39,0,0,1-1.74,1.67,5.13,5.13,0,0,1-2.56.67A4.71,4.71,0,0,1,181,33.05Zm3.51,5.57a1.35,1.35,0,0,1-.42-1,1.29,1.29,0,0,1,.42-1,1.41,1.41,0,0,1,1-.39,1.33,1.33,0,0,1,1.38,1.38,1.41,1.41,0,0,1-.39,1,1.29,1.29,0,0,1-1,.42A1.35,1.35,0,0,1,184.52,38.62Z" transform="translate(-63.19 -11.74)"/><path class="cls-1" d="M204.12,34a3.27,3.27,0,0,1-1.16-.7,3.6,3.6,0,0,1-1-2.73V22.76H199.6v-2h2.32V17h2.21v3.75h3.26v2h-3.26V30a2.52,2.52,0,0,0,.42,1.61,1.8,1.8,0,0,0,1.43.58,2.5,2.5,0,0,0,1.46-.45v2.17a3.85,3.85,0,0,1-.79.26,5.86,5.86,0,0,1-1,.07A4.08,4.08,0,0,1,204.12,34Z" transform="translate(-63.19 -11.74)"/><path class="cls-1" d="M212.08,33.51A6.58,6.58,0,0,1,209.64,31a7.76,7.76,0,0,1,0-7.14,6.89,6.89,0,0,1,9.47-2.55,6.64,6.64,0,0,1,2.44,2.55,7.76,7.76,0,0,1,0,7.14,6.51,6.51,0,0,1-2.44,2.55,7,7,0,0,1-7,0Zm5.8-1.68a4.52,4.52,0,0,0,1.69-1.75,6,6,0,0,0,0-5.37A4.62,4.62,0,0,0,217.88,23a4.48,4.48,0,0,0-2.28-.61,4.55,4.55,0,0,0-2.3.61,4.5,4.5,0,0,0-1.7,1.76,6,6,0,0,0,0,5.37,4.41,4.41,0,0,0,1.7,1.75,4.56,4.56,0,0,0,2.3.62A4.49,4.49,0,0,0,217.88,31.83Zm-3.25-17h2l2.68,3V18h-2.14l-1.43-1.51h-.21L214.11,18H212v-.13Zm6.75-3.13-1.8,3.18h-1.8L219,11.74Z" transform="translate(-63.19 -11.74)"/><path class="cls-1" d="M224.92,17.83a1.58,1.58,0,0,1,0-2.25,1.64,1.64,0,0,1,2.26,0,1.63,1.63,0,0,1,0,2.25,1.59,1.59,0,0,1-2.26,0Zm2.24,2.92V34H225V20.75Z" transform="translate(-63.19 -11.74)"/><path class="cls-1" d="M237.83,33.05a5.7,5.7,0,0,1-1.26-3.94V20.75h2.21v8a3.9,3.9,0,0,0,.86,2.79,3.09,3.09,0,0,0,2.32.89,3.41,3.41,0,0,0,2-.6,4.06,4.06,0,0,0,1.36-1.57,4.46,4.46,0,0,0,.48-2v-7.5h2.5c.64,0,1-.35,1-1V17.94H251v1.77a2.74,2.74,0,0,1-.67,2,2.81,2.81,0,0,1-2.06.67H248V34h-2.11V32.11h-.1A4.49,4.49,0,0,1,244,33.78a5.09,5.09,0,0,1-2.55.67A4.68,4.68,0,0,1,237.83,33.05Z" transform="translate(-63.19 -11.74)"/><path class="cls-1" d="M253.51,33.05a5.7,5.7,0,0,1-1.26-3.94V20.75h2.21v8a3.9,3.9,0,0,0,.86,2.79,3.1,3.1,0,0,0,2.32.89,3.41,3.41,0,0,0,2-.6A4,4,0,0,0,261,30.28a4.46,4.46,0,0,0,.48-2v-7.5h2.22V34h-2.11V32.11h-.11a4.46,4.46,0,0,1-1.74,1.67,5.13,5.13,0,0,1-2.56.67A4.71,4.71,0,0,1,253.51,33.05Z" transform="translate(-63.19 -11.74)"/><path class="cls-1" d="M202,43.41,208,58.7h.1L214,43.41h3.2V62.06H215V50.2l.11-3.54H215l-6.09,15.4h-1.82L201,46.66h-.1l.1,3.54V62.06h-2.19V43.41Z" transform="translate(-63.19 -11.74)"/><path class="cls-1" d="M221.13,45.85a1.58,1.58,0,0,1,0-2.25,1.57,1.57,0,0,1,1.12-.46,1.55,1.55,0,0,1,1.13.46,1.61,1.61,0,0,1,0,2.25,1.48,1.48,0,0,1-1.13.47A1.5,1.5,0,0,1,221.13,45.85Zm2.24,2.92V62.06h-2.21V48.77Z" transform="translate(-63.19 -11.74)"/><path class="cls-1" d="M229.21,61.56a6.34,6.34,0,0,1-2.36-2.51,7.66,7.66,0,0,1-.85-3.61,8,8,0,0,1,.8-3.53,6.32,6.32,0,0,1,2.26-2.59,6.08,6.08,0,0,1,3.38-1,6.37,6.37,0,0,1,3.38.88A5.79,5.79,0,0,1,238,51.64a7.74,7.74,0,0,1,.76,3.51,4.11,4.11,0,0,1,0,.68H228.22a5.14,5.14,0,0,0,.73,2.55A4.2,4.2,0,0,0,230.6,60a4.59,4.59,0,0,0,2.1.52,4.25,4.25,0,0,0,3.93-2.4l1.88.91a6.61,6.61,0,0,1-2.32,2.54,6.51,6.51,0,0,1-3.57.95A6.42,6.42,0,0,1,229.21,61.56ZM236,52.34a3.63,3.63,0,0,0-1.3-1.41,4.07,4.07,0,0,0-2.24-.57,3.79,3.79,0,0,0-2.66,1A4.75,4.75,0,0,0,228.35,54h8.1A4.38,4.38,0,0,0,236,52.34Zm-6.58-12a2.32,2.32,0,0,1,1.63-.61,2.53,2.53,0,0,1,.85.13,7.65,7.65,0,0,1,.82.36,5.05,5.05,0,0,0,.53.24,1.4,1.4,0,0,0,.51.1c.47,0,.76-.28.86-.83h1.59a2.16,2.16,0,0,1-.67,1.68,2.28,2.28,0,0,1-1.62.61,2.73,2.73,0,0,1-.89-.13,6.33,6.33,0,0,1-.83-.36,2.26,2.26,0,0,0-1-.34c-.47,0-.76.28-.86.83h-1.59A2.18,2.18,0,0,1,229.4,40.37Zm2.07,2.54h2l2.68,3v.13H234l-1.43-1.48h-.21L231,46.06h-2.13v-.13Z" transform="translate(-63.19 -11.74)"/><path class="cls-1" d="M243.48,48.77v1.95h.11A4.48,4.48,0,0,1,245.33,49a5,5,0,0,1,2.56-.69,4.71,4.71,0,0,1,3.66,1.4,5.44,5.44,0,0,1,1.26,3.79v8.52H250.6V53.88a3.56,3.56,0,0,0-.89-2.69,3.42,3.42,0,0,0-2.42-.83,3.24,3.24,0,0,0-1.92.6,4,4,0,0,0-1.31,1.58,4.69,4.69,0,0,0-.47,2v7.48h-2.22V48.77Z" transform="translate(-63.19 -11.74)"/><path class="cls-1" d="M268.75,43.41a6.05,6.05,0,0,1,2.89.7,5.36,5.36,0,0,1,2.12,2,5.48,5.48,0,0,1,0,5.7,5.44,5.44,0,0,1-2.12,2,6.17,6.17,0,0,1-2.89.7h-4.06v7.61h-2.22V43.41Zm1.89,8.43a3.59,3.59,0,0,0,1.24-1.27,3.28,3.28,0,0,0,0-3.28A3.62,3.62,0,0,0,270.64,46a3.4,3.4,0,0,0-1.84-.49h-4.11v6.82h4.11A3.4,3.4,0,0,0,270.64,51.84Z" transform="translate(-63.19 -11.74)"/><path class="cls-1" d="M279.38,43.41V48.9l-.1,1.82h.1A4.33,4.33,0,0,1,281.11,49a5.17,5.17,0,0,1,2.6-.68,4.73,4.73,0,0,1,3.69,1.42,5.43,5.43,0,0,1,1.28,3.77v8.52h-2.21V53.88a3.49,3.49,0,0,0-.92-2.66,3.3,3.3,0,0,0-2.37-.86,3.19,3.19,0,0,0-1.91.63,4.59,4.59,0,0,0-1.89,3.67v7.4h-2.21V43.41Z" transform="translate(-63.19 -11.74)"/><path class="cls-1" d="M294.28,48.77V62.06h-2.21V48.77ZM296,42.88l-1.85,3.31h-1.93l1.36-3.31Z" transform="translate(-63.19 -11.74)"/><path class="cls-2" d="M73.82,51.22v2.83h6.82a5.89,5.89,0,0,1-1.54,3.59,7,7,0,0,1-5.28,2.1,7.55,7.55,0,0,1,0-15.09A7,7,0,0,1,79,46.7l2-2a9.85,9.85,0,0,0-7.13-2.92,10.4,10.4,0,1,0,0,20.79,9.59,9.59,0,0,0,7.29-2.93A9.31,9.31,0,0,0,83.57,53a9.69,9.69,0,0,0-.15-1.8Z" transform="translate(-63.19 -11.74)"/><path class="cls-3" d="M91.22,49.22A6.78,6.78,0,1,0,97.89,56,6.62,6.62,0,0,0,91.22,49.22Zm0,10.88A4.12,4.12,0,1,1,95,56,3.89,3.89,0,0,1,91.22,60.1Z" transform="translate(-63.19 -11.74)"/><path class="cls-4" d="M139.74,60.1a3.36,3.36,0,0,1-3.29-2.05l9.09-3.75-.31-.77a6.36,6.36,0,0,0-5.8-4.31A6.45,6.45,0,0,0,133,56a6.63,6.63,0,0,0,6.73,6.77,6.72,6.72,0,0,0,5.64-3l-2.31-1.54A3.87,3.87,0,0,1,139.74,60.1Zm-.26-8.26A2.54,2.54,0,0,1,142,53.28l-6.05,2.51A3.71,3.71,0,0,1,139.48,51.84Z" transform="translate(-63.19 -11.74)"/><rect class="cls-5" x="65.46" y="30.86" width="2.93" height="19.82"/><path class="cls-6" d="M105.7,49.22A6.78,6.78,0,1,0,112.37,56,6.59,6.59,0,0,0,105.7,49.22Zm0,10.88a4.12,4.12,0,1,1,3.75-4.1A3.89,3.89,0,0,1,105.7,60.1Z" transform="translate(-63.19 -11.74)"/><path class="cls-2" d="M123.72,50.76h-.1a4.5,4.5,0,0,0-3.5-1.54,6.71,6.71,0,0,0,0,13.4,4.5,4.5,0,0,0,3.5-1.54h.1v1c0,2.56-1.34,4-3.54,4a3.67,3.67,0,0,1-3.34-2.36l-2.57,1.07a6.3,6.3,0,0,0,5.91,4c3.44,0,6.31-2.06,6.31-7v-12h-2.77ZM120.38,60a3.84,3.84,0,0,1-3.7-4,3.89,3.89,0,0,1,3.7-4.11c2,0,3.54,1.74,3.54,4.11S122.38,60,120.38,60Z" transform="translate(-63.19 -11.74)"/><path class="cls-1" d="M150.67,62.11l6.78-18h2.62l6.77,18h-2.56l-1.75-4.88H155l-1.74,4.88Zm5.08-7h6L158.83,47h-.1Z" transform="translate(-63.19 -11.74)"/><path class="cls-1" d="M169.2,60.62A6.81,6.81,0,0,1,167.51,56a7,7,0,0,1,1.69-4.68,5.55,5.55,0,0,1,6.63-1.33,4.23,4.23,0,0,1,1.74,1.54h.11l-.11-1.7V44.09h2.31v18h-2.2v-1.7h-.11A4.61,4.61,0,0,1,175.83,62a5.13,5.13,0,0,1-2.47.57,5.32,5.32,0,0,1-4.16-1.9m7.29-1.44a5.12,5.12,0,0,0,0-6.42,3.73,3.73,0,0,0-5.54,0,5.05,5.05,0,0,0,0,6.37,3.66,3.66,0,0,0,2.77,1.23,3.31,3.31,0,0,0,2.77-1.18" transform="translate(-63.19 -11.74)"/><path class="cls-1" d="M190.56,61.39a6.06,6.06,0,0,1-6.83.15,5.53,5.53,0,0,1-2-2.57l2.05-.87a3.81,3.81,0,0,0,1.34,1.75,3.21,3.21,0,0,0,1.9.61,3.53,3.53,0,0,0,1.85-.46,1.32,1.32,0,0,0,.72-1.13c0-.77-.62-1.38-1.8-1.74l-2.11-.52c-2.41-.61-3.59-1.74-3.59-3.49a3.25,3.25,0,0,1,1.39-2.72,5.82,5.82,0,0,1,3.49-1,6,6,0,0,1,3,.77,4.37,4.37,0,0,1,1.84,2.11l-2,.87a3,3,0,0,0-1.13-1.23,3.44,3.44,0,0,0-1.8-.46,3,3,0,0,0-1.64.46,1.36,1.36,0,0,0-.72,1.13c0,.72.67,1.23,2,1.49l1.85.46c2.47.62,3.65,1.85,3.65,3.7a3.2,3.2,0,0,1-1.39,2.72" transform="translate(-63.19 -11.74)"/></svg>