<svg id="Layer_1" data-name="Layer 1" xmlns="http://www.w3.org/2000/svg" viewBox="0 0 194.29 53.78"><defs><style>.cls-1{fill:#757575;}.cls-2{fill:#008ccf;}.cls-3{fill:#ef4937;}.cls-4{fill:#eb4435;}.cls-5{fill:#3bb34b;}.cls-6{fill:#feba12;}</style></defs><title>Heading-Eng</title><path class="cls-1" d="M80.24,60.7a9.43,9.43,0,0,1-3.44-3.54,10.23,10.23,0,0,1,0-9.8,9.43,9.43,0,0,1,3.44-3.54,9.51,9.51,0,0,1,13.18,3.54,10.23,10.23,0,0,1,0,9.8A9.62,9.62,0,0,1,80.24,60.7Zm8.56-1.79a7.18,7.18,0,0,0,2.66-2.7,8.53,8.53,0,0,0,0-7.9,7.17,7.17,0,0,0-6.35-3.68,7.17,7.17,0,0,0-6.34,3.68,8.45,8.45,0,0,0,0,7.9,7.11,7.11,0,0,0,2.66,2.7,7.42,7.42,0,0,0,7.37,0Z" transform="translate(-75.55 -13.84)"/><path class="cls-1" d="M99.49,48.3v2h.11a4.76,4.76,0,0,1,1.81-1.71,5.39,5.39,0,0,1,2.72-.69,6,6,0,0,1,3.24.91,6.29,6.29,0,0,1,2.28,2.53,8.26,8.26,0,0,1,0,7.26,6.36,6.36,0,0,1-2.28,2.51,5.91,5.91,0,0,1-3.24.91,5.39,5.39,0,0,1-2.72-.69,4.85,4.85,0,0,1-1.81-1.68h-.11l.11,1.82v5.76H97.38V48.3Zm6.57,11.07a4.46,4.46,0,0,0,1.61-1.77,6.2,6.2,0,0,0,0-5.32,4.46,4.46,0,0,0-1.61-1.77,4.11,4.11,0,0,0-4.34,0,4.53,4.53,0,0,0-1.61,1.77,6,6,0,0,0,0,5.32,4.53,4.53,0,0,0,1.61,1.77,4.11,4.11,0,0,0,4.34,0Z" transform="translate(-75.55 -13.84)"/><path class="cls-1" d="M116.15,61.53a3.52,3.52,0,0,1-1.16-.7,3.61,3.61,0,0,1-1-2.74V50.3h-2.32v-2H114V44.55h2.22V48.3h3.25v2h-3.25v7.25a2.61,2.61,0,0,0,.41,1.61,1.8,1.8,0,0,0,1.44.57,2.48,2.48,0,0,0,1.45-.44v2.16a3.32,3.32,0,0,1-.79.26,4.94,4.94,0,0,1-1,.08A4.08,4.08,0,0,1,116.15,61.53Z" transform="translate(-75.55 -13.84)"/><path class="cls-1" d="M122.39,45.38a1.58,1.58,0,0,1,0-2.25,1.62,1.62,0,0,1,2.26,0,1.63,1.63,0,0,1,0,2.25,1.59,1.59,0,0,1-2.26,0Zm2.24,2.92V61.58h-2.21V48.3Z" transform="translate(-75.55 -13.84)"/><path class="cls-1" d="M130.21,48.3v2h.1A4.65,4.65,0,0,1,132,48.56a4.72,4.72,0,0,1,2.42-.68,4.53,4.53,0,0,1,2.54.71,3.88,3.88,0,0,1,1.55,1.87,5.32,5.32,0,0,1,1.87-1.87,5.07,5.07,0,0,1,2.69-.71,4.22,4.22,0,0,1,3.45,1.4,5.7,5.7,0,0,1,1.16,3.79v8.51h-2.19V53.4a4,4,0,0,0-.75-2.68,2.9,2.9,0,0,0-2.24-.83,3.06,3.06,0,0,0-1.8.57A3.83,3.83,0,0,0,139.47,52a4.72,4.72,0,0,0-.46,2.08v7.5H136.8V53.43a4,4,0,0,0-.76-2.71,2.84,2.84,0,0,0-2.21-.83,3,3,0,0,0-1.8.58A4,4,0,0,0,130.77,52a4.8,4.8,0,0,0-.46,2.09v7.45H128.1V48.3Z" transform="translate(-75.55 -13.84)"/><path class="cls-1" d="M151.1,45.38a1.58,1.58,0,0,1,0-2.25,1.57,1.57,0,0,1,1.12-.46,1.55,1.55,0,0,1,1.13.46,1.6,1.6,0,0,1-1.13,2.72A1.54,1.54,0,0,1,151.1,45.38Zm2.24,2.92V61.58h-2.21V48.3Z" transform="translate(-75.55 -13.84)"/><path class="cls-1" d="M164,50.3h-7.61v-2h10.32v1.9l-7.84,9.38h8v2H156.13v-1.9Z" transform="translate(-75.55 -13.84)"/><path class="cls-1" d="M169.94,45.38a1.58,1.58,0,0,1,0-2.25,1.59,1.59,0,0,1,2.25,2.25,1.58,1.58,0,0,1-2.25,0Zm2.24,2.92V61.58H170V48.3Z" transform="translate(-75.55 -13.84)"/><path class="cls-1" d="M177.75,48.3v2h.1a4.51,4.51,0,0,1,1.75-1.68,5,5,0,0,1,2.55-.69,4.68,4.68,0,0,1,3.66,1.4,5.44,5.44,0,0,1,1.27,3.79v8.51h-2.22V53.4a3.54,3.54,0,0,0-.88-2.68,3.43,3.43,0,0,0-2.43-.83,3.21,3.21,0,0,0-1.91.6,4.13,4.13,0,0,0-1.32,1.57,4.73,4.73,0,0,0-.47,2v7.47h-2.21V48.3Z" transform="translate(-75.55 -13.84)"/><path class="cls-1" d="M192.09,66.53a5.3,5.3,0,0,1-2-2.63l2-.86a3.78,3.78,0,0,0,1.44,1.86,4.69,4.69,0,0,0,5.63-.48A4.7,4.7,0,0,0,200.28,61V59.55h-.1a4.87,4.87,0,0,1-1.84,1.66,5.65,5.65,0,0,1-2.69.63,5.81,5.81,0,0,1-3.14-.88,6.22,6.22,0,0,1-2.25-2.48,8.18,8.18,0,0,1,0-7.22,6.18,6.18,0,0,1,2.25-2.49,5.82,5.82,0,0,1,3.14-.89,5.66,5.66,0,0,1,2.69.64,4.84,4.84,0,0,1,1.84,1.68h.1V48.3h2.11V61.06a6.64,6.64,0,0,1-10.3,5.47Zm6-7.29a4.23,4.23,0,0,0,1.57-1.72,6.44,6.44,0,0,0,0-5.34,4.2,4.2,0,0,0-1.57-1.71,4.32,4.32,0,0,0-4.36,0,4.23,4.23,0,0,0-1.57,1.72,5.63,5.63,0,0,0-.59,2.65,5.72,5.72,0,0,0,.59,2.67,4.11,4.11,0,0,0,1.57,1.72,4.23,4.23,0,0,0,2.19.59A4.05,4.05,0,0,0,198.13,59.24Z" transform="translate(-75.55 -13.84)"/><path class="cls-1" d="M210.76,45V42.93h12.66V45h-5.21V61.58H216V45Z" transform="translate(-75.55 -13.84)"/><path class="cls-1" d="M226.26,61.06a6.51,6.51,0,0,1-2.44-2.55,7.76,7.76,0,0,1,0-7.14,6.64,6.64,0,0,1,2.44-2.55,6.79,6.79,0,0,1,9.47,2.55,7.76,7.76,0,0,1,0,7.14,6.58,6.58,0,0,1-2.44,2.55,7,7,0,0,1-7,0Zm5.79-1.68a4.5,4.5,0,0,0,1.7-1.76,6,6,0,0,0,0-5.36,4.5,4.5,0,0,0-1.7-1.76,4.43,4.43,0,0,0-2.28-.61,4.52,4.52,0,0,0-2.29.61,4.44,4.44,0,0,0-1.7,1.76,5.93,5.93,0,0,0,0,5.36,4.44,4.44,0,0,0,1.7,1.76,4.52,4.52,0,0,0,2.29.61A4.43,4.43,0,0,0,232.05,59.38Z" transform="translate(-75.55 -13.84)"/><path class="cls-1" d="M241.78,61.06a6.48,6.48,0,0,1-2.43-2.55,7.76,7.76,0,0,1,0-7.14,6.62,6.62,0,0,1,2.43-2.55,7.06,7.06,0,0,1,7,0,6.62,6.62,0,0,1,2.43,2.55,7.76,7.76,0,0,1,0,7.14,6.48,6.48,0,0,1-2.43,2.55,7.06,7.06,0,0,1-7,0Zm5.8-1.68a4.48,4.48,0,0,0,1.69-1.76,5.93,5.93,0,0,0,0-5.36,4.48,4.48,0,0,0-1.69-1.76,4.43,4.43,0,0,0-2.28-.61,4.53,4.53,0,0,0-4,2.37,5.93,5.93,0,0,0,0,5.36,4.53,4.53,0,0,0,4,2.37A4.43,4.43,0,0,0,247.58,59.38Z" transform="translate(-75.55 -13.84)"/><path class="cls-1" d="M256.79,42.93V61.58h-2.21V42.93Z" transform="translate(-75.55 -13.84)"/><path class="cls-1" d="M261,61a5.47,5.47,0,0,1-2-2.57l2-.88a4.06,4.06,0,0,0,1.47,1.85,3.83,3.83,0,0,0,2.15.65,4.2,4.2,0,0,0,2.13-.51,1.6,1.6,0,0,0,.89-1.45,1.58,1.58,0,0,0-.7-1.34,6.45,6.45,0,0,0-2.22-.87l-1.61-.42a5.78,5.78,0,0,1-2.61-1.33,3.36,3.36,0,0,1-.32-4.44A4.41,4.41,0,0,1,262,48.35a6.56,6.56,0,0,1,2.48-.47,6.26,6.26,0,0,1,3.11.76,4.23,4.23,0,0,1,1.94,2.11l-1.93.88a3.21,3.21,0,0,0-3.15-1.77,3.52,3.52,0,0,0-1.91.51,1.49,1.49,0,0,0-.82,1.29,1.43,1.43,0,0,0,.57,1.18,4.4,4.4,0,0,0,1.72.75l1.93.49a6.34,6.34,0,0,1,2.94,1.47,3.25,3.25,0,0,1,1,2.39,3.46,3.46,0,0,1-.7,2.15,4.64,4.64,0,0,1-1.91,1.42,6.84,6.84,0,0,1-2.65.49A6,6,0,0,1,261,61Z" transform="translate(-75.55 -13.84)"/><path class="cls-1" d="M91.92,15.25v2.11H83.36v6.38h7.73v2.09H83.36V33.9H81.14V15.25Z" transform="translate(-75.55 -13.84)"/><path class="cls-1" d="M96.12,20.62v2.14h.1a3.59,3.59,0,0,1,1.52-1.82,4.3,4.3,0,0,1,2.34-.71,4.24,4.24,0,0,1,1.56.26v2.4a4.08,4.08,0,0,0-1.87-.42A3,3,0,0,0,98,23a3.85,3.85,0,0,0-1.29,1.47,4.25,4.25,0,0,0-.49,2V33.9H94V20.62Z" transform="translate(-75.55 -13.84)"/><path class="cls-1" d="M105.5,33.41a6.37,6.37,0,0,1-2.36-2.52,7.62,7.62,0,0,1-.85-3.6,7.92,7.92,0,0,1,.8-3.53,6.27,6.27,0,0,1,2.27-2.59,6,6,0,0,1,3.37-1,6.37,6.37,0,0,1,3.38.87,5.91,5.91,0,0,1,2.21,2.41,7.82,7.82,0,0,1,.76,3.52,4.19,4.19,0,0,1,0,.68H104.51a5.17,5.17,0,0,0,.73,2.55,4.18,4.18,0,0,0,1.65,1.56,4.47,4.47,0,0,0,2.1.52,4.23,4.23,0,0,0,3.93-2.39l1.88.91a6.68,6.68,0,0,1-2.32,2.54,6.51,6.51,0,0,1-3.57,1A6.45,6.45,0,0,1,105.5,33.41Zm6.77-9.22a3.57,3.57,0,0,0-1.3-1.41,4.07,4.07,0,0,0-2.24-.57,3.79,3.79,0,0,0-2.66,1,4.81,4.81,0,0,0-1.43,2.64h8.1A4.17,4.17,0,0,0,112.27,24.19Z" transform="translate(-75.55 -13.84)"/><path class="cls-1" d="M120.3,33.41a6.3,6.3,0,0,1-2.36-2.52,7.5,7.5,0,0,1-.85-3.6,7.92,7.92,0,0,1,.8-3.53,6.32,6.32,0,0,1,2.26-2.59,6,6,0,0,1,3.37-1,6.38,6.38,0,0,1,3.39.87,5.82,5.82,0,0,1,2.2,2.41,7.82,7.82,0,0,1,.77,3.52,5.74,5.74,0,0,1,0,.68H119.31a5.27,5.27,0,0,0,.72,2.55,4.27,4.27,0,0,0,1.66,1.56,4.47,4.47,0,0,0,2.1.52,4.25,4.25,0,0,0,3.93-2.39l1.87.91a6.31,6.31,0,0,1-5.88,3.49A6.42,6.42,0,0,1,120.3,33.41Zm6.77-9.22a3.64,3.64,0,0,0-1.3-1.41,4.11,4.11,0,0,0-2.25-.57,3.77,3.77,0,0,0-2.65,1,4.75,4.75,0,0,0-1.43,2.64h8.1A4.34,4.34,0,0,0,127.07,24.19Z" transform="translate(-75.55 -13.84)"/><path class="cls-2" d="M146.67,23.29v2.82h6.83a6.06,6.06,0,0,1-1.54,3.6,7.11,7.11,0,0,1-5.29,2.1,7.55,7.55,0,0,1,0-15.09,7.08,7.08,0,0,1,5.14,2.05l2-2a9.89,9.89,0,0,0-7.14-2.93A10.58,10.58,0,0,0,136,24.26a10.53,10.53,0,0,0,10.63,10.37A9.58,9.58,0,0,0,154,31.71a9.32,9.32,0,0,0,2.47-6.62,9.55,9.55,0,0,0-.16-1.8Z" transform="translate(-75.55 -13.84)"/><path class="cls-3" d="M164.08,21.29a6.62,6.62,0,0,0-6.68,6.77,6.68,6.68,0,1,0,13.35,0A6.65,6.65,0,0,0,164.08,21.29Zm0,10.88a3.89,3.89,0,0,1-3.75-4.11,3.76,3.76,0,1,1,7.49,0A3.89,3.89,0,0,1,164.08,32.17Z" transform="translate(-75.55 -13.84)"/><path class="cls-4" d="M212.59,32.17a3.35,3.35,0,0,1-3.28-2.05l9.08-3.75-.31-.77a6.35,6.35,0,0,0-5.8-4.31,6.44,6.44,0,0,0-6.41,6.77,6.63,6.63,0,0,0,6.72,6.78,6.72,6.72,0,0,0,5.65-3l-2.31-1.54A3.88,3.88,0,0,1,212.59,32.17Zm-.26-8.27a2.56,2.56,0,0,1,2.52,1.44l-6.06,2.52A3.73,3.73,0,0,1,212.33,23.9Z" transform="translate(-75.55 -13.84)"/><rect class="cls-5" x="125.95" y="0.82" width="2.93" height="19.82"/><path class="cls-6" d="M178.55,21.29a6.59,6.59,0,0,0-6.67,6.77,6.68,6.68,0,1,0,13.35,0A6.62,6.62,0,0,0,178.55,21.29Zm0,10.88a3.89,3.89,0,0,1-3.74-4.11,3.76,3.76,0,1,1,7.49,0A3.86,3.86,0,0,1,178.55,32.17Z" transform="translate(-75.55 -13.84)"/><path class="cls-2" d="M196.57,22.83h-.1A4.5,4.5,0,0,0,193,21.29a6.71,6.71,0,0,0,0,13.4,4.5,4.5,0,0,0,3.49-1.54h.1v1c0,2.57-1.33,4-3.54,4a3.67,3.67,0,0,1-3.34-2.36l-2.56,1.08a6.29,6.29,0,0,0,5.9,4c3.44,0,6.32-2.05,6.32-7v-12h-2.78Zm-3.33,9.24a3.84,3.84,0,0,1-3.7-4.06,3.89,3.89,0,0,1,3.7-4.11c2,0,3.54,1.75,3.54,4.11S195.24,32.07,193.24,32.07Z" transform="translate(-75.55 -13.84)"/><path class="cls-1" d="M223.53,34.17l6.77-18h2.62l6.78,18h-2.57l-1.74-4.87h-7.55l-1.75,4.87Zm5.08-7h6L231.69,19h-.1Z" transform="translate(-75.55 -13.84)"/><path class="cls-1" d="M242.06,32.68A6.78,6.78,0,0,1,240.37,28a7,7,0,0,1,1.69-4.67A5.53,5.53,0,0,1,248.68,22a4.26,4.26,0,0,1,1.75,1.54h.1l-.1-1.7v-5.7h2.31v18h-2.21V32.48h-.1A4.73,4.73,0,0,1,248.68,34a5.11,5.11,0,0,1-2.46.56,5.29,5.29,0,0,1-4.16-1.9m7.29-1.43A4.54,4.54,0,0,0,250.48,28a4.48,4.48,0,0,0-1.13-3.18,3.73,3.73,0,0,0-5.54,0A4.48,4.48,0,0,0,242.68,28a4.5,4.5,0,0,0,1.13,3.19,3.66,3.66,0,0,0,2.77,1.23,3.32,3.32,0,0,0,2.77-1.18" transform="translate(-75.55 -13.84)"/><path class="cls-1" d="M263.42,33.45a5.65,5.65,0,0,1-3.55,1.13,5.58,5.58,0,0,1-3.28-1,5.46,5.46,0,0,1-2-2.57l2-.87A3.78,3.78,0,0,0,258,31.91a3.21,3.21,0,0,0,1.89.62,3.5,3.5,0,0,0,1.85-.46,1.3,1.3,0,0,0,.72-1.13c0-.77-.61-1.39-1.8-1.75l-2.1-.51c-2.41-.62-3.59-1.75-3.59-3.49a3.27,3.27,0,0,1,1.38-2.72,5.86,5.86,0,0,1,3.49-1,6,6,0,0,1,3,.77,4.3,4.3,0,0,1,1.85,2.11l-2,.87A2.86,2.86,0,0,0,261.47,24a3.48,3.48,0,0,0-1.8-.47A3,3,0,0,0,258,24a1.31,1.31,0,0,0-.72,1.13c0,.71.67,1.23,2,1.48l1.85.47c2.46.61,3.64,1.84,3.64,3.69a3.2,3.2,0,0,1-1.38,2.72" transform="translate(-75.55 -13.84)"/></svg>