<svg xmlns="http://www.w3.org/2000/svg" xmlns:xlink="http://www.w3.org/1999/xlink" viewBox="0 0 517.976 512.226">
  <defs>
    <style>
      .cls-1 {
        fill: #554753;
      }

      .cls-2 {
        fill: #fec673;
      }

      .cls-3, .cls-7 {
        fill: #4a3747;
      }

      .cls-4 {
        fill: #2a2765;
      }

      .cls-5 {
        fill: #fec764;
        opacity: 0.36;
      }

      .cls-6 {
        fill: url(#linear-gradient);
      }

      .cls-7 {
        opacity: 0.69;
      }

      .cls-8 {
        fill: url(#linear-gradient-2);
      }

      .cls-9 {
        fill: url(#linear-gradient-3);
      }

      .cls-10 {
        fill: url(#linear-gradient-4);
      }

      .cls-11 {
        fill: #fdbe16;
      }

      .cls-12 {
        fill: #fcde88;
      }

      .cls-13 {
        fill: #90684c;
      }

      .cls-14 {
        fill: #faeec6;
      }

      .cls-15 {
        fill: #ffd358;
      }

      .cls-16 {
        fill: #474d84;
      }

      .cls-17 {
        fill: #8487c2;
      }

      .cls-18 {
        fill: #0e0f1a;
      }

      .cls-19 {
        fill: url(#linear-gradient-5);
      }

      .cls-20 {
        fill: #fcd534;
      }

      .cls-21 {
        fill: #d8b15a;
      }

      .cls-22 {
        fill: #32170d;
      }

      .cls-23, .cls-24, .cls-25, .cls-26 {
        opacity: 0.63;
      }

      .cls-23 {
        fill: url(#linear-gradient-6);
      }

      .cls-24 {
        fill: url(#linear-gradient-7);
      }

      .cls-25 {
        fill: url(#linear-gradient-8);
      }

      .cls-26 {
        fill: url(#linear-gradient-9);
      }

      .cls-27 {
        fill: #e4e8f5;
      }

      .cls-28 {
        fill: #e9ebf6;
      }

      .cls-29 {
        fill: none;
        stroke: #9d9dcd;
        stroke-miterlimit: 10;
        opacity: 0.43;
      }

      .cls-30 {
        fill: #c4c6e0;
      }

      .cls-31 {
        fill: #fff;
      }

      .cls-32 {
        fill: url(#linear-gradient-10);
      }
    </style>
    <linearGradient id="linear-gradient" x1="-0.037" y1="-0.748" x2="0.755" y2="0.897" gradientUnits="objectBoundingBox">
      <stop offset="0" stop-color="#2a2765"/>
      <stop offset="1" stop-color="#2a2765" stop-opacity="0"/>
    </linearGradient>
    <linearGradient id="linear-gradient-2" x1="0.1" y1="0.251" x2="0.961" y2="0.997" gradientUnits="objectBoundingBox">
      <stop offset="0.008" stop-color="#fdbe16" stop-opacity="0.302"/>
      <stop offset="0.299" stop-color="#fdca49" stop-opacity="0.212"/>
      <stop offset="0.601" stop-color="#fcd56e" stop-opacity="0.122"/>
      <stop offset="0.846" stop-color="#fcdc82" stop-opacity="0.047"/>
      <stop offset="1" stop-color="#fcde88" stop-opacity="0"/>
    </linearGradient>
    <linearGradient id="linear-gradient-3" x1="0.079" y1="0.202" x2="1.012" y2="0.885" gradientUnits="objectBoundingBox">
      <stop offset="0.008" stop-color="#fdbe16" stop-opacity="0.6"/>
      <stop offset="0.299" stop-color="#fdca49" stop-opacity="0.424"/>
      <stop offset="0.601" stop-color="#fcd56e" stop-opacity="0.243"/>
      <stop offset="0.846" stop-color="#fcdc82" stop-opacity="0.094"/>
      <stop offset="1" stop-color="#fcde88" stop-opacity="0"/>
    </linearGradient>
    <linearGradient id="linear-gradient-4" x1="0.073" y1="0.21" x2="1.024" y2="0.865" gradientUnits="objectBoundingBox">
      <stop offset="0.008" stop-color="#fdbe16" stop-opacity="0.302"/>
      <stop offset="0.164" stop-color="#fdc122" stop-opacity="0.251"/>
      <stop offset="0.418" stop-color="#fdc83f" stop-opacity="0.176"/>
      <stop offset="0.736" stop-color="#fdd368" stop-opacity="0.078"/>
      <stop offset="1" stop-color="#fcde88" stop-opacity="0"/>
    </linearGradient>
    <linearGradient id="linear-gradient-5" x1="0.246" y1="0.097" x2="1.021" y2="1.007" gradientUnits="objectBoundingBox">
      <stop offset="0" stop-color="#2a2765" stop-opacity="0"/>
      <stop offset="1" stop-color="#2a2765"/>
    </linearGradient>
    <linearGradient id="linear-gradient-6" x1="0.193" y1="0.175" x2="0.936" y2="0.773" gradientUnits="objectBoundingBox">
      <stop offset="0" stop-color="#426db5" stop-opacity="0.2"/>
      <stop offset="0.037" stop-color="#3d65a9" stop-opacity="0.255"/>
      <stop offset="0.167" stop-color="#2e4e85" stop-opacity="0.455"/>
      <stop offset="0.286" stop-color="#203a68" stop-opacity="0.635"/>
      <stop offset="0.389" stop-color="#132a53" stop-opacity="0.792"/>
      <stop offset="0.472" stop-color="#081e45" stop-opacity="0.922"/>
      <stop offset="0.524" stop-color="#041940"/>
      <stop offset="0.558" stop-color="#0e244d" stop-opacity="0.945"/>
      <stop offset="0.676" stop-color="#254071" stop-opacity="0.745"/>
      <stop offset="0.784" stop-color="#33548e" stop-opacity="0.565"/>
      <stop offset="0.877" stop-color="#3b61a2" stop-opacity="0.408"/>
      <stop offset="0.952" stop-color="#3f69ae" stop-opacity="0.278"/>
      <stop offset="1" stop-color="#426db5" stop-opacity="0.2"/>
    </linearGradient>
    <linearGradient id="linear-gradient-7" x1="0.188" y1="0.176" x2="0.932" y2="0.773" xlink:href="#linear-gradient-6"/>
    <linearGradient id="linear-gradient-8" x1="-83.562" y1="3.545" x2="-83.158" y2="4.169" xlink:href="#linear-gradient-6"/>
    <linearGradient id="linear-gradient-9" x1="-109.965" y1="4.704" x2="-109.56" y2="5.328" xlink:href="#linear-gradient-6"/>
    <linearGradient id="linear-gradient-10" x1="0.352" y1="0.757" x2="0.787" y2="-0.003" gradientUnits="objectBoundingBox">
      <stop offset="0.014" stop-color="#b5d443"/>
      <stop offset="1" stop-color="#c6e3bf"/>
    </linearGradient>
  </defs>
  <g id="Group_81" data-name="Group 81" transform="translate(-691 -129)">
    <ellipse id="Ellipse_18" data-name="Ellipse 18" class="cls-1" cx="39.26" cy="14.318" rx="39.26" ry="14.318" transform="translate(1124.589 612.59)"/>
    <path id="Path_1529" data-name="Path 1529" class="cls-2" d="M212.023-359.741s-4.812-8.085-6.16-10.395c-1.251-2.31-7.8-1.829-11.261-2.117a24.173,24.173,0,0,1-6.16-1.347,4.608,4.608,0,0,0-3.08,1.54c-1.059,1.444-1.444,8.085-.1,9.913s9.336,3.08,10.78,5.1c1.444,2.117-3.657,2.887-4.716,2.214-.962-.674-3.369-2.6-3.657-1.444-.385,1.155.385,3.369,2.214,4.427,1.829,1.155,8.566,3.85,10.876,2.791,2.214-1.059,6.833-2.406,7.315-1.829Z" transform="translate(651.97 711.166)"/>
    <path id="Path_1530" data-name="Path 1530" class="cls-3" d="M165.93-187.034s-8.47,15.592-14.822,16.169c-5.1.481-6.16-3.176-10.587-5.582-4.331-2.406-8.855-.385-13.09-.481s-12.9-6.256-13.667-8.662c-.674-2.021-2.406-6.93,2.021-9.625s34.36,10.3,44.273,3.08Z" transform="translate(654.656 704.484)"/>
    <path id="Path_1531" data-name="Path 1531" class="cls-2" d="M334.135-455.334s-10.876,20.789,2.214,33.2c0,0,.77,2.695-1.251,2.984,0,0,3.85,4.235,8.181,5.486,2.887.866,6.641-1.54,7.411-.385,0,0,5.2-9.625,7.315-10.78l11.068-9.143,1.444-20.693-12.608-9.24-15.014,3.272Z" transform="translate(646.509 714.555)"/>
    <path id="Path_1532" data-name="Path 1532" class="cls-3" d="M326.739-465.592S338-447.882,350.03-449.326l8.47-1.732s-1.347,8.855-2.406,10.395a74.618,74.618,0,0,0,4.62-6.737c.77-1.636,4.331-2.791,4.62-1.444.385,1.347,2.791,8.566-4.427,11.068,0,0,3.176,7.7.962,9.047a56.269,56.269,0,0,0,9.528-8.662c3.657-4.427,6.256-17.709,2.695-18.19,0,0,1.059-5.871-1.155-8.662s-7.988-12.608-16.843-10.587c-8.951,1.925-27.141,2.406-30.318-3.369,0,0,1.155,8.181,5.39,10.491,0,0-5.1-2.117-5.967-4.62C325.1-472.233,325.1-467.421,326.739-465.592Z" transform="translate(646.687 715.092)"/>
    <path id="Path_1533" data-name="Path 1533" class="cls-4" d="M301.572-412.1a117.493,117.493,0,0,0-34.649,22.137c-17.132,15.688-43.022,26.083-54.09,26.949,0,0-6.256,7.8-3.657,13.378,0,0,48.893-5.2,72.666-20.115l16.747-27.238Z" transform="translate(651.064 712.611)"/>
    <path id="Path_1534" data-name="Path 1534" class="cls-5" d="M225.55-439.55s1.732-9.24,2.406-11.838c.577-2.6-4.524-6.545-6.93-9.047a22.087,22.087,0,0,1-3.657-5.1,4.306,4.306,0,0,0-3.272-.866c-1.732.289-6.449,5-6.641,7.315s4.909,8.47,4.62,10.972-4.716-.289-5-1.444-.77-4.139-1.829-3.465a4.409,4.409,0,0,0-1.251,4.812c.674,2.021,3.85,8.662,6.256,9.336s6.737,2.791,6.641,3.465Z" transform="translate(651.244 714.652)"/>
    <path id="Path_1535" data-name="Path 1535" class="cls-6" d="M325.995-417.282a118.772,118.772,0,0,0-40.52-6.641c-23.292.192-49.471-9.24-58.229-15.977,0,0-9.817,1.636-11.646,7.507,0,0,39.846,28.778,67.565,33.494l30.7-9.047Z" transform="translate(650.799 713.655)"/>
    <path id="Path_1536" data-name="Path 1536" class="cls-2" d="M445.906-381.07s7.411-11.068,7.026-12.223,13.186-10.587,13.474-13.378,3.176-2.214,3.465.577c.289,2.887-6.352,11.261-5.486,14.341s5.39.77,7.7,1.732,5.967,1.54,5,2.695-2.695,2.117-6.545,2.6-3.561,0-5.1,1.925-2.214,5.775-5.1,6.93-13.571,5-15.3,5.294-1.54-6.93-1.54-6.93Z" transform="translate(642.245 712.476)"/>
    <path id="Path_1537" data-name="Path 1537" class="cls-3" d="M110.8-341.478s-2.021-28.778-5.582-31.858c-3.657-3.08-8.085,2.5-8.181,4.235s-2.984,22.04-.481,25.024c2.5,2.887,3.272,6.833,2.695,8.855-.674,2.021-1.829,3.754-1.54,5s.866,5.2,3.369,4.909,12.416-2.31,14.052-3.465Z" transform="translate(655.306 711.19)"/>
    <circle id="Ellipse_11" data-name="Ellipse 11" class="cls-7" cx="2.214" cy="2.214" r="2.214" transform="translate(979.778 264.515)"/>
    <circle id="Ellipse_12" data-name="Ellipse 12" class="cls-7" cx="2.117" cy="2.117" r="2.117" transform="translate(992.482 267.883)"/>
    <path id="Path_1538" data-name="Path 1538" class="cls-8" d="M37.5-293.734s46.006,92.2,229.547,119.827l-7.7-25.7S92.457-252.348,69.935-319.047L54.632-330.5,40.484-317.7Z" transform="translate(657.485 709.548)"/>
    <path id="Path_1539" data-name="Path 1539" class="cls-9" d="M157.677-220.464a331.329,331.329,0,0,1-55.245-31.858c-26.083-18.961-39.75-35.8-45.332-43.6l.77-5.678C72.981-274.17,106.378-246.932,157.677-220.464Z" transform="translate(656.749 708.463)"/>
    <path id="Path_1540" data-name="Path 1540" class="cls-10" d="M121.8-233.034A277.969,277.969,0,0,1,75.31-261.523C53.269-278.462,41.816-293.477,37.1-300.6l.674-5.1C50.478-281.061,78.582-256.711,121.8-233.034Z" transform="translate(657.5 708.617)"/>
    <g id="Group_73" data-name="Group 73" transform="translate(691 346.398)">
      <path id="Path_1541" data-name="Path 1541" class="cls-11" d="M57.539-335.7s-.385-3.946,5.2-4.812c5.582-.77,6.833,2.406,8.181,3.272s3.369.192,1.732-4.235c-1.54-4.427-6.448-8.951-12.416-6.256,0,0-6.833,3.561-6.833,7.8Z" transform="translate(-34.112 363.827)"/>
      <path id="Path_1542" data-name="Path 1542" class="cls-12" d="M61.626-356.99s-.1-3.272-6.16-6.449c-6.064-3.272-12.993,2.117-13.571,8.758-.577,6.737,1.251,6.16,1.636,5.678s3.272-10.876,7.8-9.528l7.7,2.021Z" transform="translate(-33.676 364.423)"/>
      <path id="Path_1543" data-name="Path 1543" class="cls-13" d="M44.017-349.434s-.674.866-1.155.385A5.237,5.237,0,0,1,41.9-350.3s.192,2.021,1.155,2.117C43.729-348.183,44.017-349.434,44.017-349.434Z" transform="translate(-33.68 363.893)"/>
      <path id="Path_1544" data-name="Path 1544" class="cls-14" d="M51.3-338.26s10.587-10.01,10.683-14.533c.1-4.62-.577-5.294-.577-5.294s-7.988-4.812-10.491-.289c0,0,5.486.962,3.561,7.218-2.117,6.833-8.758,14.726-4.139,19.442l3.176-2.5-1.347-3.465Z" transform="translate(-33.937 364.269)"/>
      <path id="Path_1545" data-name="Path 1545" class="cls-12" d="M73.541-322.092s-2.31-.1-2.695-.481a17.741,17.741,0,0,1-2.695-3.657,26.687,26.687,0,0,0-6.833-6.737c-2.6-1.636-7.218-4.427-5.871-9.432,0,0-9.625,6.833-5.486,11.261,0,0-21.848,12.223-15.111,33.013,0,0,2.695,6.449,4.62,5.294,1.925-1.059-.289-3.946,0-8.758a36.147,36.147,0,0,1,3.465-13.378c2.021-4.042,5.967-12.416,15.014-7.218,0,0,4.716,2.021,7.892,1.925s3.946.385,5,2.021l2.5-1.251.962-2.31L74.118-322Z" transform="translate(-33.367 363.596)"/>
      <path id="Path_1546" data-name="Path 1546" class="cls-11" d="M54.339-323.808s-1.925,5.294.577,9.432c2.6,4.139,4.62,8.47,2.406,14.341s-2.695,2.6-2.887.192c-.192-2.5-1.347-6.256-4.331-10.587S47.217-322.749,48.468-324Z" transform="translate(-33.896 362.906)"/>
      <path id="Path_1547" data-name="Path 1547" class="cls-15" d="M49.76-330.7S27.912-318.477,34.65-297.687c0,0,2.695,6.448,4.62,5.293,1.925-1.059-.289-3.946,0-8.758a36.147,36.147,0,0,1,3.465-13.378c2.021-4.042,5.967-12.416,15.014-7.219,0,0,4.716,2.021,7.892,1.925s3.946.385,5,2.021l2.5-1.251.962-2.31-.192-.193h-.385s-2.31-.1-2.695-.481c0,0,2.021.962.866,2.021s-1.925-.577-2.406-.577-8.662-1.155-12.512-4.427C52.936-328.39,49.76-330.7,49.76-330.7Z" transform="translate(-33.36 363.157)"/>
      <path id="Path_1548" data-name="Path 1548" class="cls-13" d="M56.447-296.6a4.075,4.075,0,0,1-.674.481c-.192,0-.674-.289-.674-.481,0,0,.193.77.577.866C55.966-295.734,56.447-296.6,56.447-296.6Z" transform="translate(-34.176 361.877)"/>
      <path id="Path_1549" data-name="Path 1549" class="cls-13" d="M73.895-339s-.289,1.54-.577,1.636c-.192.1-1.251.866-2.117.289,0,0,1.155,1.059,2.021.481S73.895-339,73.895-339Z" transform="translate(-34.78 363.469)"/>
      <path id="Path_1550" data-name="Path 1550" class="cls-13" d="M75.853-320.819s-.192-.866-.866-.289c-.577.577-.481,1.732-1.059,2.021S72-317.835,72.1-317.45c0,.385.77.77,1.444.385A5.394,5.394,0,0,0,75.853-320.819Z" transform="translate(-34.814 362.804)"/>
    </g>
    <path id="Path_1551" data-name="Path 1551" class="cls-16" d="M231.567-303.6S164.676-255.087,153.8-194.452c0,0,5.1,7.6,13.956,4.139,0,0,34.36-70.26,109.817-85.659,0,0,8.758-14.918,6.641-17.613s-38.4-15.014-38.4-15.014Z" transform="translate(653.119 708.726)"/>
    <path id="Path_1552" data-name="Path 1552" class="cls-17" d="M304.388-301.356S292.55-277.1,269.066-274.5s-60.25-36.862-78.056-42.252-77.478-9.625-77.478-9.625-7.315-7.7-2.887-16.362c0,0,90.568-13.475,138.98,11.357l17.9-1.54,34.264,16.843Z" transform="translate(654.793 710.144)"/>
    <path id="Path_1553" data-name="Path 1553" class="cls-2" d="M258.8-325.91s31.954.385,47.642,19.923L316.548-320.9l-13.667-23.2-37.151,2.5Z" transform="translate(649.178 710.058)"/>
    <path id="Path_1554" data-name="Path 1554" class="cls-18" d="M256.855-324.272s7.8-13.378,7.988-16.458l-8.662-.77-6.93,2.406L248-337.65s1.732,5.582,8.566,14.244Z" transform="translate(649.583 709.961)"/>
    <path id="Path_1555" data-name="Path 1555" class="cls-5" d="M412.168-294.724s13.186-1.925,13.763-2.984,16.747,2.695,18.961.962,3.85.866,1.925,2.984-12.7,2.791-14.341,5.582c-1.636,2.695,3.08,4.524,3.85,6.93.866,2.406,2.887,5.486,1.347,5.582s-3.369-.577-6.256-3.08-2.406-2.695-4.812-2.5c-2.5.192-5.775,2.214-8.566.866s-12.7-6.737-14.148-7.8,4.139-5.775,4.139-5.775Z" transform="translate(643.741 708.324)"/>
    <path id="Path_1556" data-name="Path 1556" class="cls-19" d="M372.054-366.3c-7.026,18.383,12.9,54.668,38.787,68.431,0,0-2.31,8.566-10.587,7.988,0,0-31.761-12.223-67.854-62.271" transform="translate(646.415 710.892)"/>
    <path id="Path_1557" data-name="Path 1557" class="cls-4" d="M341.683-414.644s13.09-.1,20.5,14.629c8.855,17.517,49.182,27.141,76.8,17.036,0,0,4.812,7.411-1.155,13.282,0,0-30.414,15.3-91.723,8.566,0,0-21.752,56.015-38.5,60.539,0,0-35.419-43.311-51.3-42.252s.77,16.554.77,16.554-14.341-11.742-9.817-17.228,22.907-9.625,25.794-23.388,15.5-39.846,33.494-47.642C326.188-423.017,341.683-414.644,341.683-414.644Z" transform="translate(649.644 712.845)"/>
    <path id="Path_1558" data-name="Path 1558" class="cls-17" d="M245.1-335.2s15.3,5.967,20.116,10.491c0,0-3.946,9.817-4.139,9.721s-11.935-5.775-11.935-6.063C249.142-321.244,245.1-335.2,245.1-335.2Z" transform="translate(649.692 709.724)"/>
    <path id="Path_1559" data-name="Path 1559" class="cls-18" d="M272.194-363.682S284.9-386.4,291.347-394c0,0-10.683,16.362-23.2,27.142-9.047,7.8-18.191,9.336-29.451,13.186C238.6-353.48,267.381-360.121,272.194-363.682Z" transform="translate(649.932 711.932)"/>
    <ellipse id="Ellipse_13" data-name="Ellipse 13" class="cls-1" cx="89.124" cy="12.608" rx="89.124" ry="12.608" transform="translate(826.842 560.183)"/>
    <g id="Group_74" data-name="Group 74" transform="translate(1114.619 266.825)">
      <path id="Path_1560" data-name="Path 1560" class="cls-20" d="M489.862-442.384c-4.139,4.427-11.068,7.8-14.822,4.235a4.317,4.317,0,0,1-1.54-3.272,4.326,4.326,0,0,1,1.251-2.695l2.791-2.984,2.117,2.021L476.676-442h0a.823.823,0,0,0-.289.577,1.492,1.492,0,0,0,.674,1.059c2.406,2.31,7.507-.577,10.3-3.561Z" transform="translate(-473.5 447.1)"/>
    </g>
    <path id="Path_1561" data-name="Path 1561" class="cls-21" d="M495.22-468.932a2.1,2.1,0,0,0-.289-.481c-1.444-1.444-7.026,2.021-12.32,7.7-5.39,5.679-8.47,11.453-7.026,12.8a1.565,1.565,0,0,0,.577.289c2.021.481,7.026-2.887,11.838-7.988S495.8-466.91,495.22-468.932Z" transform="translate(641.054 714.775)"/>
    <path id="Path_1562" data-name="Path 1562" class="cls-22" d="M478.809-449.977s-1.444-8.566,3.176-14.148,3.369-9.047-.1-9.528-3.85-1.155-3.08-2.5,3.561,0,3.176-1.54-7.219-2.984-5.1-5.967,8.47-1.732,10.78,2.984c2.214,4.716,8.085,10.106,7.218,15.784S492.091-451.228,478.809-449.977Z" transform="translate(641.007 715.358)"/>
    <path id="Path_1563" data-name="Path 1563" class="cls-20" d="M495.327-469l-.1.1c.578,1.925-2.406,7.122-7.315,12.32-4.812,5.1-9.817,8.47-11.838,7.988l-.577-.289c6.93,6.545,17.324,7.6,22.714,1.925C503.6-452.542,502.353-462.455,495.327-469Z" transform="translate(641.044 714.747)"/>
    <path id="Path_1564" data-name="Path 1564" class="cls-1" d="M307.6-118.988s79.018,4.812,89.028-2.117c10.106-6.93-7.892-8.951-11.55-8.855-13.474.674-32.531,5.967-53.8-1.54Z" transform="translate(647.346 702.078)"/>
    <path id="Path_1565" data-name="Path 1565" class="cls-1" d="M233.838-138.461S221.615-145.2,222-149.048c.289-3.85.674-7.411,11.261-6.064,10.587,1.251,4.524,9.336,32.435,14.437l-17.613,7.026Z" transform="translate(650.56 702.975)"/>
    <path id="Path_1566" data-name="Path 1566" class="cls-1" d="M204.658-126.913s-40.9,10.587-46.679,20.212,35.13,2.887,35.13,2.887l101.54-14.918L266.255-129.8Z" transform="translate(652.983 702.014)"/>
    <path id="Path_1567" data-name="Path 1567" class="cls-23" d="M231-431.8a63.377,63.377,0,0,0-3.369,8.374,68.622,68.622,0,0,0-2.214,8.758,69.728,69.728,0,0,0-.962,17.9,69,69,0,0,0,3.561,17.613,87.024,87.024,0,0,0,7.6,16.362c-.866-1.251-1.732-2.5-2.5-3.85s-1.54-2.6-2.214-3.946-1.347-2.695-1.925-4.139c-.674-1.348-1.155-2.791-1.732-4.235a56.631,56.631,0,0,1-2.5-8.758,70.688,70.688,0,0,1-1.347-9.047,67.924,67.924,0,0,1,1.251-18.191A56.768,56.768,0,0,1,231-431.8Z" transform="translate(650.512 713.35)"/>
    <path id="Path_1568" data-name="Path 1568" class="cls-24" d="M239.674-422.7a36.316,36.316,0,0,0-2.5,6.352,55.674,55.674,0,0,0-1.636,6.641,53.377,53.377,0,0,0-.77,13.571,51.7,51.7,0,0,0,2.695,13.282,66.119,66.119,0,0,0,5.775,12.416c-.577-.962-1.251-1.925-1.829-2.887s-1.155-1.925-1.732-2.984c-.481-1.059-1.059-2.021-1.444-3.08-.481-1.059-.866-2.117-1.347-3.176a48.211,48.211,0,0,1-1.925-6.641A40.3,40.3,0,0,1,234-396.04a50.8,50.8,0,0,1,.962-13.763A41.607,41.607,0,0,1,239.674-422.7Z" transform="translate(650.113 713.009)"/>
    <path id="Path_1569" data-name="Path 1569" class="cls-25" d="M396.6-300.379a57.849,57.849,0,0,0,6.16-6.641,56.879,56.879,0,0,0,5.2-7.411,67.805,67.805,0,0,0,7.411-16.362,68.326,68.326,0,0,0,3.08-17.709,87.067,87.067,0,0,0-1.155-18c.289,1.444.674,2.984.866,4.427.192,1.54.481,2.984.674,4.524s.289,2.984.385,4.524.1,3.08.1,4.524a56.494,56.494,0,0,1-.866,9.047,69.387,69.387,0,0,1-2.021,8.855,69.374,69.374,0,0,1-7.7,16.458A53.773,53.773,0,0,1,396.6-300.379Z" transform="translate(644.005 710.899)"/>
    <path id="Path_1570" data-name="Path 1570" class="cls-26" d="M391.9-311.452a37.472,37.472,0,0,0,4.62-5,44.967,44.967,0,0,0,3.946-5.582,48.114,48.114,0,0,0,5.582-12.416,52.689,52.689,0,0,0,2.31-13.378,65.26,65.26,0,0,0-.866-13.667c.193,1.155.481,2.214.674,3.369s.385,2.214.481,3.369l.289,3.465c.1,1.155.1,2.31.1,3.465a53.038,53.038,0,0,1-.577,6.833,52.608,52.608,0,0,1-1.54,6.737,49.564,49.564,0,0,1-5.871,12.512A46.778,46.778,0,0,1,391.9-311.452Z" transform="translate(644.182 710.712)"/>
    <path id="Path_1571" data-name="Path 1571" class="cls-27" d="M175.335-521.3s11.55,25.024,3.369,38.5c0,0-41.386,33.012-71.7,8.181,0,0,17.517-25.794,15.592-38.306C122.5-512.927,161.668-503.591,175.335-521.3Z" transform="translate(654.876 716.71)"/>
    <g id="Group_76" data-name="Group 76" transform="translate(781.125 129)">
      <path id="Path_1572" data-name="Path 1572" class="cls-28" d="M127-556.614s9.913,56.4,64,46.391l13.089-56.208s-45.91,13.09-46.872-23.869C157.221-590.3,152.024-555.555,127-556.614Z" transform="translate(-127 590.3)"/>
      <g id="Group_75" data-name="Group 75" transform="translate(9.24 17.036)">
        <path id="Path_1573" data-name="Path 1573" class="cls-29" d="M136.6-548.25s17.324-7.122,23.388-24.35" transform="translate(-136.6 572.6)"/>
        <path id="Path_1574" data-name="Path 1574" class="cls-29" d="M169.425-565.9S160.571-544.245,147-532.791" transform="translate(-136.99 572.349)"/>
        <path id="Path_1575" data-name="Path 1575" class="cls-29" d="M180.23-561.7s-2.984,20.693-19.73,42.348" transform="translate(-137.497 572.191)"/>
        <line id="Line_1" data-name="Line 1" class="cls-29" x1="10.106" y2="44.273" transform="translate(48.316 12.416)"/>
      </g>
    </g>
    <path id="Path_1576" data-name="Path 1576" class="cls-30" d="M556.267-136.526c0-6.448-19.153-1.251-42.733-1.251s-42.733-5.2-42.733,1.251v.77l10.106,82c0,5,14.533,8.855,32.627,8.855,17.9,0,32.628-4.042,32.628-8.855l10.106-82Z" transform="translate(636.601 683.913)"/>
    <ellipse id="Ellipse_14" data-name="Ellipse 14" class="cls-31" cx="42.83" cy="7.218" rx="42.83" ry="7.218" transform="translate(1108.267 539.11)"/>
    <ellipse id="Ellipse_15" data-name="Ellipse 15" class="cls-16" cx="31.954" cy="5.39" rx="31.954" ry="5.39" transform="translate(1119.143 540.938)"/>
    <path id="Intersection_1" data-name="Intersection 1" class="cls-32" d="M-1897.828-581.152c-7.151-5.765-29.807-24.992-33.93-40.351-4.908-18.286-2.791-48.316,10.683-58.422,8.779-6.584,15.271-10.675,20.06-10.147,14.146-13.335,30.424-21.612,27.39-36.533-4.62-22.714,2.407-23.58,14.341-17.131s41.483,40.52,29.452,68.719c-11.936,28.2-3.273,20.309-2.406,28.586.963,8.276-44.754,35.033-37.825,52.165,2.125,5.181,2.489,9.166,1.912,12.2a95.606,95.606,0,0,1-17.42,1.412C-1890.584-580.649-1895-580.922-1897.828-581.152Z" transform="translate(3035.983 1133.182)"/>
    <circle id="Ellipse_16" data-name="Ellipse 16" class="cls-22" cx="3.657" cy="3.657" r="3.657" transform="translate(1109.614 218.894)"/>
    <circle id="Ellipse_17" data-name="Ellipse 17" class="cls-22" cx="1.347" cy="1.347" r="1.347" transform="translate(1107.689 228.422)"/>
    <path id="Path_1577" data-name="Path 1577" class="cls-29" d="M132.163-507.3s-2.406,22.425-13.763,33.2" transform="translate(654.448 716.185)"/>
    <path id="Path_1578" data-name="Path 1578" class="cls-29" d="M142.545-505.8s2.31,22.425-6.545,35.322" transform="translate(653.787 716.128)"/>
    <path id="Path_1579" data-name="Path 1579" class="cls-29" d="M152.7-506.2s7.315,20.308,2.6,34.071" transform="translate(653.16 716.143)"/>
    <path id="Path_1580" data-name="Path 1580" class="cls-29" d="M170.6-510.2s6.448,18.094,2.214,30.414" transform="translate(652.489 716.293)"/>
  </g>
</svg>
