<svg width="48" height="48" viewBox="0 0 48 48" fill="none" xmlns="http://www.w3.org/2000/svg">
<mask id="mask0" mask-type="alpha" maskUnits="userSpaceOnUse" x="0" y="0" width="48" height="48">
<path d="M24 0C10.7451 0 0 9.94919 0 22.2222C0 29.2156 3.48999 35.4535 8.9441 39.527V48L17.1159 43.5151C19.2967 44.1187 21.6072 44.4444 24 44.4444C37.2549 44.4444 48 34.4953 48 22.2222C48 9.94919 37.2549 0 24 0ZM26.3851 29.9259L20.2733 23.4074L8.34783 29.9259L21.4658 16L27.7267 22.5185L39.5031 16L26.3851 29.9259Z" fill="white"/>
</mask>
<g mask="url(#mask0)">
<path fill-rule="evenodd" clip-rule="evenodd" d="M-5 -5H53V53H-5V-5Z" fill="#007FFF"/>
</g>
</svg>
