<svg id="Layer_1" data-name="Layer 1" xmlns="http://www.w3.org/2000/svg" viewBox="0 0 151.93 45.47"><defs><style>.cls-1{fill:#961c52;}.cls-2{fill:#c7206c;}.cls-3{fill:#4b4b4d;}.cls-4{fill:#727375;}</style></defs><title>novaon-autoads</title><path class="cls-1" d="M137.21,22.9a20.16,20.16,0,0,1-1-6.32c0-.07,0-.15,0-.22s0-.11,0-.17a20.31,20.31,0,0,1,1-6.23c-2.48-.17-3.92,1.34-4.71,3.77a11.11,11.11,0,0,0-.34,2.8,10.67,10.67,0,0,0,1.22,5.16A6,6,0,0,0,137.21,22.9Z" transform="translate(-1.68 -5.75)"/><path class="cls-2" d="M132.35,14.16c.78-2.74,2.28-4.45,5-4.19,3.91.38,7.55,4.85,7.55,4.85a.34.34,0,0,0,.35,0,.27.27,0,0,0,.17-.24c0-4.67-1.52-7.13-2.54-8.06a2.41,2.41,0,0,0-1.46-.77A10.69,10.69,0,0,0,132.35,14.16Z" transform="translate(-1.68 -5.75)"/><path class="cls-2" d="M139.92,22.82c-.12-.49-.44-.4-.44-.4a6.17,6.17,0,0,1-6.16-.73l.18.33a11.33,11.33,0,0,0,8.68,5.22s.07,0,.05,0A9.15,9.15,0,0,1,139.92,22.82Z" transform="translate(-1.68 -5.75)"/><path class="cls-1" d="M148.51,10.08a20.14,20.14,0,0,1,1,6.32c0,.07,0,.15,0,.22s0,.11,0,.17a20.31,20.31,0,0,1-1,6.23c2.48.17,3.92-1.34,4.71-3.77a11.13,11.13,0,0,0,.35-2.8,10.68,10.68,0,0,0-1.22-5.16A6,6,0,0,0,148.51,10.08Z" transform="translate(-1.68 -5.75)"/><path class="cls-2" d="M153.36,18.82c-.78,2.74-2.28,4.45-5,4.19-3.91-.38-7.55-4.85-7.55-4.85a.33.33,0,0,0-.35,0,.27.27,0,0,0-.17.24c0,4.67,1.52,7.13,2.54,8.06a2.41,2.41,0,0,0,1.46.77A10.69,10.69,0,0,0,153.36,18.82Z" transform="translate(-1.68 -5.75)"/><path class="cls-2" d="M145.79,10.16c.12.49.44.41.44.41a6.17,6.17,0,0,1,6.16.73l-.18-.33a11.33,11.33,0,0,0-8.68-5.22s-.07,0-.05,0A9.15,9.15,0,0,1,145.79,10.16Z" transform="translate(-1.68 -5.75)"/><path class="cls-3" d="M24.18,26.83a10.22,10.22,0,0,1,3.23-7.56,10.63,10.63,0,0,1,7.73-3.16,10.43,10.43,0,0,1,7.64,3.19A10.42,10.42,0,0,1,46,26.95a10.26,10.26,0,0,1-3.21,7.63,11,11,0,0,1-15,.35A10.25,10.25,0,0,1,24.18,26.83Zm3.17,0a7.73,7.73,0,0,0,13.2,5.64,7.66,7.66,0,0,0,2.26-5.59,7.62,7.62,0,0,0-2.23-5.59,7.35,7.35,0,0,0-5.48-2.27,7.42,7.42,0,0,0-5.5,2.27A7.52,7.52,0,0,0,27.35,26.86Z" transform="translate(-1.68 -5.75)"/><path class="cls-3" d="M82.59,26.83a10.22,10.22,0,0,1,3.23-7.56,10.63,10.63,0,0,1,7.73-3.16,10.43,10.43,0,0,1,7.65,3.19,10.42,10.42,0,0,1,3.2,7.66,10.26,10.26,0,0,1-3.21,7.63,11,11,0,0,1-15,.35A10.24,10.24,0,0,1,82.59,26.83Zm3.17,0A7.73,7.73,0,0,0,99,32.5a7.67,7.67,0,0,0,2.26-5.59A7.63,7.63,0,0,0,99,21.33a7.34,7.34,0,0,0-5.48-2.27A7.42,7.42,0,0,0,88,21.33,7.51,7.51,0,0,0,85.77,26.86Z" transform="translate(-1.68 -5.75)"/><polygon class="cls-3" points="121.89 25.24 108 10.7 106.68 10.7 106.68 31.6 109.83 31.6 109.83 17 123.82 31.6 125.04 31.6 125.04 10.74 121.89 10.74 121.89 25.24"/><polygon class="cls-3" points="15.21 25.24 1.36 10.74 0 10.74 0 31.6 3.15 31.6 3.15 17 17.14 31.6 18.36 31.6 18.36 10.74 15.21 10.74 15.21 25.24"/><polygon class="cls-3" points="54.65 31.85 63.46 10.74 60.02 10.74 54.17 25.2 48.4 10.74 44.96 10.74 53.57 31.85 54.65 31.85"/><polygon class="cls-3" points="69.29 10.7 60.66 31.85 64.11 31.85 69.87 17.4 75.72 31.85 79.17 31.85 70.34 10.7 69.29 10.7"/><path class="cls-4" d="M70.95,48.65l-.81,2.45h-1l2.65-7.79H73l2.66,7.79H74.54l-.83-2.45Zm2.55-.79-.76-2.24c-.17-.51-.29-1-.4-1.42h0c-.12.46-.24.94-.39,1.41l-.76,2.25Z" transform="translate(-1.68 -5.75)"/><path class="cls-4" d="M79.16,43.31v4.61c0,1.74.77,2.48,1.81,2.48s1.89-.76,1.89-2.48V43.31h1v4.54c0,2.39-1.26,3.37-2.95,3.37s-2.79-.91-2.79-3.33V43.31Z" transform="translate(-1.68 -5.75)"/><path class="cls-4" d="M88.84,44.16H86.47v-.85h5.76v.85H89.85v6.93h-1Z" transform="translate(-1.68 -5.75)"/><path class="cls-4" d="M101.17,47.12c0,2.68-1.63,4.1-3.62,4.1s-3.5-1.59-3.5-4,1.54-4.09,3.62-4.09S101.17,44.81,101.17,47.12Zm-6,.13c0,1.66.9,3.15,2.48,3.15s2.5-1.47,2.5-3.23c0-1.55-.81-3.16-2.48-3.16S95.13,45.54,95.13,47.25Z" transform="translate(-1.68 -5.75)"/><path class="cls-4" d="M105.3,48.65l-.81,2.45h-1l2.64-7.79h1.21L110,51.09h-1.07l-.83-2.45Zm2.55-.79-.76-2.24c-.17-.51-.29-1-.4-1.42h0c-.12.46-.24.94-.39,1.41l-.76,2.25Z" transform="translate(-1.68 -5.75)"/><path class="cls-4" d="M112.84,43.41a14.48,14.48,0,0,1,2.14-.16,4.46,4.46,0,0,1,3.15,1,3.59,3.59,0,0,1,1.1,2.8,4.12,4.12,0,0,1-1.12,3,4.8,4.8,0,0,1-3.44,1.12,16.23,16.23,0,0,1-1.83-.09Zm1,6.88a6.38,6.38,0,0,0,1,.06,3,3,0,0,0,3.32-3.3c0-1.84-1-3-3.15-3a5.72,5.72,0,0,0-1.18.1Z" transform="translate(-1.68 -5.75)"/><path class="cls-4" d="M122.12,49.87a3.56,3.56,0,0,0,1.8.51c1,0,1.63-.54,1.63-1.33s-.42-1.14-1.47-1.55c-1.27-.45-2.06-1.11-2.06-2.21a2.24,2.24,0,0,1,2.52-2.11,3.54,3.54,0,0,1,1.72.38l-.28.82a3.1,3.1,0,0,0-1.48-.37c-1.06,0-1.47.64-1.47,1.17,0,.73.47,1.09,1.55,1.5,1.32.51,2,1.14,2,2.29s-.89,2.24-2.73,2.24a4,4,0,0,1-2-.5Z" transform="translate(-1.68 -5.75)"/><rect class="cls-4" y="44.56" width="63.46" height="0.88"/></svg>