<svg width="128" height="38" viewBox="0 0 128 38" fill="none" xmlns="http://www.w3.org/2000/svg">
<path d="M114.212 14.3327C113.649 12.6279 113.365 10.8448 113.369 9.051C113.369 8.99249 113.369 8.92564 113.369 8.86714C113.369 8.80864 113.369 8.77521 113.369 8.72507C113.375 6.95662 113.659 5.19993 114.212 3.51856C112.122 3.37648 110.909 4.63842 110.243 6.6692C110.048 7.43397 109.951 8.2203 109.956 9.00921C109.928 10.5095 110.281 11.9928 110.985 13.3215C111.911 14.0163 113.051 14.3734 114.212 14.3327Z" fill="#961C52"/>
<path d="M110.116 7.02837C110.774 4.73851 112.038 3.30943 114.33 3.52672C117.625 3.84429 120.692 7.57994 120.692 7.57994C120.737 7.60646 120.788 7.62047 120.84 7.62047C120.892 7.62047 120.943 7.60646 120.987 7.57994C121.028 7.56382 121.063 7.5363 121.089 7.5007C121.114 7.4651 121.129 7.42296 121.13 7.37937C121.13 3.47658 119.849 1.42072 118.99 0.643501C118.669 0.292066 118.233 0.0641923 117.76 0C115.908 0.241407 114.178 1.04743 112.809 2.30657C111.439 3.5657 110.499 5.21572 110.116 7.02837V7.02837Z" fill="#C7206C"/>
<path d="M116.495 14.2652C116.394 13.8557 116.124 13.9309 116.124 13.9309C115.282 14.2928 114.358 14.427 113.446 14.3198C112.534 14.2127 111.667 13.868 110.933 13.3208L111.085 13.5966C111.879 14.8367 112.954 15.8764 114.223 16.6335C115.493 17.3907 116.923 17.8445 118.4 17.959C118.4 17.959 118.459 17.959 118.442 17.959C117.461 16.9302 116.787 15.6514 116.495 14.2652V14.2652Z" fill="#C7206C"/>
<path d="M123.734 3.61889C124.297 5.32368 124.582 7.10676 124.577 8.90062C124.577 8.95912 124.577 9.02597 124.577 9.08447C124.577 9.14297 124.577 9.1764 124.577 9.22655C124.571 10.995 124.287 12.7517 123.734 14.4331C125.824 14.5751 127.038 13.3132 127.704 11.2824C127.902 10.518 128.001 9.73166 127.998 8.9424C128.027 7.44212 127.673 5.95898 126.97 4.63011C126.041 3.93348 124.898 3.57629 123.734 3.61889V3.61889Z" fill="#961C52"/>
<path d="M127.822 10.9225C127.164 13.2124 125.9 14.6415 123.608 14.4242C120.313 14.1066 117.246 10.371 117.246 10.371C117.202 10.3435 117.151 10.329 117.098 10.329C117.046 10.329 116.995 10.3435 116.951 10.371C116.91 10.3871 116.875 10.4146 116.849 10.4502C116.824 10.4858 116.809 10.5279 116.808 10.5715C116.808 14.4743 118.089 16.5302 118.948 17.3074C119.269 17.6588 119.705 17.8867 120.178 17.9509C122.03 17.7095 123.76 16.9035 125.129 15.6443C126.499 14.3852 127.439 12.7352 127.822 10.9225V10.9225Z" fill="#C7206C"/>
<path d="M121.442 3.68551C121.544 4.09501 121.813 4.02815 121.813 4.02815C122.656 3.66625 123.58 3.53205 124.492 3.63921C125.404 3.74636 126.27 4.09105 127.004 4.63822L126.853 4.36244C126.058 3.12237 124.984 2.08264 123.714 1.32548C122.445 0.568333 121.015 0.114539 119.538 0C119.538 0 119.479 0 119.496 0C120.476 1.02647 121.15 2.30219 121.442 3.68551V3.68551Z" fill="#C7206C"/>
<path d="M18.9609 17.6174C18.9488 16.4348 19.1845 15.2626 19.6531 14.175C20.1216 13.0875 20.8128 12.1082 21.6829 11.2994C22.5327 10.4459 23.5479 9.77191 24.6675 9.31804C25.787 8.86417 26.9876 8.63983 28.197 8.65855C29.3968 8.64356 30.587 8.87236 31.6943 9.33086C32.8015 9.78935 33.8024 10.4678 34.6352 11.3245C35.5051 12.1489 36.1948 13.1418 36.6616 14.2416C37.1284 15.3414 37.3623 16.5246 37.3487 17.7177C37.3692 18.9086 37.1392 20.0907 36.6734 21.1885C36.2077 22.2864 35.5164 23.276 34.6437 24.0942C32.9653 25.7206 30.7274 26.6552 28.3815 26.7095C26.0355 26.7638 23.7561 25.9337 22.0031 24.3867C21.0173 23.5563 20.2322 22.5169 19.7056 21.3452C19.1791 20.1736 18.9246 18.8996 18.9609 17.6174V17.6174ZM21.6323 17.6174C21.6019 18.9082 21.9623 20.1784 22.6669 21.2641C23.3715 22.3499 24.388 23.2013 25.5852 23.7086C26.7824 24.2159 28.1055 24.3558 29.3836 24.1102C30.6618 23.8646 31.8364 23.2449 32.756 22.3309C33.3756 21.7204 33.8639 20.9917 34.1913 20.1887C34.5186 19.3857 34.6783 18.5252 34.6605 17.6592C34.6835 16.7948 34.5288 15.9348 34.2057 15.1316C33.8826 14.3284 33.3979 13.5989 32.7813 12.9876C32.1867 12.3705 31.4689 11.8832 30.6738 11.5565C29.8787 11.2299 29.0237 11.0712 28.1633 11.0905C27.3005 11.0724 26.4433 11.2316 25.6457 11.5581C24.848 11.8846 24.1271 12.3713 23.5284 12.9876C22.9067 13.5926 22.4175 14.3182 22.0913 15.1191C21.7651 15.92 21.6088 16.779 21.6323 17.6425V17.6174Z" fill="white"/>
<path d="M68.1833 17.6174C68.1712 16.4348 68.4069 15.2626 68.8754 14.175C69.344 13.0875 70.0352 12.1082 70.9052 11.2994C71.755 10.4459 72.7703 9.77191 73.8898 9.31804C75.0094 8.86417 76.21 8.63983 77.4193 8.65855C78.6206 8.64242 79.8124 8.87066 80.9212 9.32919C82.03 9.78772 83.0322 10.4668 83.866 11.3245C84.7339 12.1513 85.4211 13.1462 85.885 14.2475C86.3488 15.3487 86.5795 16.5327 86.5627 17.7261C86.5831 18.917 86.3531 20.099 85.8874 21.1969C85.4216 22.2947 84.7304 23.2843 83.8576 24.1026C82.1792 25.729 79.9414 26.6636 77.5954 26.7178C75.2495 26.7721 72.9701 25.9421 71.217 24.3951C70.2312 23.5633 69.4466 22.5223 68.9215 21.349C68.3963 20.1758 68.144 18.9005 68.1833 17.6174ZM70.8547 17.6174C70.8118 18.9173 71.1655 20.1997 71.8696 21.2969C72.5737 22.3941 73.5954 23.2551 74.8009 23.7671C76.0064 24.279 77.3397 24.4183 78.6264 24.1665C79.913 23.9147 81.093 23.2837 82.0121 22.3559C82.6313 21.7452 83.1193 21.0164 83.4466 20.2135C83.774 19.4106 83.9338 18.5502 83.9166 17.6843C83.9347 16.8195 83.7751 15.9602 83.4477 15.1585C83.1203 14.3568 82.6319 13.6296 82.0121 13.021C81.4178 12.4035 80.7001 11.9159 79.9049 11.5892C79.1097 11.2626 78.2545 11.1041 77.3941 11.1239C76.5285 11.1035 75.6681 11.2616 74.8674 11.5882C74.0666 11.9147 73.343 12.4026 72.7423 13.021C72.1275 13.6233 71.6436 14.344 71.3204 15.1389C70.9972 15.9337 70.8416 16.7857 70.8631 17.6425L70.8547 17.6174Z" fill="white"/>
<path d="M102.717 21.0928L91.0119 8.94153H89.8995V26.408H92.5541V14.2065L104.343 26.408H105.372V8.97496H102.717V21.0928Z" fill="white"/>
<path d="M12.8175 21.0937L1.14608 8.97583H0V26.4089H2.65452V14.2074L14.444 26.4089H15.4721V8.97583H12.8175V21.0937Z" fill="white"/>
<path d="M46.0538 26.6178L53.478 8.97583H50.5791L45.6492 21.0603L40.7868 8.97583H37.8879L45.1436 26.6178H46.0538Z" fill="white"/>
<path d="M58.3912 8.94153L51.1187 26.6169H54.026L58.88 14.5408L63.8098 26.6169H66.7171L59.276 8.94153H58.3912Z" fill="white"/>
<path d="M58.374 35.8526L57.6915 37.9001H56.8488L59.0819 31.3899H60.1016L62.3432 37.9001H61.3994L60.6999 35.8526H58.374ZM60.5229 35.1924L59.8825 33.3204C59.7392 32.8942 59.6381 32.4847 59.5454 32.1337C59.4443 32.5181 59.3432 32.9193 59.2168 33.312L58.5763 35.1924H60.5229Z" fill="white"/>
<path d="M65.293 31.3899V35.2425C65.293 36.6967 65.9419 37.3151 66.8183 37.3151C67.6947 37.3151 68.411 36.68 68.411 35.2425V31.3899H69.2537V35.184C69.2537 37.1814 68.1919 38.0004 66.7678 38.0004C65.3436 38.0004 64.4166 37.2399 64.4166 35.2175V31.3899H65.293Z" fill="white"/>
<path d="M73.4502 32.1002H71.453V31.3899H76.307V32.1002H74.3013V37.8918H73.4586L73.4502 32.1002Z" fill="white"/>
<path d="M83.8409 34.5743C83.8409 36.814 82.4673 38.0007 80.7903 38.0007C79.1133 38.0007 77.8408 36.6719 77.8408 34.6578C77.8408 32.6437 79.1386 31.2397 80.8914 31.2397C82.6442 31.2397 83.8409 32.6437 83.8409 34.5743ZM78.7846 34.6829C78.7846 36.0702 79.5431 37.3154 80.8746 37.3154C82.206 37.3154 82.9813 36.0869 82.9813 34.616C82.9813 33.3207 82.2987 31.9752 80.8914 31.9752C79.4841 31.9752 78.7509 33.2538 78.7509 34.6829H78.7846Z" fill="white"/>
<path d="M87.3207 35.8527L86.6381 37.9002H85.7954L88.0202 31.39H89.0398L91.2814 37.8919H90.3797L89.6803 35.8444L87.3207 35.8527ZM89.4696 35.1925L88.8291 33.3205C88.6859 32.8943 88.5848 32.4848 88.4921 32.1338C88.3909 32.5182 88.2898 32.9194 88.1634 33.3122L87.523 35.1925H89.4696Z" fill="white"/>
<path d="M93.6752 31.473C94.2721 31.3843 94.8749 31.3396 95.4786 31.3393C96.4387 31.2705 97.3888 31.5696 98.1331 32.175C98.4491 32.4753 98.6956 32.8401 98.8556 33.2441C99.0157 33.6481 99.0854 34.0817 99.0601 34.515C99.0794 34.9742 99.0059 35.4327 98.8438 35.8632C98.6817 36.2938 98.4343 36.6879 98.1162 37.0222C97.31 37.6972 96.2697 38.0331 95.2173 37.9582C94.7023 37.9619 94.1874 37.9368 93.6752 37.883V31.473ZM94.5179 37.2227C94.797 37.2613 95.0788 37.2781 95.3606 37.2729C95.7369 37.3151 96.1179 37.2729 96.4755 37.1495C96.8331 37.026 97.1582 36.8245 97.4268 36.5598C97.6954 36.295 97.9006 35.9738 98.0272 35.6199C98.1538 35.266 98.1986 34.8884 98.1584 34.515C98.1584 32.9773 97.3157 32.0079 95.5038 32.0079C95.1704 32.0015 94.8371 32.0295 94.5095 32.0914L94.5179 37.2227Z" fill="white"/>
<path d="M101.495 36.8718C101.953 37.1454 102.477 37.2926 103.012 37.298C103.855 37.298 104.386 36.8467 104.386 36.1865C104.386 35.5263 104.032 35.2338 103.147 34.8911C102.077 34.5151 101.411 33.9635 101.411 33.0442C101.424 32.7866 101.491 32.5345 101.606 32.3036C101.722 32.0728 101.885 31.8681 102.084 31.7026C102.284 31.537 102.516 31.4141 102.765 31.3415C103.015 31.2689 103.277 31.2483 103.535 31.2808C104.037 31.2639 104.536 31.3731 104.984 31.5984L104.748 32.2837C104.365 32.0792 103.936 31.9729 103.501 31.9745C102.608 31.9745 102.262 32.5094 102.262 32.9523C102.262 33.5624 102.658 33.8632 103.568 34.2059C104.681 34.6321 105.254 35.1586 105.254 36.1196C105.254 37.0807 104.504 37.9916 102.953 37.9916C102.364 38.0008 101.783 37.8567 101.268 37.5738L101.495 36.8718Z" fill="white"/>
<path d="M53.478 37.24H0V37.9754H53.478V37.24Z" fill="white"/>
</svg>
