<svg width="20" height="20" viewBox="0 0 20 20" fill="none" xmlns="http://www.w3.org/2000/svg">
<path fill-rule="evenodd" clip-rule="evenodd" d="M3.58331 5.41668C3.3402 5.41668 3.10704 5.51325 2.93513 5.68516C2.76322 5.85707 2.66665 6.09023 2.66665 6.33334V16.4167C2.66665 16.6598 2.76322 16.893 2.93513 17.0649C3.10704 17.2368 3.3402 17.3333 3.58331 17.3333H13.6666C13.9098 17.3333 14.1429 17.2368 14.3148 17.0649C14.4867 16.893 14.5833 16.6598 14.5833 16.4167V10.9167C14.5833 10.4104 14.9937 10 15.5 10C16.0062 10 16.4166 10.4104 16.4166 10.9167V16.4167C16.4166 17.146 16.1269 17.8455 15.6112 18.3612C15.0955 18.8769 14.396 19.1667 13.6666 19.1667H3.58331C2.85397 19.1667 2.15449 18.8769 1.63877 18.3612C1.12304 17.8455 0.833313 17.146 0.833313 16.4167V6.33334C0.833313 5.604 1.12304 4.90453 1.63877 4.3888C2.15449 3.87307 2.85397 3.58334 3.58331 3.58334H9.08331C9.58957 3.58334 9.99998 3.99375 9.99998 4.50001C9.99998 5.00627 9.58957 5.41668 9.08331 5.41668H3.58331Z" fill="white"/>
<path fill-rule="evenodd" clip-rule="evenodd" d="M11.8333 1.75001C11.8333 1.24375 12.2437 0.833344 12.75 0.833344H18.25C18.7562 0.833344 19.1666 1.24375 19.1666 1.75001V7.25001C19.1666 7.75627 18.7562 8.16668 18.25 8.16668C17.7437 8.16668 17.3333 7.75627 17.3333 7.25001V2.66668H12.75C12.2437 2.66668 11.8333 2.25627 11.8333 1.75001Z" fill="white"/>
<path fill-rule="evenodd" clip-rule="evenodd" d="M18.8982 1.10183C19.2562 1.45981 19.2562 2.04021 18.8982 2.39819L8.81485 12.4815C8.45687 12.8395 7.87647 12.8395 7.51849 12.4815C7.1605 12.1235 7.1605 11.5431 7.51849 11.1852L17.6018 1.10183C17.9598 0.743848 18.5402 0.743848 18.8982 1.10183Z" fill="white"/>
</svg>
